<mxfile host="app.diagrams.net" modified="2024-02-06T02:04:58.914Z" agent="Mozilla/5.0 (X11; Ubuntu; Linux x86_64; rv:109.0) Gecko/20100101 Firefox/113.0" etag="mmuyt_auMEOhxfhUx1Rs" version="23.1.1" type="github">
  <diagram name="Page-1" id="v3dpS_OFj6nwQXq7DWlG">
    <mxGraphModel dx="1367" dy="763" grid="1" gridSize="10" guides="1" tooltips="1" connect="1" arrows="1" fold="1" page="1" pageScale="1" pageWidth="850" pageHeight="1100" math="0" shadow="0">
      <root>
        <mxCell id="0" />
        <mxCell id="1" parent="0" />
        <mxCell id="YRq7Emb6F6VTycI_Y0Oi-1" value="" style="rounded=1;whiteSpace=wrap;html=1;arcSize=5;dashed=1;" parent="1" vertex="1">
          <mxGeometry x="130" y="40" width="300" height="480" as="geometry" />
        </mxCell>
        <mxCell id="YRq7Emb6F6VTycI_Y0Oi-2" value="" style="shape=image;verticalLabelPosition=bottom;labelBackgroundColor=default;verticalAlign=top;aspect=fixed;imageAspect=0;image=data:image/png,iVBORw0KGgoAAAANSUhEUgAAAOEAAAHSCAYAAAAaKqzNAAAABHNCSVQICAgIfAhkiAAAIABJREFUeF7svfmvZVd237fvPLz5VRWrWE2yuzU5klqDHSOJDDtIEFtwBidxkCBAECD+Jch/IeTfyCzEQwQkgWErim15luzW0JLSslrdLbLJbpJNsuZ687vzy+ez9tm3Tj1Wka8GsqvJe6ruO9Oe9/qutfbaa+/TOONIq2PVAqsW+IG1QPsHlvNnJGM5WINf8LIGVzWe1uDe5555ceEaPyKpZdKRVHUs884lqEpyPpuLhCrlqyV+PpnV/SfWAo2VJHzWti1Ebjr16wzMDMCHsLnM8CGSr/BbQFaAeLHSPQBaZgkXi7UK9WK0wEoSPmM/nJ01Kil1BgS55m+RfkUSmkWjIVDOgbSWt4B8IEiz9DSdB5L0UdLK9JrGTGekb+51SVySPyNhuC3pL6oyLt8s458vW61oq8tPuAVWIHzGBi7EL1gWzbPUBJQFa4vFIgDSbKqWAgB+jYagyUdIwiLyAj8PwLdYCLD8zHOTaD7zXA5Tb6YF/5pZ2a3SqsOVUgXwQGFmEMSJfOOoM4aHGcQyyOriE2+BlTr6jE1cgBUgBGTSdRkDikFBoxQUH+ePAEsFvAYBvfYo54fHlOdj5/scv5XFaEjhSCDKsJSiFSpXkvDRbfiDfrqShM/YA0UdNZlKGQWMWeoo9QRpljjNUDfPH2XMWICj9CwgzgDPYDofr9xnwCILI69SAnJEavovJDEZR5lCGtaPlSR8XLt+ms9XIHzG1l4CCyJvoo4q/RwXepydzbNkCpVUEAAUQVbXKSugZCXRMK0AqxKtpP0o8GZgOx4tIM+AWoYtY8SAYgF2K+5i7Pih41HPPhRo9eATaIEVCC/QqPWxWgm+NLoUVTPUv0zsIQeVREofAccZiGbSr1ASciokl+O5oqtmIITwrFTIAE2gUsA9gFCWcSHnAmRni3mEy5KZt45NwxjkIaItRjWgjHD5TSRdqa+lbqvzp9sCKxBeoL2LyrhUHSXrinADDFCy48ElyVcIWQgc8cAPQRjvQ8J5HcS/xFqojFW0eOeN9xV64kHE8xx3WaIFiJSuMgBjVFLWt80zx4oahCxj/kXMuDcVy5BBvgJiNMcP5FiB8GOaPY+5PhyoSMIiqSrcRMAAT6F8zt6HpRQraUqtAJxIiluOPJLL1xFWkNSsoJUMrcKWcI00V2IuZsmLVityDYCGuimoKwtrkZC5ZEpUJWEVvrquM5icw+rvp9UCK+voBVq6Li3m86z2NYvECZBl1EjXcceFhhDDOD2RlU6wQl6T2SLNprM0m0/T6XiSxien6XQyTsdHR2kGUOfTKZjS0NJIrXY7tVut1Ov306A/4NdPw7VB6nc7qcWvXSG1gSoqoEu+bfIVf5ZBSLZI61HAM3yph82wAuIFiOETCLIC4cc0ah2AdalYJ+o5IJg7hwdgprMp507qtzGwkPYINfHg8CTduXkr3d27n77//vvpnXfeTR988H66c+duOjjYT+PxOE0B34J0GN5lUFegMJ9er5eGw2FaX19P2zvb6erVa+nVV19NX/7Sl9NLL72ULm9vpM2N9dQBlApHy7OAWWgxFWRTQN7udOPecauMpNPpZOlM+BblVmo2imj+mDZZvX6+LbAC4ce0p2qkhOy5/CRan0nMWZq00kSiB3g9nk9Ic//gOL0P4L717W+l17/znfS13/1a2tvfA3DT+InQXr+XuoKDODPA+2FJFKKVQzifpflsnkYASknaIq/NjS3A2Utf+emfTn/2z/xc+pmf+Zl0/eWX0y5g9ZiFNASWSlgkcIc4rVYud6vJeNHkGWiafzCbUGM/pkFWr597C6xA+DFNWpd+gq6NiigYvc7qZjOdoFK2kCxNVMR337+R3njj9fTbv/276Td/81+kd7//Tur2hmlndyeri3PApLjSZgIQkFUgQeNJlkQFDGWsKVAEkgBVknnEvf+QXB1AdbB/L52enqad7Z30C3/uF9Jf/Hf/vfQTP/6j6drVq2mt00qHvNsY9AGieVsHR5mNALPWWwGdNeoVAj+GHD6R1ysQfkyz1kHo9Ww2CwAKRu/9qS4eHJ+mf/bV30r/4B/+evq9r/1emkDgGxsbMa4TdGPUTQIDJNRUgKOAU4U9U5ryz7FfHsOJyTyXWCRjlMFfBUTB57s5ZZkiHdfWhqS7SKPjk3RyfJyGg0H6qZ/+19K//4t/Of2FP/dvpZcv76Y58U8pYwvQDYb9NBuNMwBhHCHtiyUoC92VRPwYunier1cgpDVD+iythJneSyP7rq6O+ryooX0MJacnJ+nNN99Kv/r3fz39o9/8DcZ/x4Rvp3WAcXx6kkaonmtr6wGwAFOMu/LYLaRdNSeoZApQ+y/jLaSVYBWgHlNAJ0ADjIDJlGJqxHg8byPRBr1uGp2O0unRQbq8u5v+zM//XPrP/+pfTT/7sz+dBgBuMpowHtQojlSEMTTbSHCYQhxVvubpQTbLslRPcqDIeXU8rxZYgfACLRng4RB8c9RJLZ5S7BRp90//+T9Lf+Ov/430J29+Nw22tpF8XSygSKjJNKRlhzHfHKCInQAYlF2unYfQfBNzhko/7iX8Qv1mWxwA8ouqsAFo1dnskjafz1IfdVOpejo6TV3VXNKZMX5M8wnjxC+k/+w//o/Sf/pX/sO0tbmB6jpOnS5AdLwIQ2gDyjDMyIiIVyBWmIG51q+rUqxOz6kFViAMAiuSMIulBUStpVPJoMoY47HKeHF0Mkr9fpfx1Dz9T//r/5b+/q//g7S/v5/Omp3UYRphgoHFafsW0lAXtBnzeHPAqtEm3NYkccFVEXsxhhSfUfPKEM/lMmwYVzhC+lXiKSRrTCgKI9VT7S9aRFsYYBi3ImIXGGOcvhihem4ytfEf/OIvpr/23/zXaWtjLZ3BKHo9gItrnXFbraxeez2z/gIZJJe2yfRWSuZ5dTyvFliBkJYsFtAz5u4cr41HI4wpvZgHD1gqoSDICeOvPhLkcDxL/8P/+D+nX/1//146wegxYAy2gPhVF4Nw7Z2QYpxdReGf/JS/wBAEapX0yF4w5lERuPF8Hi+XfyJsTrR6XtxqTF0mErEYV/I3fGeIa77hGMC76fg0tSnbX/5Lfyn9d//tX0u721sIyUnqtnyPgQcDzhTVudXBekrFtQDnkuS5zuwOZz2y9ORidTynFlh5zEiCEKqAKeBpt7pZU+N5G1A6wR6kyp/TySz9yq/8n+lv/h+/kvrM3a0xHXCKpFk05iFN8gqKCgQBIsGYJZnXMc4TIAEi3gVYDFNBr9zHywhSu6i9VBLiC9cyaePqF1dlE4t4+S0WhEd6OgL12ZR6/Nqv/RoGo0H6r/7L/yJd2t6MKQvzEWQxtuTXYZxo1gulpOWNd1naVpyhFGx1fg4tUHOOeg6p/ZAmIQ2HwOAIqQiYFGFKK4lxMp0EUFqMnf7vX/219Mv/+y8zab4V1kVVtyB4xmNxRGJKOynb/0qpDIrlmMvnJJjBGMEiDctQFSPOcR+/Ej+/Xz4jgQU3AixkoSpohK/GjDy3PpaxBbA2YBg9xo5//W/8zfS3/87fDYBOUKvn/Azn2DCrzDnfZsN71fF8nyu4+vu8W2AFworYAzsQ5cL5BIlOywarDmaMuzpYFX33tT/4evpbf/NvhfvZHGrXC0UilkoHSEVXvme1sqDHpLx+0G1xWT2qXz9xx1ZZBJirNDPLKIC0QlpOc/ksl+5xPSb39c75O3/376Z/9hv/InVRrxuqpP5XKpoeiWqEMuWsJWQgRj7x9MGv3FevVqenaIEVCGk0OX2WhhAwLRLWTKULwPOlho53btxMv/zLfz2sj+J0yrhphLuZfp4dxo8TxleRzlN0wlNFUZqam1hDWqkGZ6mo6unD/D6YCf81Fo1mo3T33l569bUvphu3bqW/9Su/kr779vdjasP4WZhn408Icv549oj2qQrqufx8VJ5Xr1enJ2yBFQglsIqQJLQyJxgEqFoHER9hsPj1f/iP0h/84de5b2fpiGWxjZeMztWHh4dBsEVqPGEfPF3woPyQs1kdlXtwIzADhAU93uthw2v9T5XYB0zob+Jd86/++Bvp//rbfzsdMskfBiVVTykCbhL+pAHCB/UqoLS9wjpblbycn64iq1grEErEcvmQFtk9rL7fyxQV84Pbt9Ov/trfA3S9dMQE/FBjDBPiE9Q6VTsn7Z1QLwT7aZFVHmta/rgKbhLjxwCgvyyvZCzOW45ZtdGgnGOlNqpns9tL/4R5zm++/kZ40tgGE+ZBrZtxrc/y8KVp52yqcWh+uwLhs/X4CoSSG1Tk2MpxUEwf8EzVzp9E9/f/3q+nm7dupwaGC1dIzNVHkRyOpWL6wvBVPxj+0zpC6kXZUUWxjlqHKEz+U5VKRwGsqIBPMM6YZlGCjxnL9gfr6b0PPmBs+Btpnwn8Ut92r8MyKyb6Y6uNbNwR2DoUBMMyByVkVdFPscqfVtN+qvmsQFhotmLnAUANLBCZ3jFvv/Ne+upv/Xb4gkp2SklsidkHlAlt1Tcti5+6Oko5ozwBClXJ+FuBUikWgivKla+zw0HE4oXSU4tub7CW/gkg/BYrPSSGKU7eMpYeUtLxZJaGAtx0clpBoSa6Op5LC6xAWNGTBNsKt7HsKyrYHCf9LkuQvvPmm5V3iURpk/FTEiD+CoE/sCJ+enKhCD3hENJcOPKw6RgwCudZULnk6gGjCKlN3fQGGqxtpLe+9730u7/zOwnZF4am4rygs3pWdWE2Go0F+lL8fXr1fC6U/gInsgKhBBwSAxAi2SaMm7TYj/GK0d3rq1/97SDEARIjABfSxzlErzyUQv7N7z7Nvg5Z5B8BWOnUUQ6BFxKvOhsgRGaWmJY9l5sJfOYQt3Z20+/9f19P73z/fZgN7mu8HblmkflSV1dE1Bh3ro5PogVWIKy1KspW5vYQXZcx1B//8TfTt771rTC8jHBlUwIqRdzdTCJehJRBcsazCgjL9Ewtv4h3y19+vrznIl/ni4hzwSNAIQPg587fgS05hVwhfuVaIMk8KC+/cHNT5abkznN2B8NYePzNb34r6q+RJjx/ZDRRLNVRYb06PokWWIGwolsJ2PV54fwMxjrtBlLwq2H91NtkhsuXk4iZmDNxLiWExB7pBAqqXyb6MPvzLMLypkiUbNjIII73hhJQEn0h/CB/78t4rKQd2UW6AcIcaAmynF/Js8o/wlum/HMwq9rZZ3W/bncnMJm33vxO2mPNof6mpR2WYIwyepQy1Mvi9ep42hZYgZCWE4AZR9kS6M1oukjf+MNv4PTMRDYGDIlSag8gVRbRFgStVBE9GWQhSytyzdIjrK3+CBBGjkBMlampBXANI2iMIzANVgDjPdfVL9JagjJfW96IR9IhERn/Nbmxc7Pk4z7KmcOdYfWMUpgPUxWuL1T6feNb30z37t3TYS9+ee2i0Wr5eB3lzWeTKfD0enU8eQusQFhj4vqG6qrdYPuHd95/Dy+Z99MIaXE8GeUpAHfUbuhHyvIKLBVzpgXyT5BJ08QOMNWkl8TMg+LjqSIb3ilEcF9Sz+4FE3gsxL0ESwbyEnSGMJ8lKPP1cowX0BEcSDnClN88rsV7AaH1YDqG3h8xcd+z3ix5evP176T79+9j/Y2aMJXh6pHsQxuGp8g351DOkpw5ro6nb4EVCCVOgcN54YJdjBES7dfxJtlnUjvhazl3/WtHIgaAZyx3YisnTBoQagbilD0/5xl5SKBsmQwiDTAZzzwEn5svEZv03QxqynmqlVLJFL+QXQGCcJ0rYOQc0yAxFRIwjnPDVQ48y1IzG4uQeQCuAqPSyiSRdgusTWdNXdr8ZRBaH9XuGa5467jenRwfpTe+/ScYayiooKPAYfDxmjSyC5wgVNIK0zxCXoHw6QFozNVSpqAxyMgz/2Tq08kivffejXDmhm4hRogaf+YWFO2KoQjHz1Xx4e/txH31PM+rCYUsjUxQkLjBUpj7kSyu1GuYkPEIp5GEQSflcIokp+tUSIzHfMfZ4OYpiDwLRCWpRqLY+DfqIDOxLICnCmX5I7jJ8E6OECqy5QL4sWhSaRdlasWWjG6PsbHeD2kohnPehohCmES+5GwNIq14szqepgVWIJR+AUMwdXQ2aXyG98j3vv1mas0wUCx0R+tyjccJwGjFGjtIkygx7oKwF2GwcdwlbSrRSItr32dwZ3AECRuOyDoExPInAcO1e4bm+b3spSIIixpaFhUL2kiwkD4Z+aEZthHmmavqAxWEoXwyDsvIVvgZt8Z1t4DqHFK3UosBcdxigPr2n7wRrnlbrMTXKcHpmPikWgQw+QrV5pUzi9Ksjqdvgc89CDNJF14OgUHo4/Exm/O+hz+o0iWPncSdmmCYOwQYbR5xAVBTNY9rZBIPskSS1oNMK0QG8YaU8jm7qxm/ApSYyTLNCEhMpR/lCLDyruxpE/uyxaS7kQWT9+bPcqQAPy9gJMolMdIk8gIpF6U2rPlHTkpnVVLSr8Bk1Cb747zNxsRuUNVMu6E6R2jKkqUsgXgWVeKNrVClFner4+la4HMPQmmwqHEsf43dx+7du532D+8iGSR7vEbAFkIRwpZ8s2RoSbUceYylUuhqdNYd8jfgGSLQa8lT9ArALAW9D6tlpJnhN7cchHQ4dqZk4t/CcRgLa90vJucWGMv5Lp+4paJSVOaQ844yBuhz3Ux5Hno1qXLOssyMLB5ueIIT4LcZD+8dHKT7e/spvfpKpGeyOW3Ts/5aVgPGUdclqKOeq+NpWuBzAcICsix5KsKHwLLFD1qTKiE2FDpfpu9+8P10PGOna4lYwmMTJ/ft1KPGpa6O6iRl1cdMe5kcQ0KoBkLo4i+kFBcCroXFVZkUEoh4mHS8yziVqNk2Q8kUX2cyHf8oqTTTBEAJWxlcPBvOrQpd/S4IlcKZATiSM2kNPBaiksBVklmKWSZewQUEtRCPdb3cT6j3Bzh1z372KzzLo8Jog6iv49wKgsS3/aqSmePqeMoW+FyAMBNLIZrcUuVZSBgJn9NcAwVU+t6dOwAwj36wesTynzPmEWbqhsIhAKavaVAi9xK6wOMX2Mng04KYdVi3kJjGR2DcTEpvAPAc+9cIbAHVbxOHFRpltYOg0yKqf6cg0YHA+G4mpWO5O7ApNZlPSe3eOvOZXWJkh/LY5oIChtRkzCiPiXpyCCvTDouTV3EJhAFgtAKGmps3P2BJ0ywN3IHNsvqccFn+ZSNOVm1N0UxWx7O0wOcChB8lCZVSFYXFyvIORHvjPUA4Pkt9lvToKOOYbAHxS2+thkABPEo49vR0zjAsnWcT6P0k0Llg7d5sNmH1PcuGwG0b9XIH17DhoJe2N7bZaGktrbO41r1C3ZB32GuknaFSjTQZ34VAhhkIPI9T/DhdAzilgBMWGJ+w4fAhX3E6Ojphy4p5unt0mI5H7MCN58sEJwOtnW3Gd2yKg7RDeqtPc9bY41aMi7gWYHgIsVPUwrKTWQfQseda2rt7Ix0d3k/D7cvBXByiBkRDOmfglmZ7FuJbxc0t8LkHoYTl2EzJEeYNREOP3daGnMcQt5JgsLWT1ty9GoIPkYIImvthlglWSeYNu0ixs9mhcEnb7GC2tbuVttkIeGdrM+3ubqet9WHaAHTDfidtcr2G5dEJ8vj8GZn3m6PUW+wBYiQlz4LAOWIEieoZktCHWijB2NgPw4xZVKy7GRL6YNxK949G6c7dg3T3/j7jumN+I8a1R3yHYgZQjc9EJwzkrNUDoD3GvixVIo82oEtNtulgM6vpCEYzPUl9Jul7seVFVV8LY5nkNcRSwmdA5nJWbCzfrP4+cQt8LkD4UepoGFtk8AIQibCYNdN/8ou/kAbz2+mP/vAP0t07H7C1/dtIIna57vQRMt3YVXuw1knrVwdpe/MS0q2fdjc77OXZiw+vbG9tpfUNtpJgS/o+Pze77qDSLtgYeDYd4aOKaxgSK0Zait/FBIkFAFExQ1WsjhizQuFKYj8d47jUucEeYBx02eR3yNeXkHazACqr52fXY6L9GODtH56m+wLxmH1l7mcw3ts7Tvf2T5Cgx+lkshdbIKb5Mdiep2GXj9Zcoy4/+WPpz/+bfxbGsU7ejl8Vyzl9ixbtFYzL0isYHauuYPjEyKtFQBsrfPdZknmx436UOuqYLcY3GkswSigJmkiGb/z+v0wfvPNGmp4ehmvXCZKniRRpISXbLHjtdZGWSLa19W5a47wxaEDIEGXslgSBMqaaMQ6co5bOUVv9sKfP5vEJtDOAmXe41l3MKQmnGbKkCV00rvMoLY9XRaMgtC5nzmdaZserjvmccBe+roTXx9XxoT6v7p+K9Jsylj1GjT06nqSDEz5Iyi7ipyO2u7CslCkMSO1+evnVL6f1rUvpKz/3b6ThFqposkJ8MEYJ7Hwh4bwMpibuOLyMY4XDqiGe/PS5kIQf1SxKnuxBosnC5UpHabR3IzUmt9OPXgdsWiLP1jGKsLlvswctQoWOqVBTY3PcBh9VOUMtdQ+XI750VAFF4tQpugOg/LUZ12l/bXMdUxOonotploSh2mFccZoiICeNR5gspQVqbIVPenlCPoNQk4u2n6aePYKQhM9QKxcLwC8uzAhwO9bbJO7Wdiu9ssvW9w22Z6xArZ2o02ZiHrBNcEo4mBzjrLCfGoxd+RxwlCOkc0g7rpR8XCmzlYaCMzud+3R1PE0LfEZAWNhwliBBJVJPYdfRMpmIKgZePSl35QxR91vp9MYedpYjdlLDYDE+wFizSF2Sm00gcohanxkPvVUaZ8wtAsYWVsomW8lna0olqchToIR3jNJGg0kIuqxW6m7WYfOoOaB2bCfAw1CkGkr6IXC0uMZ3LJSUSEPAb5okmCUYZekRX8DHl3j5N9dSy3td5aJ8Wk3NE9CbaExxEI6i4AlEGRZs498acNdPnTllRD1uqCIjHWNKQgOR8ax0lElYOi701uuq/ZZi0YCr46It8BkAYZBrrm+IDy6Xj6rnmhnVo0pIwkncMXMncRLMObDZIls+52cYTrobGF/uIVkExjjUxzaS0KTCZ5M4ASwulKFuEiwwBJrTDEt5gRXSGTs3YlKKuXtbnnogfwg8PhTqz8JJ7BySddxL5RyN0DbzeNFpeNVBx4k6m+v+6XTCVHAiAc8YEwbIHEeq4go344ok/pt2TEfoZcMzNGnU5kPGkHupvf5S4sPcWIaPQzVHOIaq7nyjLRmtqSTUMOMzp2wEnhLRRqyaOwq9Oi7cAp8BENrzhRN7KeB4tvQg4VncZ6lkUJ2oBUmsjOd1TJDzz3m6BmM/ZBqfsWY1/eE07ehDOdbFC5C62zbEK3G3dGmzmZE0c4jfSXOW45OeBhQBkaVd/m48eUmn5kI6jY6GFu5DpdXYiqQVUKqVlM1wgjAkjvcx5stlzi5seQ7RaRNXb8wcF4ZeSrqMCd0rR/xqd3HeRSkteLT8mo4pZWF6hhY9Ql2dpU1Wi6CNpr09JL+rRHq64Klqw5hC+lugwiVMh595RvN7bWt4szqetAU+AyCsACgBaFLX5B6OylnKLQkDC6DLfmTYrt/T6VoHrJiPw4TfbjPf12Le7YNvp9N73+MLRXchaOIgAVuNLisrxoDUdIkM8GIAR3w/BJOlk9LGMlgewZ2nPryWeJWYcQ3hNmOpUPa7iZUNghOghfdKRehB7vEqE77jO6cjNc4EyzAf33PE6o4Izj+suwUQYUgJBoOsJnIUjbuZ6mpINN4A8tTC6kt5jg4P0pDrk/sfsOUFH4u5+qMwBT46Svu0MERFWUsdbQPjhhTkvFyukcu0+nvxFvhMgFC5kQlTaSDYVDelD6nUH895cIZel2Wfk9USvHIrE7PGhebBzXT33W+nw71bzOOF9T/233TlhFMMWchmiRrqXRCyJ9IIAs+AiVwDXB6GFwwRIIMnLkK2RLkDa6UcOVi8q17kM7eVHMpZkb5ZBPCMr/WypBNVyozAh2FRjeKYuOWWGQlcrqmXC5d93seZoI36fP/me+lk2kivDLdTc2fAmNg0cp1MIcqqQSbyWR3P2gKfARBKhJk0gtD9L3FmjISBQjVNKVXBJ6RCEGxQtWoaO4txc/Pt76WbrKdro4YNe4OYm4stHkwCLxktpA4tM55U13K+4R5mSktCz3AonVPBJPLKZS3vH5yXxLy8qGKX+1IvHptrjpmvAnAV6M9HL9Mzy0hxYQKOTR3DutYx17HLpsCunTw+2mMz4O8jIC+lL2xcCe+bCapyGI4EP9EziC1UZR2NRq/KvDo9UQuoxfzQHxlS2d4XYy5JfUkTAvCBJIrKKgA4ubwnvpGJKjg5uJtuffAuXiN4jCAG87whE/SsqtDE74ZP4b5mwqpfQf9m4rXNmGVPgP1DP4LEM6PVzsSK+woYFTyiiA8dBYAG4FdhP6uUSrkqjZC5kUdOMRcx5xeRIr5l5hdtkh0AwkiDRDxlCdOUrTyc/zybj9N33/xWGt+/Szvh3ibjquJlqUu6ch/Sy8xvhcDz3XbR+88ICK1uIUaJmkP6qFoh5ttAXlgufYXU81nM2ek7OTtNd26+m06PWMKDVbDtO2LEGBIXMefpgoYlOMEEMQr2WHhreiEdsjoY1xWdP/Ic4aN4tV8m4MeScRX+XKQqgSyZ/Bv/Imx5lhvAZxG4yjTGrtW9HxJ12kUpl713cNNjqqUH6CbHe+nuB+8wXXMMs8K31EbgNwsLbGlngW/apbVznqu/F2+BJwJhGAM4YozxDL+SxsWL+dEhM/EWeSBxQIQBGuJJHxXBhDEiJICTCohDwOXY7IxPht258U5eNc/72dQpCSa5mdTTw0WvEl3VMvGqfmXAWSonOjIDqNpmCf2PLvMP8m2eXM/tI/g0VKmGuutaD7V7jsVUxrQ56KZ7t99P89Nj3me3Ots1/FjRCjTMBJ6DMT2aLqxnoZtS5xeVjp6lT56kTufb5InGhMtxR2atz1LmAMbzOyq0VTJAORDMWQIwEygnP2NcQ75KLWlIz5J3/JhbAAAgAElEQVQzxzpzrKKMgzqoXRKhc+5aKwWq3+4LSar0lNBM0XvHixiBcoOaU5Y+OafnV7NPIqVoi9AGHOM5tuXe+tpmWntplwYMqtOZp2PU0QWO6m2e6Q535td7izbO+UFbVw3+iAKf7+sXl44eUfgLPnrSOtXb5IlAWAb55znbBcu5DBaSKSTS8wCiMFMaaWUp11k6eZuBKIEEHAM8wbklRA0tzInNxidIP3xGkYAd5vBc5zfT/Qsp2EcaGM5t8duMDzPZOceoRKiA5yJesw+AF4YQ2b2wR/RBNJA/wEizzJH4Og64rUeXOp0wPpylE+ZJWaKlj6v/CO7MRGZGuXWjZXPzfqi+j+rrF5OOPlT0J3rwJHU63yZS64WPusgtXyLy2UV/JY4ZPiuQHxQ6E0KGWwF1JY8gjAyJIJ8AXxm6hLOz2ETS7e3fAXA4aGMlVQLMWbvXAYhd5sb8Aq/lbqOeSoChfhmvImCNEnkL+lyOIg8v3Kg/4IDWx/ppdLJP9KaZqYLzzDZweuLe3btMvSotWUiMg0A4KhBW62rue+dIH6aDj+rrF5OOnq0jLlKnx7XJE0nC8yL3aSTZ+TSererGlvgVQ/KTIhELl69eq44KIAgs558JygWv7sG5QALqYxnirAJZnjQnXjXusZED4hWw8z3pqJIqFp1JjxA/DAppVRHaK+ZS+Z+lnMDSw0ZW4kN2ctOJgLZp6IDO4mNBKjMKBmZ7mlSl7ntZPx7X1+efvxh0dL70T3Z/0TqdD2cuTyQJn6xYn1ZoyScTf5Z3AlCrpZRSgU/1M1RgyuQmu1o14eKxFIioE9SuuY7OoaK5bYR/xVaYb8K7JtzOJEDCa5gI2q3Sd4e0MPhUJcny99Oq/9PlU9rM+gcTy40T7RHtSN38ub1GOI1rIY42JXTsRlW1ufWO69XxtC3wGQBhxY2Dd/uvgEHQVYQSRCWd+VbLJtWu5rikOpckxY5mEp4pQFgCUcIMVy3FaFCrzWWInGdsxBsGG9/r8RkojzAv8pFLmetJTTMDiSrmN451MwOq2tDpGGtFG+RPiauW5vAZrCsQPkt/fwZAmMneRgiYQEB1WGYQicBMUHmbCAmIqvtD3XSbQw0ShfBQwPiHNJQoCRIAFqABzAJK73OmQaL+D5BXYZ6lVz7huIVNFP7i/jIZgHnzqJjACU8Y96eBZbHbXJ4HtVXC041nXtnmNk6+/oSL/ZlN/jMBwkICGRQFLFKIkuzBL1RLiEagxOZMWvw4DYb92JLQ5/7LK9gVljxTKoQaarwKjBEqp5bBmaWo9BhEKZW/wEcGYSXRlfayHM9WyboRIAPRemOc6Q9Y+aEXTaVl8MyxoRWNsXHWaV/gGr/YRXsiw0xp8Oiwp+B+JY6d9jw7r9C8tJC9N3wiYcljVBmlF8FhgExoMdHMPi/SUpOtJ3TdKoqsxCXP99NnGVCxIjDGjKJW4HkYN48aOVecwHdlYe6L2vW5qPwNaZfHg+HOHW1U3P50aWPVPVt5xFeKcVZYsBFr1E3Yxkc4VE9zX56v60f19YtKR+fr8CT3F6nT49rkiUBYt+w8Dferx3ma+I9rlMCYpBEY4S5P2mUVi4dOR8T8YIAmE5I7azearKpAFVvffhlq28UzhHlCNntquD5wgfsaatccoDZYdd5miY8bI+WhpH4yjqWc8HaJUQZwVmG1OFYFelyBf8DPbSsbS4ahK58icIb1M4DIEi29Z2J7f/TONgzKudJYyEvY3G/GrdoyGGrg8aHjo/r6RaWjZ+mWi9TpcW3y1CB8lgIb9/mBUHVKgsjSOUsiKUSqkFtLZEKQf0Etwcf5g1cIE9I+GqxdTv2Nl9LpfVbSL9h9DDW1DZV1mSfTs83Ndh0c6mGycN2c34uIXLnkgzGNBc0oMbqMyufnKTJCvkiHKmRgL5hXVRV2E2CbCwwu7jinz6wfEF1b20Aa6rJnnFy3WJjCvKl1XY6/z4GwXtvzfV0n2GdtlfNpP2t6Txv/SetUL/cTgbAucp+2sMazAM9PHZUMHMzIpTmF5Msr1iUxR3phjAn0CVRHOxAY4Fy4mj0I6yxduXydz4J9j23g2dEaN+8xDpVdfm3GQgvW1rmZb8OV95EUf5QknMw5rK0+D5L2SbmuLl+4k2XXGOPyLCbfUSl77CTg/sYnJ3gQ6c6GGjpmv5kvXL2emsONCBvqq3UOphaNvax2NPEjjkf19YtJR48o/BM8epI6nW+TJwLhk6L9o+rw/DhYBbAgB35iTQ7t2CyehAIa92Fid5yICipu8uZJSETA9dK16+n2W1usIt9j17FJGkGkXXTPDGCtgUA3iE+Am77SVFnguMqampMyNuf3UXX/wb/LbWZpY0ysxKcSY5ZrjVC5p/qHdlhPeTZMl669yrYdSEj1cL2MbAMvgxFZE+tb9UG0w4eP8339YtLRh8v9JE+etE71NtFy8UN+nAMhtZEsMhofqEtLOlEKI+kc1QUI3eSC7TD6Gztp56VXUpvV5Kdn7IDWYMsHNntqsLlTXvTqmEkJ6n4yODkrVUOKVvCLdHPOQZsv9CETgcGgV3aYnpkhAv0mYW9tnfHxZT4PjkTk88TXv/hjqbN9hbCEQS3Pzt6q5dTTJVD8Qq3NA8QXusYvcuE+AyAUcAWI51hxiKgKEl6rMwmWAIyKqiqW3J1rpOGrP/6TaeeVH0kjiO7+Cd+qH6OGxqoBPWsk3Ay++ABMqKM5DUeCjpNKVqGyvsBH0RGU7rFbAE3T7vfTKer37cNjtIBO2rn6arr+E19BLV2DCflNe1XRrI7mupOKzRD15s8LXucXuDukwh/2owCwhoKokoDzbwGm40GBI5h4Fa8FpHpploYddp2+9qUfT1df/Qkk4k5IhJHcnrGj2wtqydDJu6Xl0JQD5M4jotjZklVW8fgFPmRBtoXScMpYt8n0Qw8DzAG7ch+zCfnLSMAf+ck/nTpbV6gTu7D5tWK/Y2GLFQ4TwLMNrPYKhM/S3aj4wct+iI9sHJDuvYrxoOM2d4jR+ud8oMTCv3n+wDwB3XoeRdQ5iKUhheVKbPjb6WAxnfKhzPdeT/vv88nsyX7qssN2g0WursRvVJtFmaK7VuePg7rVIQAlXfcSdVz4InO3aLHodf6wIsKVk9M5W/wPdtPulR9Jw6s/klprV2EsfQaMbKNPbTTa9Lu0pZZimFCbdo09aionh1DEX3Dm86IS+YtMKxdsswy/TAHlWtudLDomI4JjezixbIXd3k8PGd8H8fBU61+r6wdf+qhmm+nyF34sffnHfy5N2Yxzhnrm1oAxV1ZJgGwpBHqKVYGfs8tM4AVna9ZadUBpONf4pDWYMd+la6+kjdcE4G61+3YLdVwpSNsAVlVu2yvva5olaTRzDAyjiVfHU7TAZwCEpfc9l2tJJSjmAW2EFMvqVJwr+MVQkXdZLXWTW/wl2Ym70d7ANL+dOuvbLPtljpGPwYi/iOc4MtTYylAfaZB9gNrzU/TEpxglq4+BHqrQZpNg9lb1Q6ODLfgR36nwI3HxIRh+uYHCOmwlA3BeZ/TletMwL7oK/ik27xNn9RkAoSQVCIizls987R4VTtF7m03wAVElQA6ewwUg8xgpxoxwfiYnkHxDvGg209r2dcz2BGX/Fb/ka1oxv0HaurXlcaF6b7XVxYuOQNtARmKdveKjLyPc0XowHMfBbgR8xmb4c7yAtCDHuK9qYVvG+/hnMwRjU6EXnJHw6niKFniiecKnSP9TiSJJeZRzvvZBRWjqivE++Hf8ypEXteaYQZoRAEnonFgbk/3m5cROpLEZUqixqG9CW0uhKzbik9hlrxniS5uqwC86TcbqEirr/uFT6jFgiqbNpPwZHw9dzDDCCD7C5DlBzrFZsczGmlH/yt0tS8dIagXEB2T1RFefAUkowReQZaulMMvPMggzN4eIsMbkDY6UfPkX48aKuwfHD5VSkPllWz7yiYrW7W9gyrep8BEFiM4rxqR/AJHw8cvlMMeHABhF40+Au3b9RN30mMBVssu0Szbnzg+/j0LkslAXv1fR4AOhvfUdeM+QoPqJhpgLI5MKd4v6NcPDxh81rNrM8bBahXVfqaOP6aMLPP5MgLCQfYaeECgKVCUbJRah4f94XYFN6gllKv/0hlHFzN/dE05IRObJdi69jIFCKalxwjQFn+SZE5QwlYhBjOZUQCCtEyTK5UOvg2rtGQOZf/lVzzxd5KgIP3aCM92oV07aOi4ZSoioEsaSWI+q/kSaIdm3tnbTgLFvg93ULE6eF42QEb6hNTnaqEqfc96pIFo1A/EiZV6FeWQLfCZAGDTNUYhEsg7iiH/5XO5UwCSo+i80s0qJVAVzjxW9QQKEqGe7117GHM8YCRXVMWEYckw5MhENnqX8INl4nglYQAYEOZtJJv56+AelLjXwfIHDPAKIgiTnY/rZemtWgo1fxTxyOQoA8zvr7azN5s5Lqbu+lcNXXjAx/CV+gNyfdY1a+y8qHvV90NYXKPMqyCNb4DMxJjxfs6AXjgDE8uz1gzcZOZmYinRitozHlSoqEapxJpYx+d2+4aU0Y/aezeJjN+pYSeHkvfvo41XjnjVn1WrzAEJGdpVNoKUi3Qowsr9CwVUpzz2Ip489KuwHsAMsyHSKEp8MrEDjM/OwWM5kul+MfCS8e6gca0UYA2IFXr+KKoplFFU0vIgc5hIpexZpnsm8OhfXeuQpoIrlPFyNxxZ49eJxLfCZkITnK1cHoRXMxCLhPP6XycqvNo1D0mmRCOGFlbSxWEtf+OLPYsAYpjHmfNY5QdV+l5AJfEQG+1YHYbtANs5KIHKL8SM/5+FiCiQALkpMWJLW2FEZPKISPrvgEfk5VisgNO08bzlzTk8vnlZOW6Zh9gsctP1WoVtXzDmPOK9ffg0Go6Snnk2/1ktc12/lGvCMsuq2h1aAiTgYjrXzias062ztgiVfBTvXAp9JEBZSzqqT5JRVqHyGWIOMqrNSJFQ2qRqeH2DJk/KBE4m8s4b31gbEivFCDxIFISsPYmUFmwS7RXyA3fD8CeNOgKMaR4UU5KWqowCUdCOsvVHdR8cUko6bjz4iD4FunChoYDtLRdMnr0q19J1b+7dxUJj60VDc1CZO0vM57HUctDt9vk/v7trEiU96Ey63ieXmCKaU6xXtQUa59aJWEcbz6ni6FvhMgrCQclGX8hniiX+eaz8ITLDFBH74kDo9kZvFTY74DwiZzB6upe1dVhQAyOkcEz6W0xZzbO7UxldkWJOXgRtLnJwz9Cxp6h/ntef4FYrNQKk9KC8u1pNRtgJEVcfsXF4kYxiO0E3jPsa7qJW46Zn9AkYyR/VcY/plc+dybGwcc/GErf8sW2ZEMinf2xjVdbTiAwCWNr9Y4Veh6i3wmQTho7v4ATQz6XifgRDkpOQIdVGgZkmgBIjtEAnZZE3d5pVXUp9V+NNFL1zZ3KUtr65wlT5jRNW+IE0PwSe6uSzUGln6zJ8EbfOHDM1Rlufq9qNOAtCkTSsGcTCBsNBSeiU6ABRyBYRKNz/r3eBbg2P3imEOdPvKl/EX3SR2KaDFymXKEjuDMpopJGAuUBT96Ur9UTX63L77HIHwMX0c3F1qBoBuVcE6OgkurIM8n8c4T0kD6JAcG1sv49O8wwp8/Cpd3qMkXbDcAmmoxMtTEcKWI6RiJQE9ayGJZxU4I+MCxIiQ413kb4BQyLvvTVa0Q00MADJk9WfdYpAKODHBjRnrLViyNXb95OaVNNh5ldh4yLi577LOMiCZkfVXO8hlKueLFG0V5sla4DNpHX2iJhAQAUSBxsoLqM+F9xkoGUxufeieM5hJ0/Dyq2n94IDvuk/4eq32xVhrnyVpEG8GmPAII4xCRpyZTchUidqfL2pHeVTEzcNvP3xXlTmPCzEoWQ83aBJMqqJKwSib0pwSkrUA1POnjfTbvPIlVGw2t2LqRe+X2EmuKteDImQAmvkKhB/uguf1ZCUJl4CoUCAtM6TLO3DTzGIKcM71KcWxu715NW3sXmfyfsCPsZUiBiONyYQqq/SI3lG9NW41J6nk0uBTpGB++QCTxrooAC1WlV9OD6CRXmxWbBpKwwhg0Swf0s89c4br6Zj9cnrru2n9pS9SR/YTdS7U+jFhKFDlIWHdtR0qCWltgrmsjk+kBVYglLaCcDlJgNyqiob1DwBpLVWi5WkGnLhRWfusOt95+TUkIZ/RhogXLHxV32tB7DHJH6vQTSsbNlqAtFgy86S9fZnzjIk9AWPOT0DnEUPcVuBYml/iO4OU24/dEECPmLDoMkI8Gp9hDX0pXb7OciVWTfARuHiX1c4MtPp1MdJY2gxCC3j+F2/9szqesgVW6mhF/1kQSbDOqWXDjL41GY5ZXXOsxEbxLDTYTLsvvZrGB7fS6IjdyXiaP6uGpEOaGL98aiz6JVRUfo7PZHtFKw16tgAcMXYUVfn24/4aNU/KU+YAucBDbWavUMeCgsbJexXmqANgW7TZuAkGMtx9OS/X0kkdBpSNLrnO58eAD+6jkI8p1uOePyb46vFDLbCShNBPCBPPqoyFKAFgKzCjX2gOJEa0iC5Q7Rpr2+nSqz+KdREjzaIPvrCYapshhj99VJRGpjdjl6RM6JngA5Ae0m6okFUBnoCWlbJZupqQdlAlH38BoQrwmG0r3PumydaFE4wvczxjdrCGru18Ia+Yd2WIUpI4UWfChvSuJGsuYP2vhbOcxbngKZ0MPpzw5/7J514ShpCCuPLUBISGRIqpaBCnRHPpkoIrLKRKSHVV9ptpo851F9fS2tbddHcC+mb7aYCnSgsL6JxB5XyKxOTe8VZTNIevmHkF8vhVQIxrj3Jf3X7MKSyjMo2YVhGSWQWezPjWoiKQib+GO6mhKp8yJdHeYBx46bXUYpPjxcKVEpTVJZeCUMZh1ckz5jmXZaoXopS5lLNeXq9LPT6m4KvXH2qBz70kzEtzBIvWUVW4Sl/0XiBCnb4Lp24IduonpSHuMxa9NlvDtM1+LMPt17A64vIV1lB/eWFxNnQY15XqRepIsBL6sx6WizQC36q/OA8wB+j2/meAvt3HPQ1JfMqeMG7duAUAB9uvYIxxk19Bp8TO/yKRwNRHgSlYEb+Aau1nvBUAbYWnPT51SVi6uc5Hzxe+8NzzXfsscc/nUe6VA6qDnv1GYSzbgboDikoUQRgqWx53zbAi9iB2VdI5lsfuldfSZcLdOrybpifHTs4RlnEZksgv3GphlLhjC/1Iv9Rc+evh3yjFR0KglHd5DunHQflUgzuVxF24eRWJqSw6LzhFTX7p6hfTBtbQZm8nTbGOzjEGtUWwA9g4ZBykVjGKeFTvoLjmT5S9xrefuNBVuiVeZFQ/TL96WU87Hlve8r6K8zT5n8/yBbj/ZEBYa8sPNbFtWTX1h+v/IGK9nz7UHx+OWCWaO0r+ftEjK3Ly+GoqIQwcxNdROwwcodllqHAdnif889PbTRy3E07PAz4oc+3lL6bjm4dpcrwfAOj6sXeAJ2i1/YexR9UxgEgAge0gs2aYifuPKfpyDGc4V0WoHgcQSZSy+515vzk/c4Ke7Tm2cTDYufZaSutXeK0DNgyineslVIW//6IYlMnkPIJ1kGSUNThSdV72nvnxrIr3sQWPVEv46lyeLROKxB68LG0RZwtTf2/+3J+Lskzyh+jiuYJw2SePaMt6f5XXVdMulRwJwv4Oi1xp81q3LNOoPSttvaTf6KiLHw+KGiPBiFiIMlRIQHTG2C7kDhTZRsWb4yHj0KnlfixuU8a4q//yl5mbO0w3vv+dNBqfBMHESgMA2OkoFTNRuzAosgliVwV2DFrLs0i4WhUeqLKqoLl+BbAuodrApe50NCIPCsUXlGaow6fTs7QNc7jy6k8BwF3yw0Djx17IsweDmM1xYUN19QOgGdiqqLyNJsjSP5fPYgrS3CcPqF6Ja6UM/gRt/shOLPFNj2vTtYHLdZxtt/w+eoM8I9uSXq29ftgu0Y5ysz/Xgp9r6HpbBsVVbSdzVWoY3J9/XSjToUhZdbPxq26v9U9waX6lD7JiJoiyv6Sr35VeFz2KdMmdnBOO9KUDz4Ix5h64CbFIqXkR+cc+nKxDTKPUGN1Nh3tvp7ff/XZKBzfT5X4j9VllgZUmTXGSnhM3FgEBEj3Y5vib+lPVZWUUCZZaPb7kS0kI+BzDur1Nn/rqYLDo9dIhLXh/tEhXvvin0itf+kpKay/BRFgriK/rjPBhdqLgTeYTYzcA5wodU1ZZe7Jmy/nHaP/MhB5uUl8Qesn9Hl/mh96UKnq2I/0F6KpzaVgr5hyqBQtDE9fBydQmqhLFuToeLtwFC/NiBPtkJKF1y70ZtSwMM54F5m1U1bEsEKI/ohFzpPACCV2oCu6bcu3ZoFXoKkY8DMMK8eSQ0bdVuI88mUCArFIPq4RNwzxFYkgBCigpqvKpilrEGO+FQHAeDu+TweXUZTXDztk4Hb87wmJ6RNIwFqI7l+jeNHPSct/OBnF1kZsG9bMCItRVJY5tkku+BBzhloyiVIZ0c1PiRoCZU8k2Qj1ush/O9VdeTZvXfjydrV1jqqKTx7CUXWYikzOiUjqYS9TLfG2xShclbF4ilTMrTK60e3kahS2dm4tcSnfBcxXfNHSK4BwGMstTgTuPx0ku+in3aYQxis+KqvxU+V+wmJ9wsE8GhLmfo+jSbxw2mA0XRGAD5hfaEUsDZw4nvUvuldpWi1+kmxb/iFb6sLr2cWzGW3VYDvUxf6v0izHG2xJd1S2PmTiTaUUeDz0TlOG5BsDO+Jhol/nDa70vpvfvfZBmd0/wqkHyuOSJ6jBTkOvv9x8QXe7m3QzuntvDOjshEuCyHMFQcgHPX9uMglmmM+rx3QzizVAzW8NBuoYUTIMrPNGTR4ZByiWtkp/bdfj5axrV4a/fmgjDcByl0R93Xw8TlbrwkZlMZrrunZWVcZPIrZ7b2/tcGJV6W8VfMKlggDZYZlhLIF64BC9ewOcKwiX1VkQk/SwZZdVRhav6JdggttKBlegKYNn+/oI4HwSJBi8/oxqX+5KOIPWZdFa9euTZbihZ18/mHXE552yqt9HpFtCIVeKGKBkhxc5YVSGg5mwS3OptEi77a7Yg7imiMCS9gLBE/K+qF2NGH8TzqIzBvM5HjBbKswKkqhhROoJOUIdnsZSpkSaxQwfTJVhBG+yVqiEpSznTIS/LIMOwGJTXvIq0ifa9yFGKZ5KmY/ksk+Wp4pfrx52X4eKCP9QtgKaWoB5Dwkq88IGNNxU7jPawtaCf0lElsYuU/QUM81xBWGhnebZjcvsGseResjFtV84ShXdL+s6cOX8Hr6YeZdrJ8QuheF4SgZ2mSqgVEvWsdM4FG9ykAhQWpaKaApKQdKQXTs3y7VLmIIYcOHBpPXHodiHtGR4yC5bfGwdBiGcKzm5h3KmawDoHgemVk8ETeUhaEcg/nmRUuU30Yc2qtmFM20xzgq6a11XNfBp+w4xhaEPPmSgTJE1l3ODK4KHqeh+EnLPSGc89ZfLYK7L+6CNXO1fGkLm4Hx2n9lZG3IYRRD+FLMztWyRc6PgPpUsGdg5tVjSoMiSISvyQH+0PjTWeoUKlEcug3qSijSQGidhGrB4sr0NE+NxAtnUOl+kwh1cyBs0VZHidowUXzgjKYUOljfxK5h9foRLWc+SfM1+WPaOHlxBqAKWSIJFF5Kc0IVNEsYtppwdHaTZm83wCqNJOAU3+5oPkRjjqXGVBXGBh3GiDgEiALA4CRYxgABKgBXzwM6wWUfcElQk1pqc4EuAxczJKZ9vZYcCxZ3x1KtRNx8wWM6fnxlSmkTPN54tKQ4vxpO2cK2V2Of+SeWnv3AzWrwoZDVz9gji4jow9R5WDgWcmWSJ9+H6Zb9W3dU2jvPNcsFDKU39Xvy75PS6dx8V73HPmbKMbnstRBtNyLTszjFpVynmjwSqv6OmKuCAE5+Xy9ECMiLLFNIJq0Ccc19FBxlKCROzqnlMmpdrown6qMo6ccna5/6qISyKKRHN6Wmrjy7xkWMEggOR97mJKyUUYjipCzpEtoAn5faNZmhwepOaIXdmqFQ0z1MX4vp/jGxJeqA5GhQS09cs/YWMyFTTiuvRPTJWQebz37A9Eua2Fherqg4ar3Nl8lOZ3b+HbuhNuay1U5ViWRYMoyWNVCPnGQmDytX2jjWv5WpOLHCabGeBFQhOmNBOXtmF819H8uZbRhNWWNO2DYEfRAMvTg0xy0z14T/g6HT9OsDzueUm4pHERTFwkzAVbBa3gXAUuGvGR4arGzKQSdBqcqhBTLJi1A0rrBkFks7kdWvo0L0XNhOlEdznk4JlYItnldUWadJw7n2UpU4SJMbK11fASvblIk1w7veC1gCJC+WpTMJEcupJC3NlO/KKcErAcOMpgrkBvfgoFAcLJcRrfAwTMFbb57PaiiWSq2sHQoRGQiFnn8pheJsSlmhmlysSY8zTf/PO513H2XzzH1onxp9Vl08bJaTrYe5+PfDI1scY8JnOYMwFPHi1Vdq5b9pPpR3/5KvTVeHbRI/qhxMnF+fioEc68c060BFdZHc3XJU3v8r/oB4I/yMK6VHeeomq5TUsBzt9/3POPL/jDIUr6zwuIzw2E0R4ShNYrgWcPVWcbUsEU/hk81zwe4xeBUBFIVJN3SsUFflhuJegxYZu+plzeg4ly2aX7ZxZVynztLqcJbJS8yh1iM4xRor8l1KBDFq/mOb5WlzET4yfjuHfoDFSYSyxBUt2MWPlPfHOQG51f8teJeIeHimMt4zpV4V40XSb7pvsfpMOb76YeEqnN4GzacIBmwG7+PiImQR28pZ6sHtpItEXFEMyyHEuwUfjS8T6L6QzLzdnpxTnxJxEGNzX2RT0Z3Ulr/JqL9TQh77Ef+uT9QAYQzEPXPMpAed3g2M2tMiss+ki9FPm6ovdoxziqB1XzfjhCFcQX0Za5o4KBCbHQkilMW1O37RPMkXTQZaQAACAASURBVDd2GP/99uEZbeo3JO1T6yjjlUGauTZTjTYF0IVJ1YFhv5T70n5RHgnhEYfhbdOymPl8OPPwWUnr/PtHJHmhR89NHY2mqVhWSAqarDR8jEFo46z6RMBY5VZm6lUx/dnwEw0LEpd0ytFgoSw9xXuelUY4P26PgDm5+Dgo77OXS35mvoWIFn5xtzrmvXxtcmGmz8lE3EqbDQLKDCRnItHLu7Hwx5GLKUkM+LrRvXT/zvsQ1zT1HH/h7N3DQnmM4cT0G3zrUAblKodYBR//Mxkt4rPVD3ew94UwCiDrxJSJhW9IsYXhnAbTEjvAEntyci/dvPsOS5deYib/GkCV7aGt8mOje8rsF5fiG0scGJPiXw5T2qmQaQ4TzfvQUcLZNuW6BPC+HOfTqafkNhyGFXdz2iOYK7+Am8wcOpgGo4RfGEhmBwPz25KWuLSJeRUQ1rJ+CICPast6WK/Pg+tRICvPHvXufHoXvX9u1tGQO7Y4QFluteB4R0ITPFEi/sqNkSLN8K3MceRybR2QKc2Us8HcOkkCECAjiHnK+OoUYp7hexVYJ66pGiaEqee4NkZFBhKxefALCVY6zvhKuywm87WJVvEsc4xJlofpwTgIf4KUnkkopsE/GbhzfsMu+48evZ2mt99Pl+ZsIAypq/ZJTAt36wa1MfYlH9MWvKEFUOkYBVsfy1od0Z6mLQOrlWRZ0WVAPIxgUA3aaN2FuzCt48kk3d2HIVCW8UYrnSzYVxTLbU9PHdqxI9NrAck27ATGEH5KuYpVntY219/xZG5pGUQUc1mEaFHLx8MHRJnLHVWrwjrOLylGaoR32DDEw6cb/Y5UQ9uJxdCEdJvhis8yzPX7IH6Kp5V6MlC/lCxYc+NEmeqAqDOrRwGlgPXhMufGrNflUXHr3fA8rwOE9c4viT+qEKXgjwovIBzLuRRIY0O0ZkWEnqIDIzP+06ozRMKp+p3SCNEl6O7u3U/vHh2kAzje3ugoHR1hZURCHB8fwyU15cMxAUGlkQCA/CyTNQnTiWekZacXlS1URfJxz82gIItFYWaqvLiSeXit14nkHnU0A35lnspoqkk+Pjw85LvurKanUlYzJAWgu762SH9qo5F+HBVqi3KMmKIYQDQzVlJYv3BNI4K5SGxy+zwWlDwpdxBTLmKMTysQRD9URJ5LTzilRBC/E/aLND1l3KmazZh0jkeAKuYBE4ZvvPF6+uODb6YbE75A3OKDp3wSO52e4l4KYQ+n7Ljm1ha8Q111xUhsfR99RZ7VUSfq5cPaRbSN5SVOqHI8cPe2otY9UO1UodU6cxtrIDJME4fzdgcG0e9Rrl4adnppHcm+wRj3+hZfTN7aSbu0j1LctNoOO/iUlBpsuCJVRS3gshzlZzF9bj510JX61etZqlSe1cM/qt7P81lQ4aMK86hMPqrwVNeUgpAzW83cMbsYqXZkopnSeCxnI08adtBM7wC0N9//fnrr/ffS9+/cSu+PjtMdHKRH+FxO4eiCz3bu00HrG+tpMBgGvu38nGfOTgnjGG0OCGK8yb3A8hBkYf5f0pZlMYwp5Y6q0V2VrFJLCjMsEQUhwY9OTtI+vwluYm4rIejbSLrv3r2TTrfb6dVXvwjjmKXxmDUWSKYRK9zPAGNLCW2hFZ1B6RKHmYdMDCtmGI2CSB8uU4xtomUzQUWhjcVz47vPVA9n8gbjTT/h1l7fTDO+JvXmrbvpa+/fS4e4053hU9OeIXVH47Q+7KQOHTF0s6oFzuYhd2wcWUoUKqdPQWxHiTgaLzc6p/w+AnE4zg4mY3tQB8e8xolV/jJBfsHkCDOnbYLAu+10h3Y8moxxrYVRkaSl6HCGLaQtgPjyxlb64sZ2+lMvvZx+8guvpZ/YvUSbohmpxRAWgwZ/vXogiQsACygLAAuofF+AmUv/4G8JU+JeFBfn03nS+w9JwqflAFlBkFQyaKIf+VkR1VPtDjj249+oUaCT/uTWB+k7t2+k3/nOn6S37t5Id0cn6ZDOHGxtp1NUzhbm9cHOelrA0XtwygmSZQKhddknJcYMpk0n5F3FyD1AhqkeXeZsgt8mR4cvKtlHThsYwe0mJAivWwDD8YX1LddBgqqPPjNi1cnEzHNSPOsNHf2RzphVC3BiF/gKhNFkP91gJcPNk9N0jfp1yRuY8jOu6pcglEtYduJhyXSAKO6sTyZ0syQ326xG6LZhELplC3e3SqoQeUbeTSj3TOo9OUunAGHEescPTsbpPX6HXTb73RqQ7oC2RKXuUV7UwNYGW170qSVjriZTG+cZbCHWQlDxnv/RftU5JBkahvvr1EHXpKy2tcCz3Drjq3XkJNyKwzbvpCFq6GzSTidhWUaKCjCZKG02pt/ff+d76ZsQze92v5l+9Nq19PNf/HL6qde+mL585eW0YfuQdkz4Vz/b7vwRDMz39rrvI4glyEcdaCV+/Vzaod4e59vmfJ7en4/3qPgl70eC0ESCKM4dBaCFu9XDyKdDNbOTiOqd3iO0UsByzKsjOmNO43/7xvfTr33tq+mtvTvpzXu309r1q2lxdSPdu3MnXb+0kzpsnhReYhD46fE4ra0N0snkhJ37kIZrfE0WQtblKr4lmCkiKu2YbcG0gCqajdzHIikxzCCSKZ3q9n86OmsAGvb6dDRTCAK/N0ByMcFtZ4UaygmuoYU2pjFI11OPOOt9jBu4prUbh4AQAoRBnJwcwTCupOPTO+lbH9xOP/bKddLHUEOa+RsPECXqVd4i3/Qou8Ym2mbuXjAh6TITiczJr1JRqIUSPWoZBKRQ1sIZq0wAkHQ1bjFWFuO6qLHnzUFnHcZ2J91Eh1u7/oW0P8JyO0AKwqT6a3wGfIKqjI/rFEAP2CW4wZYYHfI0L9sxwKXkJ+2iTWTCzFK6ANEitQDXlMGEYzrL6RhS4EUaSj5WQxi+J7Mi7ckCIxVhum1YmUY33nV43oJZtAbuCqfFVlscbbu7S9m0LjfS95jy+e4ffi39/p330r/zc/96+gtf+HLaplP0f5VhxkdMLTD5yqRiqGIBrVWAM2sStpsjT2sbUCyBDGHbf8y5Dq4SPiI94nhcevU8vG790i/90n9fj18i1rlBlh6Ul8oUIBrO5zZ4cDveWQUb3+3W7cQW6tiEbfZsmBNe7tOw/xTJ97/8g/8n3cDIMkJsdTa30gmceIb5cDjgoyvE6WneBGhdOi7UWdLfQhW1s9YZOwzpsB7XEo6qWBfu3sLQM4WYnDKYzuk4qNXnLqo9RsUd9FnlwDvHH3lMlSWQfMLydRibqhj2B0gM8lsbDtOI8dPG+hr3SmPyhAl0iK8hycpGnyt5tH6y3UUD9W4xOkhbg0Xa7DfTBkDrY5DpTJWDmSFNqI9fTXLurkyLkArpgm6ZCj8JeSETFLgdPs3GmK2JKtkE/DPU2gXt5njU1fSadQa0yXQisHfS/dZm+i4fr/mn79xKxzCGA3T/AWnoo9pSdcUw86UvsJ1/r0t7Yb1FLezwrQ3r0+v30xAH8AAA+feRmPap4LLeEm2Mt6nXhIXDAnRK33UIZ1u06a8xwwiZnAwrrJtMMYXV26kmUvN5WHNhAPvHMNa+38UAiJxFxGBIPK4WpG/9+pSnS/qnqKwL8jvk+Te/+xYM7zj9yPXXQo3v0B2dMFMrlfOUhjaHGBaRmOlFf5ku4UPLUFhUR6H5Qs/LF0aDzgrNF/q3bcp1/fxR8Uo6hqmn6f2HpihKhr6sg648L4Csv/fd8pCrKX3Q/fM8ENdw/iO64J+//kb69T/8/TSFw+2NT1kFbsc20vbaOgKjm27vH+DuNYbwh2nGWrwTtovYBgTRKUgtpy+agLHFuOcMYPjCfORtpjNjaqAN4fYHGhogmaBjvseO8WHmOHM04Rv0bNAEQXXg4D1WPcwgysnI8R3gxeDSl/C57kGkB5U5XKKU0MeMXzRgOO3QRNqMMCQd4B0zomyusPf7DqPNS+kbBzfSy+uX0jYQ6VPWDkCUybK9C/N5SPkoOGoZBBwSkjKchVTQcMO17ef6Q35n7mfK+K2pqR5JLq351WCnGJxoaBPHqcg+ksWlVJPGevrm/nG6CahbfEWqRzNtUn6tiiOY1Bpj6zQ/SccnzCkiEV3J0GPO9Mx2GKMxsPRpQPvIRGcAx/F0EF185Ib/PO/SNg4xBNMYFz0rN0Fi+eEcARpERrpHR8dBQ9tbWzGFMoWpTWhj21YGeYR20+vRv6jSCsrTU1R8VCa1gGxFpg8ZhtgOTZjoGd8AGQHGo+lJ+pdvvk452+kv/dSfTq+yqDnoU6NNaC7Ew/LrsrFserPg/qRSCqamRPjYRc+ycu2vgDDeyQQ5zgOmhC3n8+8j0rl4UbYqn/PvvI/J+vpR7uuFqCdQH2yXBH3vz1qWCqgyatls9lppD278B29+N/3j3/kqhhfgeGmTTWi30/79+4AGlROfRzdK2Qack+PDsIBuAZZQByG0iariZJ6uMDB3/DZ1oSycTFVT/jbCRWwOoQkuy6EElgHYqUq+DQb4h4BFATZmnOR8lGZxCUPVz0M1T4k+hkisx4jxXRfGoGW1U6lSqj5jiKDV5zn5+72/Y6ylbTj1DCJ0qdKY/G5CSLe5eQ2pegazGUJwp41RpWgpeJUsWU0XWI53w4tFicPXntpacpXsEIzSsokE61leKmC5KXiolgvd4aj/nCkfdACY2GH6Hvdv3b6f1vjk2Y29Q8reT0c4DgxRR50SuHrlClMX9yDWVtrlE9lHxwe0Cd9ZpP3cFqPBNw17EL33ExhiUC5tdIABTZXTbTNOANMsxqY2GpK7C1B5p/qtlBlQb1X9HsywTX/ZP0pEIkc9jNcEQBswVB3bbQ/bWtqx703LZ/aMWoHDlAnpbW5spF1ooAFtLE6P0j/++tfSa5evpeHV19I10mMuKyymDdsvJKE9K8vL/+xjhaMUH1Mipk+fF0AZOmIELedzAVD9vo6Z8+CSLurYOZ9eJFylXa4fC8J6RuW6XiAzqxc2AzFLT8HXwThwqrpKI76zv5/++e//TjqBQ83glnt3b6dXNr8UnXX/7n0aHo6O2nFMx67DqXsQ7f7eQRB6TBPQIcONYTSYY7su9006VxWp7fYM3J9KQDIDgHmKBJVLC54TwCTjWEPaqgqdQnCtLqqW40zUIdOW2wfHh5OOMPe7JKmBftN3nELcOVJC1bSDOmp5JP0TLHsdyrANwLX0HR+fQiQDxjzYIXvb6f3TRvoxtpoYNk9YcX/A4l3UdqhAaSSRdyQy8psxfT5l/k6wa3GPKRaIXu+iKSALxg65dHkpSFS55m5rCM3FmAbiG6GKnjb76QCG9uaN21hv5+mANfZnbPKkiq46d3h0grXxMufDYGTO1Z5B2H3aaKKFlqTW+PxbT8ZDn50i9WP6gPqrpp4CpB59FAxMIuX/DIZ0fMyOApaPPEZaOklTOtEQU6ebPm0/WHOMDhPhvZPwGpmc0rLfYkgjvZC+ALLdBcrp6UlaW1/HWoo2QdxD+tYP8Ayho/7WRvrV3/qNdOkv/pXU3dhJ23giOBwJJ3w1BIndiplk3GUVNOjEOxkpvzqtB/h9bxqU03vDeBT6L3R//lkdHxHhggftmTMs51KIegFN/FE/8zB8Qb739k9Y8PinTDni/bdvvJ1unyGVttcZG87YGAkTut4kEM0G4Lj+hevsh7KD+sIcHEYOO17L191bt0PH39m+DJcdQxhIE9Ju0sGqRXn8QZ4QkgPxEwhlAmGcOm8GMQ/59oIi7gCV6QgiVB31vaDvAF7faaycca/6Gh1PmSUgr+XO5SidJQE60azU3dreSrs7fDiUTuoqoSDmIzr/1rSb3kG4v7F3lEYQ8Akq6JkLbjXkUG7n4yhxbMrUxIraQHV0lUUDZJ2phtLe1m2Ker3A49uv7s5RByFRwIpKrLGCdgi1Sw8H9kCdY2i5A+O7Qfs3GWcrXdeHG6G0DiFigSRjGmHosq4KimMYXZO6rwOQIe8cA1r3AAPtr0TZh+iPkXAjGIDxrL+0ooSTqSnNlIBjmJ1W7E3ysm2kl2Ok5/EBmg1tnskeCzkS0fnfAzQIpavheuTr8zF9LMNr2L+0jX19wBzxMUB0DnnvYD/dP9ijPdjSn7a4zRzs77/9dvqtN76VjmGOh9CabMry5jnYbLgzb6VfcI78/yF6XvYt8bMV9wEm6sAr4KuDrTyrA3NJNBe8qIxw8oXMGc4jv2RYQFjnEHUARxVFILWFzwMKKoSEuHl6kH7zj76eRsMWJnykGwPwPuMrO3nv3r10/dp11NFJOkC9uP7q9TRBpfL5xtpaegm3KxvFTlO9GWxuRCM6x+c8opLM8YnEckoHCqArW8yJratCAiR+26i9lsuGVqVRegYhHB4B1tPgroJ+g6mRCZ3Ng5iL7AQjIB/SDWkAoWjDNM5YgrQz4cb6n44pR8fNkwDHPSRih02V3ketfQfgfGV3kNZ3tsJTpY0lco76pjFFBiDj0F1LRwDnEWPnNPJQ+oWvJEBpobYyCCZetScMQOioVzvr4rjN+cfBNpKvn373ve+mO4xz2wByd4jxA2PR3sl+gmzTDtM9E5jTOiAZs9Rpl0nw1poMyOkguD8/jScntJHGDgE2l1nQVx3auE9/mN+YecZQ4dR2YFJtNJcpIHNutlhSJ2gr7gC+rvZBmCOAaLtpPZGxyRBCxa6YnP1inwxpd8fmHrfv3Y1+vnSZ70FSxpu3bqarV6+mLcaX9/bvM1cI0wVsl69eSl97/U/SL3zl59GmNqJtOzAUih5DEknSFKXfIE7ulPQa3wpNF0FSBJD5+877Ov0X2s9pVfRuimRSx4fxn+QI6+h5FBdw1RMqmZQC2OAlXj184UB6lEzgWL/5+jfTP/rG19MenXwHdWXr2lUm3dfSjfc/gAvDLeG0IzpgItdDxdtCJWJMnUaojWsYZWw2O31rfQNVckTHYzhAjZ0DBDtOIvFQYdACOgIEEsWI8aCeNkq5aHg6bTyWm9sxuezDAUYBBwq8d75JLq8K67WEqGEidjDjvR0bKhY4kVizQ4DjUIid/NoYN9aQCgeohn2WEbWUtqiCw8UIVYq0OTf1npHIydNJ7SlIJhRYV31HKkoclM9xXrRjjFcpr5oFv67PeBLziIByDsOgRdL+2TC9zbj79zBsnfDl3RFbGyKbaTiYC1M6Gk120DQWlLMHaGYYhDaQvtgdkZRIxdCDGSpA7BJqiza2nqqXE5hdkG7kCcMBhHEowQCT1lGdKMLZgGcCynGdGs4R0k7wCUaZou12qpSijjKeGb8JYZWAHgPS8Z2qv+FeunotyhCqMH2+zyfpZJ4ywSlMb8AYsYN5u2s7ouX8zMvXGa7M0hqqq1t/5Ml8DTaW17a2XbmkLTMdZIlXQFjouI6HOsAsY7n3uoC0nAtgozLnjvNp+ro8s0+XKC7XJX4dXOWZhfcoXON8wb2XcLVk3oMI/+itN9LatSvpLhYtLAOoNbP05ltvhTrpTwmjxcxO7QLafcaPgmzAmE0QxFiBxjsEoE4fCLy9/T1UlNMAnu2rqhQcHSknYOT2W0jAS5cuo5LmsaSMcINO20ICmL7cunBugWS4dTxNlJRBSKpj1KUv14bhSEB3kdCObZTkSkAlpVMZEuABqt2dOxiaUHPnTDB3tzCANIfJ/Z6OB6jhtJvft28BPr9p2GAMx2Ay5jYFl1sp2rYBhKotYjU9dROkrtJoa7iBxbt20OVLaJwYXbA8Yxl9/fZ+ehMt4l21Bsd85HLIvdM8ly/xmW9aRom+f38v5uxOkd4nR/sh8ecQ7ikMy/oqjcz/kHTUNLT8CgTfTSvG57VEHm1Fu5i4Y+RwL7S/qMcxllFpxDZ2HGq/+tw+WEOqyoSMI+F6Lx2cEP/GzZuo4q6cYZyvQYf2UD1XCoaqDKIcLx8zvDg8hLF1+xik9pCOB/gEOV3Dlo9anYlTVGcZmjQUayhlABKDlMJzf3Varr8r1/Wwhi/3no1bPwoQDVeuSzqe69cl3nKKoh6gZFSehfphpcjQhi8Z1BMsceSWjuOgkfD/nKBejKh8x7ECY8FbN2+n61eupXXGgw3AF9MCzKu5QdEZHTZgjBNjDw0QgJli5zEDnE7LnJKq7+T6GVZHDCESyxpqqtzUMnQHWAPpTEHlO9Vay+Q4RQ5tRzp+ifEP+Wlx84MtGkamEFuP+cIF4zTN9apO05CkAAmCcJziuFOgDfpDuDOSAMmwwdhT0/yJYzXqPgPgp0iTHh/j/GM8g15Gk/vTzuUxNt2g7Bp3J7TlkLGb47sObaRBIxwQoOgmjTdn+gDLCQCnDVBlg1BCkuKA3R3CTDbTnhKyi/Rl7uMuMTde+1I66K9BxG4baZ1ghLfv8CWmS7QVHzhlWkVDjf02QPL2CacFVBc8LcjHGlao7xHgU/KswZRUu/f29tIGE+mDNcZ8a0w3kK5zuU6X7FzajaHC5UuXYpwnIJW+trUAlKnI1NrDbEizLZWC00odPULieWxubqYbt29FXw9xKJgdzmLO0on3m9Thzt276fJLV7IqbD/DEAZoTSc376RXLl9Nb7z5nXT45//t9PKmjI1WhDm5FCr21+GewnCfDT8qN9k54YEwsQwyiULTdQx4XYSP4Yrk8/p8+IIN39WBWO49n79+aExYgGbkAjyflQJ59mch6oUq7008eAwdoWnGCdY9uN0eYDgmp+7ZTnC9e7dvp2P0HS2hW4BATw+9N8gJsBAQwrRj7eQwydORJ5j62xOYAHo//DmmLTTly5dGcmwoOwgVKVSkWKiUEIxTGoIvpCWdoaT0Wk7skQfj2cCkpNWDRWlpmIPjowBjTFCTzilTHbrD9QGgElJiE8ijPep6515IU13tTsfMESL5F10mz4+n6acBTX+DOiolsc42OzAHV9uLSPUlmRwnvXr8ZXUJonFin/exrT4cXoeBMSrvMRbCI4B9iCvf773+Tnr9cJy+jy/uad/VFKibOA44tnVa4iWmfmaAbwxzUhoo3V29MFO1hLGswUQOMIhp8HJaRyup7nD261hp5bgXsPbRGFRtja8KrmonYN14eIaGEG1ne6v2EyfaCBApQQvdSE/2QYSj7WxD++MuIFunHcmS8d+tSNOhR9evStFGjoktwzQ8nig2Q4+hroHObTL2nlAXLa7Sn9oC9j9RkPuIS78hEpoT6UsXWlHjnxlWh9eWr/zKu/MYqIcvcTyX8HVt0esiLc/nVdJZTlGURvJF4QilMCZSxoA+ywTy4cKXNJRfTQjJih/5fQaA1KWDpbUBRNRcY85LAwaAOzhE/WS858TuDnNARSKE5woNJRcdnQJKOni4sRlEoBVO9zXHfXLVNcZ2jg3nEL+o7DA+GwAAt3tHj4uOddcxxy9j5+1URyGyKUBWIg4cAxHOiftsAcyAPMJQE54hTJlYpzbjqIkWWAihOYWzkr/MQkusTt5dpFwLDnwZr48249n9E8ZER6N0jfubTLhfYTK/hadH2wn4Dh455N+EEDVVOi2h2NG1LfaFoZ2ltnDq5pV5tplZ7wEa/F7S/ilEub1LuvP0JhJovnaJupAuc3OwCCbGkfrBxvxeYZ5SUeo2MSY5nzmCATjVAQcMJiAABUQHZiPzcTpEY9cmhpABoLPP/aly2s9aPTuArEvbjZtIbM5D+lMtwGmkNtdO4YTXE3UrVkfTUMOROQoI53E1sMhEsdGm+8wdS2NXMMjY5jJt4yrJZHiC1w5tAMDFGGYJSI9hlLv0qelodNEKPqw0NsMqEUOrktHR9udVyCUKz4HRW+taB5JplKNcl/N5QBbw1s8lzfLM+1BHywMLV3R6n5XndYAayeelIg+h3gLy308zYyBEvUBJ8uMpWOWuoDLcunc/OFSHjujTsDFnZacz4N7FcBD7r0B0mueVPILGMYedJYH4fADX1mCje5eqrJa76OTwU80TzKoiE1Ur5x9Iz/LmcnrOHDimFQCXEs9Odj7KcOGexVnJ7FhoQF4yhAPKqJq0AXHFeySBEkHjRHQ0auJLgLAHkZzCWE4BW4ftJUZMY7zOni//anaSrl5jSoPPkg3NJ8ax+GxSZuceo10FI/laZie2F0xRxLICGsZxbx/gTtQPObtIeMpk+1vv3Ur7EqQ+tVPm7JC0C3f1huguYwTbZTw6ghGuAZIm5RHQ4T/Le+umlXFqf8CMtH7a3mVMbN/MIWjVOMWI7S8zDs0Ai6+J3aeu0kIey2YGLg2p6tuuLlGK7RdpIzWM0Fb88W/geJ0833rzzbBi+84x6QbM1nGwlmkNMdKJbW58895Cjff5ENV7GOP8zXT0nbfCwn6i8Y9xoSbmTMOZeZi//xyPO4qLsaHPSNd3ha7rNF/Hhs89ioCK9Kp4JW4RTnXJV9IzTD18/TokYfnVC1Iinc8sSsJR4pT3kRk/XaqcDB9zfRXPdzvqFaYhDujEK8PNkF7rSMM2Uq7FHJtzX3Lf+QgpFFYyJBvqiVzN+SHB6LhjgnpyF3Xvyu7lIHqtpwECiMcxix1/6QqbGwG8MV75qqDR4dIs3N+fnwSTA6Mr4bRdjW3Jf4T65PyUaqDpOCFsul47zRFzifSBgJfYJGANJi4g1kor4xHMTTr2fQiqw3rJ9S3GK4ABUwXW0vX0NurSjTMMRmv4WY74cAx7wTjPEE7XqGxAB7N/ns+S5pWGTqq3KTeKZFhPYxsK/EhxP8BrZAvPnHn69p27TP9spTZjqkuTIZ9EwzEdEB/zXYzwqkEbmem8ABhitwE1ANpyqoYArZ45xoa5OH5eZ5yrim7drec6aqnjSpusQ3vtIfWtp2pn9tjBER4gyaQkaiWgYzjnf3V00KBi2DBiccg/PDw51tdYs7Gzna7gxSPzu80wxWuBLuClKfNTc/G9ltYTaOJwb5+5T9R+mMkxeZ6gRb28u516tPkAtVipOiSXM/djJY0F/SQTF4Cu6RRPNHGUow60h2i5Almhc2mpgKwAqB6+gK2eM5PUHwAAIABJREFUXq7tx/9djgnrYPQ6E3BGe0m4JFcK4b1hl4fxKPypYwiINzzZ4UgnTFqf0PkdrHhdJNYRjag3u6rkNVZQqOIM8KGUe2nmPwwpVq0LpP9U+eTQ5rvHpG1vBzHAIaHYkJrdlXxa7Hp8l0+w1VUIx46xaoH4WlyhslCFlZTZNctHqMmoKqGKIeXWMfY4yS0QNAgJeCWEhGCNFV6uvNC9rQ14Y3yJtLmEgWLM+Ooumz2drXf5FssWkn+eTg5P0m18H38EadmAeFoL5kxRC2Yse4qF0KiK2hCcY43pEhmI9gTaEQUvT4WcAiBqfIQL32i9mb7x7vfxRjpO9zBgLGBQzROkGExhDBMcAnw1iB5ug0Mkhf3kNJANNqQujr9V91wBcbBPncj7cHEc47PY2RsV220btVBKtW2eK7UFXUhK2QaGohHMRQKP+gs2wC0N2M5qCU5N1A/VxRnxnfvd2d1J7wM8pWYZT1pOmaqGmvVdpjm09tK33UmeynH1S3dzGy2F8SSM6eD+EYytC6BhOgw/TpXwtJ2cM/KipMpd5Z/1Ev5KRI2HMQin3kVylXIWei+0/Sj6LxioY6FohfVnplkAej69Ei7UUX9FDS0JGdnnhQOUBAo4vS+/EtZOD+Knsja9wNFocTMG3Xh1ADLdzS5hbj7B+6XB2E2i1uJ5isl5u4/1jg7SAnnM0hXHWbqK2cGn/OyAfUzRl9a3wvVLrU0uu8644Yh8feAYKq8T1KKb6zVhlUNzonrE9AXjM/o8JKX+rQ7FnI/TT/UWBBGT1JUqdIqfqc7hGoXMK8Y5lFXp56qKBZZEQedk9BpOCGdIrSnMY406j5FStw7upQlzhB1cqsb97fT2/iR9GQJgSMxPrx2srgBSZwNVvphrizlMSMYxG4wrPISQwGMktdLl9AR9HhVzH9H8FsBroO72cRZfMFe4yxrBg7ss4m3PKNc2zGPKpPcdtuXfQGoAKKU23MN2lIAPYX4j6uD6TadaZDZtGMmM4YPAcwwWbnm0kRqE+WsAUU3fR0VUnVU91Ad3Tl9vMLZ3LlKjjZKrzB3GVAF1czWG25RMGONrSR2Rbos2FXAyYp0Q3mWBt3lqhBGM0oOS1tUVAtXyn1Fmma9zzBMYgV8i3sLy7phdaacvssDTz0EGqaYhl6FKRFcdVg77TxqXeh8c0nxROaX18wDyvg7aOg7qGDmfpvd1cNavH1JHS4YFmCWg5/LOxEpm9YSzPBTQcF+I+oTC7uikDVFsoO7cppG3UCUPAJFGmiHWrTFEotRp0lpDOlCXMpf4OBjXOifh28lazexQ3by0tbTwxHEecg1OG975uHI5ptvaZlwk/IPj2fD8hznbEV23BCQfV3holVMCWmYlokaJqUyFjlM9atPhSolun/V2qHFdACazUCqthxHpMLh5eNJAtPcgStcPDol3l2VTqkNOZ2wyRaFP8eEeAEBavcuUzXfwGkGTzMuQUBUbgIlRbax4VtI0WWjrWEqPEr+rMfFzTaiRznt1mRM7wFdztLaZ3to/Se8j8cfkMaN+HSSqzM+Jd50BdrWMuu6xjaqtFoGKOIBJyKR085uo7ir9mQbZxi83nMY57B+B5JykRpP4ziFxNAyF3yhtL3AEreM3NYwpbTmDuWqIaThHydoip4R8LiPOjvbySF0OYTL81HhO6YceK2akLzUNp1HaB3pUDdIeBhpVS1VTbeDuwBfrLp3OQc08xCoroNRgttbZ9v8QEKvG05TrTOGA9OhPdyIP4EkLxg/6rUhEAvC5/3h4nt4LwGyX+vWjJJ7v62PCOshK2gU35/HUNmId+aK8SLuSuZFsjPp9yWRZOGtPIzivhcBLfRsWgt+kke+gUoRKRAKbupEBHFUDB/3NsAii+vBuSsTxjDEjXxbS+0UnYh2uXfIkR1R9lVhmjLm0hGr/0wLaJq0eBObXZ0dkYv46S0/huHJzJ9i7pOEEvUtyJCwi5rGHc3uED86Nw7WOAE4UK9GcaLFSmvlHzj3CEFyt5v0Bquimc2us+hCkA9rnDCud+4+2WLGw2cTQsM9KDICyi0o6xWXvmHHV66P76dVrWDJZUb6tOq0FUpX3FNgDGHeDc0pC7jGDqsZsyDTHU2iofygVazP+e494f4Bafh93tRFTEaMDysI83hGAHSIRhkiKM6yyLhFStR0T3nG6vqlzdN5jVOh951BR67pIjw0kjf2raonHRGxm5TIgV564DEkQea8r2gAQ2ucSv6tIWkpq2sox6zHMqQ8wncqw3aUrfUw7DBdcgXKEdtOnHlPayDlIt6o4YEeFmF/kuoWnTxup75TGy9evh8YxYwpClqo/aZc+lsHdvo9mhSGqj9HPb0VOsDNcggbc6KoLo5hTD/s7dojiiPjCj3YNYx10JDN2sJvXwWYhE4Gr4zyICoB87buCG6/r4D0PMMN/LAgNVBe75yOVRKuyfSjB5XPTCRxa2agylUcF4aFczjFinh+SXeFhgeRSimkUcDMkJ9gZiNBBi3QfILikyLGGE+L3IbgTrI2ayiVO1Zo11FS5rCqHgx9VSAHkfi6CQ6+WE7ijXRieJ4pVjuyBgSoIEVmOUxiBLlJKnwF5jfWvZKmMIHSOSsl3C79Fx4qOTxwz2V6W3bktn4exQkIHzVp5j2AkB4yDz3Rhawz5jDbSC/Xbye67Y1aJw1guU+8diKh1cCvm7BqU95S6WSdX2yuNYr+WLkCCUZ3c19DCWGtnN71xfz99gORsDJg+AJQTDD1h2kc6OWb88iuvMCeLOkZ9XWoVFlz6wbIqAYMZ8d5pnwH1PkSd9rCvZUb6Z/I6mFEYsvipGlr3GL9TX4cHWlQPYTwSmasotlArVf3UbjTShQ8naQYDjRzyOH6fMt1kJc02BrewVqMRuNrFPAPgSGppxflJ3RB95uJeJXBxJD/GOjqHKfaxhA5ox6aGMqUZGYUFVJA55nPOMCRhNsg4XAzJ5/ClotNS90Lr9SFXwcZ5IFm+IrzCMsxR4hVQ5hp//N/lqLnouQXZJdNSwPNJnecMtECoj1ZRCGo9iw+eoCo1kY5KK48ouNxTxKJayPW0hMXi2lN9Mpn8xvwtRxUcTtQ6FtsdstUB6be0qlaqkxO6fpddX1NVIXt6gtqoRAzjI8SjZS18LcnXcW8QGp3sYF8V0/kj57oEqQYeXdhsCxmHY5ADPPdVia2vjW0cpYDP7AjDSrhOIusx02P6wO0j5Mh90tUkcEphesxbTpvUh90DvsPyrZ/aeTWYxmVUp1OkwbgNACEUx8zZd5Vzj3Kjvq6hSp+S9h2k5wFzhW8j+fYCRKy1++4HSIVhzJdpUVVCKIWaEKYODarQ1inqr5FCKUC5nQgPkBF2BHNxXGY9NILFnB7vBJvt5dhLZ23bwHi2QazE4J9bg+Sla/SzTALgxLpE+iKvzLePM3M5ZmztfqwtJJpGGRmdi6JVTQW+85Kq+A4VZCrWKfqfNtbLaXIEg6JbtxkHO9UlxmzjtliT/VAm3QAdYgSgpLcKmEGaFkq5yEnw23cFZAWA1rFO2+W6AOs8wHxv2xYAFhyZXTkeFbeeztJtrR6wXqDzmdbDlQLWCy73ltsEE6IhbBSBo0lciSeBOEhuM7flpLWcTQ4op9PZWi8Ix4AuHNV1yg7VQqkkGTIRbdOGVRTVznGl+yXNkZqO+YaoMi1UUNXiOaDowA21BGrB1FpnOWO8BYidiJeYthgDdgkjIRXzvGdBpnFAS+A1plokUK99FvNfAFGgOhY1vOPUvpIIKYPjFGBgrIZz57HLqpzvw1dUVfld9s9pU6+vf3Av/XmWdjVUQccYGFgpoSm9K1d3EhDCdX5QiTLB6rmYM13BCpEbuLTdY7uKCe3Ua66ljWlWk3VYcKX9JSTxFNBM9cBGq1AVF4wS/NgNtGgjVUTXZAoOx+cByIogHXuHxgKRlg2lpF0dsm0/x+t33OGb6YuBc7SVFVIjUvgA00MOH5y79Vp6UcPQmWLhOJN2cz1Ki2dOQV3zQ6YAzfHvy9evxfyfY+4dBs72ry5oa6q4htdgJ5OlfF2nuSiPmpFqq2NGs3SHvNjFGxoIuvSef9kQKvXkf4WODWPdBZKHz72u073XBRMlTH0+vbRdAaBpng9fnp0HpvcIqxzBSIUr1J+VSJ59Xs7luv48FzakfHBzGzDmujjH3FqlAkjgMQkfaEWScC8I3DRJ389jiFqP+eDoEgXPjzD7h+SCcLJEBGAQhCZz9fsR0kSVRguee9EMOKuG2ViCx3QEj4BUpVJVdvLdpVBKPEEq5/cQXB7Wx2sn6k1nF/evMFZQLoHnzxaxPhK7e6xQWyaLN/CxxJgEgZzN2OeTwY8T8m7V9wGWmgMspYJw3z1jVJvg3EyuhYndBGPqJMZDEBfAGZ0w7iHdfTau+iOcxP9/2u5r2a4kSdAztAYSKauq2dNtTdqYkVfk+78AjVdzMxckZ8gWVZ2VEpnQGuD/eew4uXAKJYezDjbW3kuEdO0eHr/t/g+Juq+FwBE7E+MFht8TwxrgQ0hSwIhMtZUVeFw+sxxqcTgSwjVz0zM7KsX8zBIw7/UONCKqIiysooiqIGv3XopWSs+bWGHzWLsnpYl5j8iNq6r5MnZPElmJnJPwuetUjx0nam7MoXq/+f03Q+Tu5azXFvP6eVFU3E+/++1vR8w1B+wEJB4GG0YnhN+zctLMqpjatfigSaxpEHFAt/8Ap88JlrX3Y0i34dv9eRNCnz4bAZ0dxstnH/ud47u+7/d3efv5DwK4XVyI9IeK6r63EfRY4L63Cl2AxP08kfaArGOebzCsW4N4k/4gwJ3Fvcn1z6KA1s/QFU0YeiXkTXs+TSxBeSeELcD/NPEFpyTiMgBBeOWra6yeRMEoJWveLMVp7CGgQRtRqgs3Mhhdz9rI4sYiSPwCOIBG9MYeaFH/j1kMcabKw11cg7jEOXW97Bqf2tuWDqXNhBS1BzWtq1czdEiZ36O1LZH3k68ufJ3ro0V/F/6vHx9e+AcJjjLezH4XvfM2V8L7Qtxm4bGV4lJ1RJiep1v+58TY//xjKxI+++rCW0uRSv9YBuUMI9UhVCxi/ib9U/teFm2kTv3dKzS0lfh/tRX3455pHhASVmYiP13RNbqv/ilnc/2d7sM9UoHwNEANtvUV8rNCOxBY9RrPetWc5cONGIiDvZrEYH4h1retmLjJJtA9z6vTHHP/3Ou69CePq4DUYSkW6YUOSmq6nsTAQu2gfshLO6tR4Jg29b1/g5TzmR/dmJuL8Xh3c8AN164dkWgjj+v7ec86IJ77zkd82BxxI/cuY5fr3eP34YQePhZyvkFeODZmv/NBYbVrlVFZzJOrnavfvT91TINL+ppBg05mlFjG6Hj3i3jATTxHx9ntuZuuApFMmnt0A6kqiFCoM71wOBj8CMmuJuLilAaacQPiMHWjsDgg7kjM1Z9JRBQwKmuJlq19OxleRi/qGQaJWXxaeUQ1c4hrzuoD1kTIFvCr61acagUVWyX+vK2zQ5RWejx7/vjCg1IQpu7G4S5f+PZRaeqL2fwmOP6WdB4nkEfpKkLS51KiINKlHyyiLwO4J3H9/0pCiAC9uZ4emZhLlBR9dCfR/PMsnYgQI4X0HgDXMfproiBfG+AliiKO9Dmir34BGhEzP7aQdjjmCSnGdxfCIVokBo77m5XhuHOSQMA2xPGOcTRuOCeJZbuX7iZa0vv4ICEg4xujGz1U+wDxcOmohvpcQ6CdN6xpI92dcQ6STh82cjVOW93QtoHX/gYEIUwf5cz3rh7hea7PY+sZ9ezv+7zvg79FKBcH1NeRGoZ4riVcnt0Itsve709FHznSeYlKQOuXw2+FHgs7X/AR+91DE1fXiSJk7N5PNp9JSaG+FhC8OiGdiSS3q2NSEAL2DCDXC8n6JIp3rUBkCZUgqOBcCzXp0+OXiyt4ni/sWuIN6yhEmexpAC5eRI9U74ihOFwUmP45jvbayQdZIROjiFKbHJNrtfhef7iNMdPPAMoZsuPAQHiCB9JVpJ0wep+VKXoyfVUcH+bFMglcuS3k7ensofG2xLtC417Xns+/+g/tX/h9q+8fX/i3lJXP4pa3I+pX415vSsp0o5hIHOcV103+v5c5xb+u7H8vDO5RCPemMm7Fxd9kObwzgFv2shNyCQeU+El4mmk1DsR9bgTAr/0DXCEsN0GJGcenx4CDg81LHfoPuIifdLPR0Rtfq/PH2d8zXBqXa795tP4ToXuSmEoHpAYD77f1CRww5DC8XI8w3ak/3B0C2O9ca7F2ZfM7/hjnuxsR9D7rJkTk7oDg6jDenP50SaGO7yFuDaHq3C8zgtQgjreJ8ZeSMKYn05/1WWKp7ydEnKdPSHvq9/59vL6Z1D4jFGDwiDdHPPKce5sjHss8VfnBKYlhDfrG2kGoc9TBG0eqsJ/ZDZkzWbzDgI8Dvu+ybA0SNrkMA8rAAcWCooIcr8RAYhB3gklE0VgUIRzOIwCY5QwADCUKwO0HMWFS1Ut/MIGiZsz61kuIu5qkbt9NBMQ3gdwfyjKBAECgsNXcAE+5JvyHH34YxNMmSGpAPctQ4j5CYzJYHgfQQ5j3RclYkyitx5WMSD+XyeynxNtPcit81op3saE3i2y/mi74qFjZ56Wq/y/lfPkpo83lQvqkW7wecPG1Stt4s75dyt3ybQD8n4rm+Zfq/zHgHV0paYBxxRjZTGfE5doGYPVNFgJIAnmWztv12j0Z6XrfnD2KeFncazwRLPdwfcRmcylip7lAYAcJGsmxOHdtAfPJktxz5hjHhfSfiAsOOQR4Gy8fUoeEv0RQYjEpBpfFcbcWxx7wKBcMIicscKJvaq+2IXD6QrxGMCH5FW6eU1vMI9Ad3fNwnCB8UQUE6ATfx2fOX9uw/bHr6ts44L7vGwmP+OP7Po7fP2icPrhwRLrjS7uCff9Y0L63rzlPrGgAo+prIZdNKYl5RLxnUS3hXE9Tqn9Ox7oepULtx0QeYnwu23LcysDLS6n8ZV1d4WmiL3Crq3FR4VFX05lce1p9454AiE1MPG+Q0gRz/EJURg6ZwjbyEc8gNYJArLkTcBHtKHFXcOHKBYTax2gBBA0yMYsbY5Yg9ZsLxrIqZViZzpU/q/8Fbhc58zSucDEgIY49zLprPWDrkS48i+sL3XpRfOq/tOTonwtF+zLXxpXaKZM0l8HldNaXEamfsob+v60g/y+Pnl14EFWRAPdGY3s7hJ41gSXqFNzAT7fmXMzkGgdnCCn0jbUTInCcL5Fr7asxC2cjTvrsOiI43P5EdEanr2DI6RqJwziPn6331mqX1xPGdjmCZBG18WHRpHqsAG9hciFRYzvRvksCnFUUYAYRg9gXLgYDYCfdko4nUFsAO8ljEBkR7gFI4G+s0TLP1a4uzsqc4QVcFIxGzY/IJ2K9j2rnM4YanwXtR/g/wvoQjgPSbmTb14yHY7+zSjNcJ7Q/IPvGl/3M8XwWtvaxmx/D6kE2E3CoXGMM5lzz14Q/zaJ3KWou6sWdxxleLoVEY3TJj4ZbyFcippSy/etW28sEZnkSxDTpz1G4yh35vgGbxaZxVxaxO4lsgcWsleMf8sAgSu+/TzfD9fgZIa6FubculiQqoDbLhmjajDJ3XhbWcuD89GDEsm14ARyeg2SPcbSQaQa8At7YlXfE7hVjiTNaHPsuKvzsVdbU2nXvXrlmGi/x+4XGxGFye8TlIPynX2Wg+embxNMbF/5TltL/9X/+p8YjC21xjxb9vg34fk4Mf5jR6seqfNIiYP6v91k+GTmKI2to6CRLlJyJr86ZBx3so03ar80st9dy/A8n6boH7ueeIRpC0O16GX06JDQmOKIF095f47WAEnCODlh7SB4/5+sTakbnx1UZeejbwvCM5UqWtXTshyVpEiKovcRO4z2Gnto1YWndeyaSynxX/6ySN7/VU+8GmSCl4AjEg/77MnH/amlLrGdE5y4HA6NGQDYFmTLYaYgWkA6croFyoW8HxNkwrt8b1jcCGof97Hrzl3f3742UH8Of/czxfGYdXeLZqmB/PxbmpSM273t7kv2eRp8MHRfTCW7XYA5bk3Y7EYTIM07wEHNNYukSErkEBC/z+VrE+zBOMUljrfKOssoX8yxK+/uvv77wRYAD0eJhIXAKPw7QhAg6NrCSyqJ+jAAv+dca3Itdg5BjkGnF+6wm6DcxFbcFs9wCpkUbd18gIaugCA4uFBPrviU/CXvzmxuFaHQjBLQv4IMc8G8KNWMEeZdughhdS+x8FxDUmsopxjVjyqfFuX5fKNuVkl49fPz9hX8NtP6XcsG8//G7onlClup+lj74MAvo7+Oaz9+VbqI6bglSTuyVYOZq/bF1gH0cAK91gRNxc9KVRn6rd7KpQZKbWWSvjW+QDxSgNi4h2ZOikfTZWFuEO2PSx7xNHzub5zkrLyQe4whkS+RWy636QUC0oHa4Zs+xGIMlCbZkzraQ2sr92YS1Mn5qfSkdH8d6FfIinGvZ0soZ+7pn7e14Ka5mbgYB9Ki2yX1DpBV88DRijjPLk6AtYoFx79n7AwKe+uPlme3BxF+Q5zwC7vnfZ89u5NuIdR4RV4l/2/9jHfU5ItP+vht/rNCz+/du0JEzGi4UzflFnTcg3/3w/ay8ZkB5FYAAaNY4FjdAM+JjwLCCtEV4LGvlClMjXQgpW3skzLWOSRxbOVI2THjaSXchZo6+Ut3qRIVNtERRezDrcCIq3WnFDuICxElhV/TPnWwK19A3YinxlE4ICaeczWW6P/lEIX/Afq3IGM5/iJs7OUJUu+PZf/f3/1h6vq9CnCh0JOTr3/5bQPTuwv/59Q+tNXx74X9vce63AciTkORBvrmHWVdznFz454dPLvz+Z6b7ADPd8SYDU5xBDKvoGtsHsKDOqvMROxkFFoCBNdfoatqOS+mPj3n8sbWIO7YWgo3fs+tEW8foiRD8gJS+ex8nMm6Q4Wai82QhMAfNHYc6hEIAzTWRl53A8zsoWyibsiE+Y8yIm/qg3Agfi7iOINYTOmfMT1yIrWEsqETpxt47zjhjQsQY4iBrXTlr++4DNPbcguFfdDnl67tjj8+GdfUejyNyfnDjUIbru7zj+fw1z51xQj92Q89/3405IuNGwD+oDADUyRuJSddPnZqJxBVDJAhyJ0Cn+7FcGnAIa5IeFwM5k5EY9jrOAYB+yp1BF3tZ8C8K+6CMZ0HAhc//h3+YCXwb4IiU52fDPS3XUeboA7VFeryL1hdWrlCoifGsLbPIM0TBxbbIdTULH66svQwzyhcfKnxqrRvsnd6DnPrYbM2Y4RYPLLuJ0l+5vQIHXofUt0OaS23M+TxO9uRiRhCrPV7G/RKXn2Ww+NWv/6E9JxKxC7z+ry+/vvAvrZD4dZwOt3xHJ8rK+a+tl3t3LffNBYCaSJeTnsRJN0Xg+ChFmEijP1tKd1473/Jh0tG3+LbSFZJUhML14HC00ZODMeMFCXE4wC/sDiGZUDb6Yn2EEPRj5RIfkVoIYhWItCMicC4X+eN5hiLhZhBkMn6PrUDIYNnXIpqQgUFm9PXG2/jirBCf+CmXjqxyK/KqJgUrkzWtSCiwUienb6JozDMpYFxF0V/bqiHck7EA41vY2NceQKFOh68btjdybCJ1xIGNFxvm9+/9zlmBRvVEpFyDvMrbSHwef/Z7Y5g53jwWuBvo2se+u3bkgnq8uxisTOTKM6ug43S/T8QUtf9z1JguAAGeZ7wA8ERBafkAvPV5YgtfNbn3mxS06XZLhJ4+ASmZou8W9Jt4Q3HH/SDXzagiN4Kwt4mH7C16CSRmicMFPq3cH0MsA7L8UOJE84GF8Dida4DiThxvDDy1HQD8XbkvrRccjhGXY8TZ/jMIPdbf2iE1xa30q6evcibnx7ubKb7UKwFXIV9xikft2vKbOOGbN9IMprd8kj4Twt+pPw/a7ut++q6Y0P/tkxWVI13FN9/81D6DicO/atX469qXEWLcL/UBt5Leb4Amyk+MFKmylmYtC/csqSrzuXw/N6TkT4yGDMRRbp8vWsX+oDWPli19+ulXE3ZG0rA3hbmFgGNdhoSNhzHB5UdSwulIOxEWXO2T4n0Bv20EPs3IJucoxLXahTg62dtkVqj9D9kA/u43Q3DZCIz91cpVXxdHpTE3kiqPZTZisXBnSW1Rm5AvF1ErSIjZtzK0iR9tSdBwPztsTcyoP6t0BhO7VyETMNIzi+ctaNfXDcsbsWb+6+dGOOf93FFSPOLLEU/28+fPnjle83uWMu3KdgN2YR+r4PjM+ecMlIEnhlyuY1JC/Pr+5xee/e5fL1xPBzIx9zKt406Clu81MSb+VkD7benursSJvi/N+cqr2ctD2AOyLIvPC1uznvBNyGXv8jflUxG8fUlG61JG/PykFRSNrpwluFkFrzCV6sKpHsapIDyCgOJzSQxHbIJRXwYNlj6cFvJxeaDIomVwBEmmACMn/QBLh74Sp1lZRee8IRaL0KmcRwVrm/yJ17wUcAZsNzOM3C7t4I8/tSdjsaWP4mCPXn534e8KZv7hd//lwu8Sz/+1FRz3C1b/1/aU+PpZ2Fqw8u+fP7jwPm5YsrmAtLAzOql8Mk9/WgEJiajPWtg6Ft+MFA4TDYHE7dpd+GI+xZmbgNxz7uNICJXc8a9b9zl6JWNZY+Q+4mXscBVAC+m+LehgFujWR5zxUhIPu8njRyvPKGwx1mDK+yJbbrYz8KsigZ78nOoQx3xeKN+DCMz1dlOiu09sb8j6qrr4JM0vX5/74HOrFT8UTMD9QVTl42yC07kftpSr/SHbZ+NGdWop4ghRcW0W+uGgjDSwDzcMRqSVJIEdkW8jmT6fR7R974iMM9DnDs9tfNq45bzf8/gfIKGLG7H2+YiUuwAv+jhcOyLjvrfPFPRXNcYKcot6OVL/uSQ8X3765YXv00NaXTpB2ra2MkgPekZSJNzvZvrB/T6xnpCDWJOsYAG2AAAgAElEQVTOGDe7wwEsLURA9SoAZDq//UlhW8VPLn9TxgGuEJH6OGMDjdLS/SDfp/mtAI0EvsilBceTtq++uKft35VqDye4HSAw/hCpEA3UWJ8ZmYbz9P6sTgiA1GHlh/VrInkguLI4myeG+kqAHNJezhUxKQYlwSpXzIvK/1W5dyYLWNzzi7JHv3z8/MIPBWVfjzs+evqq9PW5MQKs8iTFMbL0lj7R+1IuMjbdv5txpPaIZQiGZ/IhnrM+7+gTvyHbLIVqDIyPfmjrPTGv9W98u91nzYVVI3qe+q0sqsR45uhggCogvwnQUxuIpIyPQFxQ9cXG0FKyJyVEJt56fiytuWLuxQ0FcuOWdGLGFf7D263GMKcD7ANffL7L0a/dYoo/KwMbvzFEfMqG0PUbbYoqUsf2epP6uWsTpwyu44K2jmMhnSRanSEjImt507jUqug8PJ/HhwH603GE++N3t/3eOHJ85899P0tvsV8+X/ARwWaATh/At4BtmcHPnov6SNUghg8npFddeL7SFMzENonS3g8VTZxioAHc9wvUfRYwixdEkSfOEYcKeIgjYw7v+jKxB+QBCFGQeCYzGmAWKoXbUtKJoYDn8gkoUVucjPUNQNmsBLKZ7e9DPusGPU+sm23dtK/2A0R9U6/7e7DHiNBUL1+UGVjGCjoOBBTPaKLHgNOYMPrgJMRlayh/9/W/T/IqQecvszDe+uKTVic8LGcMH+GdC79PZ/6enswjVq7VfBNx5qh6bUPFr9VH5dOtr8Zd3xU4am4gnHHxAVyO4TS1130uFcgC0Bmt9N/6O/Opf9YDzrj3e4IRuqYcoYYQjZGLBIG4XdaOdDdjgLsoH+J4l4rhvdHx6jMxU8V00EG8yiK6qpefl38WozLOvTj+TKv03Tdv5pj4TsS2nhQXF6R/L0I8fa2+V8HPxcIBRUa9CukGps3D8LzD0Y8Fx9q4YHrDr6eMoeN47fj6n/q+8Wi//7Hz8ZrvK87nUKpCjoh4hlw61DGc4DS57m2uuSsfQFBGz6Dgn6WLPf/t/z0TZSK/Kr+MfevtOXetaxBQ5rR///d/z0ix9L5HpWqHfHLDSAbMKa/6sWY2SdcTl0YUhIBNskl8GZd8kXtANm4UXiA4Q43Bh0jb0gkg3cfxnBkY7JXAmCOoANA8lq5wON3KOjYEp3KW+MXyauefNoZ5vCylAFAUS3Bw0p/qR4DiHW2cuNQMCERX5oz7cV6i0uM4hSVQ9lz43bdfX7iX2+Gf87k9+fZiCJn4VpmvAnJB3K9bef9EaF+Af9+ypcaOXveMeT7rqs1LzcVCtDVH+rrnRd3mxUDy0RIpr0K43k+YOENaADuI3JhBQmXgZLOHxAnZzP9sndZzj9/8PJx+Uk9Wtj06jKlVFiP99Z8UICtg//qFbxMpWVItX5IomdFrwupqi8xwjhV4sBYUS6sxe0bW9HFjjfGmtIYZ96yfZEe43ny9/fw/jDEQ2bG87HqEbtashu0VPeVbGraQcRF53XFsGD/Csj5uZFxP/fn/z+POn39jPfFRJNzs+dioRTkW6z6PfEcE1E2UlaldDCgdCvByCj97JHNXsZ4BE3HkdqLKk5cPh5v9/T/8w4UHT9rHrwGXyGe4aUgk8kI7ICBkuk7sCDDJ/RDbpNDH+MK0EfCMrymxZSPf6AinA0IARoAyIVqsjJVPXJp+h0l0QEgKUFFh/RtA0Y7qEPkyK/X7jbPNeNRWSIvqg3WAu6UF9zmtWXG5aex/SPwyDoLApZB4GibcvffZbCkuc9i7bO2v8wu+FzidletNjnyLhS2i5RvN+zaIc3fE6mEe81ud+j1SQGd9cs2x52l8gdqet4e5nyN7RPj6BtARFPCJU4qeEVDx1Z2vpizzK7SM8exqBh/SjrpwSPOlrvGpVuZe3TKLsHFK+nz1yA16OTPmzeJfJezCNemy2qfN3pcb9br1hCHxcOzuqWeWWs24N+ZFDCGc1/s+fa391TQur9VjnT5Jb7V7I90Qqj5HZrPhw9n1vxWhjuX8pd8/GramARsRd2M0zAA7m0CdduyJ3UgKy5iMhXOtXQYSMVKy/+5/+scLv3319SjVAJ7TVuI9y5UYQX7Mlyhvi8n7pIGFhICZDrAi5KsMgFcvs/RzERksggGMlBSonrWEgHz8dG2RPRQ7Sr4MFKu9gMBseN8i2venjG/6w1UB+Uysfo1V8NRXlJQlT3kj3tV24W8AQvmTgr1yITxxdLhOxx6vH4v9vMmlEsF5+eJSQQefjt7EiPEqrnc7BLzWfWLe0zJ3X2Y9rk0JXwOElkjRT6X1sKX4k6c/l28mbtYWaO9CYCs0pg+1zVk/ET/92HO4EXIMLsZNFrpYDI63n5lMbydiQ2zEgcaw0ztDlImW9Z2QZxX9RvSX9UF+VBwudjjjAikRResJrRWVENlYQXTjTAcEU8swdkrP3xzqr3IgEgSWhmOIe2XIgG5oEcgY24Q8XiTyMrZ0Y/KM9tvi5cE6hplp8SLsymFwWxbwD0VP82WMjMUi/Isbbtje1zaSzgQfjj3Xzvs4fj///P49YWszuCegcd4N2dcMlI/rBn2oaJ9dwTTy9L6CiSEAgJlZgqTPv/i81Hs/DSXj03qchYxZ+WKIYtU3N8DzBm4S1wZElkJZzkQcfRepnVSJcTpbS0NeYV+22YaQLGfW2wMNIipxVDsngPuEFFu30Wa6nFn58ssvyr9i67TS+qWvjfgEMGrz+MFO3EN/ARIdBvU02VfSZel8OA8DjXGS6PaiwGGuqBRiIVsj0sYxGJNu51geF0L7B45fMwDk83qfhCDvqHhY/fzZ1tm5K16n0zzO2sJ4cTnrp1jbz8snc1VumQjUtYjHlRBQyj9jYcddbd3zty2g2uiYeWuczOMEYlfn8qWt+Xbd+FyZ1Qc9F+B3YeIzEaMpI05mTGf1f+VSEyasTNkhJ73MfRE7dgSiJtDtWXO183rB65fo4pV5l6+4ZFTGGlyYO+9SI4i0xlzbEeHrcU7ID7HXcrjiRDMoiVG7nCHLrr0QcCSjzrLSNbKDrOvYSIEguYKILAZivPZnP+23thxxYt76yLX9zj57ZuMTONyIu8v03PnyxzAzSNTn2Ihd6Ua+I4U4j4BT8Lys4SntTSggbOiKNCl28LfFe2YRRYHtpPMuMXXSEARMEiNZQf7MAt6Q4FP7TciwFlChWmNQqGQ7MTkeFZfJMmbF+J3Km0WmTbYlL/x3xM0d6UEkpHPipHRHXAoAaOejfH9j5Kj/9ApUexIVNQ5bBAUYVkmg3JbeWGVuMbDMYWNA6F2cEWAMciZizSLigPNaZUmVb5EwYNKfpxOMUK8aLGOIs+L8sxtTXPlRKREJgreut3VYSVTsPYFoENe5fSZYud9XWs4ECWVcEZxt33jjRMLYQeeiftRrLAB0HYvL5pfDVZqfkQgQr9ptfAYO+gD0Z1auz7VFTM09Hygua3yWi6b5EyTdvUnl3ySxNrKGClp3QHv+W2t9V+KnFf4HueV91RaEYOevUS//33DHxuZGyPs4pJSH1vhqs+VYL/v9SXAigP35c8Hwcel/WqtuiMCIAMt0ozxzPcjkA6Jqr2+Iki8bYabBp2Mj3/59RD7X9v2NM0dkPeLSeWQ7lnv8/gESni9sc0AVa/SmtH6f55YQBQVFjfjzDBaKDcgNoKS9//QP/3ThQctUbFxSATMYrJnWAN4NOYOiKDALZubt/IIGESUkmjzIagqhP8ndwaVxvQm60/fHfEdxL5yEz9F3AztcLwAc6t41XPkqbt5nHNYBi/SHKPmtCIG2MNQA3Hm//gJgCAMIcEZ6pkXGRF4Aj0v8lMvDQmHiEeOF9I0341CIgXwpo8fErd+IqRSNkh1dGJlQLpZjdX6XIeplz97IYCJXy1NiW+cBzowv9pb//NdftQ9GRoyQboIgGhNRKizB1t0VCzBzoj51T4TSSc+bPTtqw+Uic4Y7E+MjOkvMDxGbPIYVBMX4ST+Bs/GpGgtEaYuWVj44xPXSc5VHbGWAMq64pWCCkR4iQrNOMaRg/MrmOq4pOzNP2Fp1Klc43eS5EfZX+1euU4HpjRsi04GgQl4+ZMYjBOFWwR9f3G7jmGCAfv8qSiA4fCkeJ8YCG8dCFDrWPlZ0JZhnRGMjyjzQcUScjXwb2T7GfD6GiObB4fnNDXfZq5ZfENnvkVU8fDzOY7OGbQQ9X6n35nmUpr4yQhHNrgPiGmOQTZJBNLkA+1UIChmkaoeMkvdK00BPoXAbLFQ2eB6xQ3mPCnIG7CgZBDBZyoBgY1QYk/QveiukmoHuecTkeR/ik/c5kPuFdJd8Vtr3gDpkGHGz94bg9C599UkICBHlozGVJl8fJvO2JUeN3Ti5u4YbXY9LGQ+ulwl0rm049av8fNcLKpBPlVvBeNrUBkDIDwOxRH9kxrrw++++mXGTRMnmOfaESCYIUcrFEtd7ZAV8nPL+rz+dvJ3E6tsFiW8fJe4rHnOlMlzhfMR8Zd6qLP7NkQ6mvWufRvMzRqfOQ8AaL0uSujQc44WVCj0ryAGBkoFt78CrXtcYxOjr4kkRVZE3fLGS+o7LKfF76X/NFfWiPpNeIDk1YtZrhvyMZZdZpntXmxDi7U5RF8T/sr0KXwgQaIwhplUblxD+0VkBuZENJElcODbLaN9dU+/RMLNh23sb8VYZnl7Pb+R0/4iM+5158HRsfNllHc8e2WXtej+IHfWAF0zEEZsHYAAbRDs9s7F8Vzg3ptdOmd+b9DtNipXZxLlPC2v6/rtyTbbA9UqJj54FpBajznrDOML4p3qf/iM57GwyUjnfFUlDFPtVeiPAXpS8vdgLh4t2VgdDS9yK8t/4o+TjSkCFAqQlnsQ9cACIK7yt9rC64oYQyOJXQIJrA8YRZyF8HHz0oOlUE1d57ikb9RYpA7Bds4HNBja5PgGS9ZM2K5lUfAEKjkQvmzCsigTQgPzT9KMnff/9N/9eZFHWPhwzXdCGonUmEdiGKFlNnz68cGf0MSIX4AroRAzFDUc3frNWrAxRrb0IjkNQ+ehYjXddWjpe92Sio9sNYuhl1/R/FlvXRsaUGQuqQQ2d1BT9lmALlzaOj0pwrK6td/Pn6a9lamDDs6Ofmo/Z+DSiD1H6zSDFuKVcK2eGwNfO9xGI540Vq7fwQ2KrtqmDuwMXtmJ/wgV7B6HSZy4XRNExhrHujc85jgeehyl2f2D2NKcbpueljvO/9/XjvT+GXMdn9/MfQ+rz9UyLp/Ons+/7o0HnxdDzDdgVbwqj4wBfmoWHUTJ+QWIZIIBsdD8zYVIb2ZAj4KDcA46oKF0B5xPhwYTP2kVRt2iUyMS5jSoyxUBgcagv8tlJBnsjhRxVhYRSY5g4upEziosz+uitAOgdniU/DATFVQEHcYgIauLoX9rqfY1Ut3otw6HvjI+yNt3oXTGYo68UeoYgTbR/QGPN2xhmiOnM82Cw8WGG1++7LQOSZOZxVtG3YadkSJDlfYHf71s3qOwge/yXP7XFtaVLUjw+baGv1OXDhQEuES3dzQFg9ZVI+bgxAJxEPvM3GdjMc8/hPrj75oCu0k9xtvkE2Dir/iNaxEljOj7WJJxJQ1G5jr1CH+A7BjFqAyTiuzvTPatjHPAh38+20fY8mGmsH+Yn5YMUhWQ5GCKhrZBavLA1nZ+mhhA5IbdynrSPyRDY6hPIDYZ2NIy53/A9OVdJW8Q14g2g/RuOQWjjd+inYjZD2tf/0qIndtTLx4I3ou1CnXelx3vHymbYT4NpUG/LgRLneJDo9Jtf/+bC101001I9K5p/pSRM7NChnvM+vQ1wWrWG66Hjn33+xRgKZOb69B8/67ksjQ2+XKOsp83tcBXi12eZ/X+041NlzjbYlbtS5BWelS6nfSi8IGwAYmJxEwRiojwYFgJaIs3sBNW6PUhmlQMgoQ8BRmLxrVv5seIQ29d4NYup9z5JrBK0fN855LanAj8grrONXEOZa/PsFx8g/lS87Oush7/+D7+58LMImLSEz9sA9EVZvK20FyHDagkJXg1ByweovsbyUgjwtuhljvv7xaDiXLLFiQIi+uon4xeEhAyAdi8Vw/VsUjqcCgeaKex/yNNvbgRjg1uxltowh3SzkZuj/0YitnHGeRDsihwxn5Fr/Wg+axMYgpAI0fPGh9vCnpVN7pQ3+mD1PUxy4IjHBR80l8aMpPBlAf6Qiz3gs/on+wKd92Uhf65z90wbav9w996zquLKCdmMw/oaF9RRCLjPff1rjo8h2fHan+KmH6vng5X1G9E8+DEE3Nc/VtC+BwFMhu3NJCBiTJFD9OZXpaxrGy/ATIwjqvGZJfScxKF4WwNrTRq9gpP4kxBQoidIeKtyHhWo+yqul7Y0ro/3vX/zXo51HLA9Ib755ptxHjv0RTuGMzYhymNBlUT2epSe+PmsoGbP4IA4wqM4za2QgniHktJl6Tc4s0kExICCMWl2GGry2w5qENmEPgxoUFn+SlFAyvSbRRS3Qa3V5zpCBRkYaX5uWdOLdLzL99q345s20ClG9FftvCuJbo2Y/r9/jwOnG8V9H7YY+HqW2Ev1R+DzizZIQUC0Tzvpqs7bTWQ8tBsRUqd2eBaBoMszEJk34qUBBMD8juYKHHhWWVLOK1df9IvO9pPA78ZL1oPLEQpJpt5K8lwZ46xHZBF6un71e5c0hDPa/FMIH3XgUdFDw3krC0d/RKeu/1+10gOn/93Xvxv9mTj/Y0HkYIu9YPzJNdU7Y8SpDCsnhrMP1vVGbR6MJF1s7odYLMl14OXPHeeRbDOmffa+Phsfn7/m+MA6upFQwQraiKjAI4L6fWzE/D49M5NEXDR568HxCX4bhbuXBfPnokH8JtI9zVJ6q5AsL090fJBsMG8nnt1pAxlp/eiDIlFk6nr+buUuIWrJ3Ibbcay/43ROzOD+IEouA8nSj9TDzC9OFMU1kbOivrOoDzodhzDkfBnw0Bte44gobefNQUwuSv5FQcS4DVHUu5DPindLeojbYlJxS5zgbgYJ26eNlNG4jOn8pHtucY+R6dNSxn2bmPk4ovB5QCdn3L/+7t8u/CYHviRR1z8tMDwklOCYMeR2CHixrAHXq5eoflU6jzgJ9whLpzZfvdoOVdwDgyySZy3xcMQ27QkhSAmMZYgNUf92KUOsepfrhguHYUoqDHrdcNCTdCP6icvoRYSI1dcmPzLY2b/eQd9eEUMhQjWji+ZXtjkEj1RyP8PWy8bDXJrbzxtX2wKIzoEodmN+3rYI2oeoGU+bjxL9iZWv86c+aDHAr379WQsBQv4IAud9mD+EXGyPiBpwiJj0Uu2oJSEqaWrnmZkG/5Fjw7ix2vgwyH1Csim7w/09ps5HvPkjRX9wecTRI/Kh1EdM3hTgfMGu70aeldg1lJVoAdh9X05zcY9tTFJw7ScsolFM1FGmLFtif1IulgeAMCCyzCkrxyCmLbxYPHGxbTC4kn8s88FY2nApbgEU9yUnd8hWb+bZE0OclQvcz7dC5LHUBpC2YNsOZnGIjDrv6zdlDWcyJkNIQk47DUG+WZs31LkNMQOMQeIo8VjrLsVtueIyklja8z5kfmMJEwtnQEzco8O4lgJ8tiwKtR+DRkD+Ko5iCZbdh5hJ6Ia//7mMBI3V9fadfd74zS5Icf5xIWSYuVzc2ZP2ubCOjwVR2kNLxN7WBsuBIBzup/3DmU5cGAGAmDNOtY8LgaHDomoIZgPOq/VNpIwVCJNFjVW1tv74/Y+zAuVZxpHXhdIRWxEeYXt3QlIWbfrszMDovSFexrNnEUqi5qM+ImCuRBSXJdPWAtpCT6Zbrg1HqSjaznj1sg/EfpjuhytOKsTm836+wusRX7lXP2kM6dqvg4cmYmJyhxP2WasocFFgtRz+TDMLhdb/H0OWDePuHfFgIyL4931/PLcR82Pl/bFrI47u44hou4Jd8J8rXCloHjHLZJPpDaIGGkSiA6sfud/q9yeJWE1ZxpFiKFtF8Dbqwsdjcee1qCzxhUhowuyai2PMyvgmk4sDV6GvEGuZ8t+HhLfiDD8/+mnqn+zMrvfBPSCN7N1gQ44YlHJSIVavnKijB8pSZk4QTKJNP3A9AcqI7BYnPTLm/gEGgctNb1yVQeFsLOv/GEOG04bEDBsRHaZ+IW4/5F9U7uOMT+zAd9tI9Mfftd7yfusYq/di9hVa2sN0nuvPW4pV36bekJMltAY0ZvkFb1V+vxkcWCXFliKAxmD03BELa0d1Ia6sjW8aEwTmarql1QpvQ/A1FgxPa3degffbOjnxo0kcpA2+QcESdNxxv2hHcyTQflwf8onS/0f8XMjIECTz3buQ9V56u6BzS5N+V9C+MoQ5DhiepDhxuYK2STH2rYTU8qxenKgiaTASjwtaNwc2U33X9mmCuR2LgTTvXgKRXF0mVQWdXHWsa/PldGUhmutHprSf3deOvzfybWTd+PPncOWswtOXQUIvbXbr+pEC7AKPyHr+mfk9/61ezvu+NxAsjwJ9P2kA6Q2S+l4MYD9pb703UUX6HyrKEmqbbeLIbEjZwK5AYaFLy+o5roA40q0m2+SxgKK+gH22ruZATq8a3a02cIJa0T05U6qXX2yAMcAR60hs1FYikuaWxb4VBivmUpk40xCRgMpzvu++WxUxfseui/i5nGUP9WU2ZyBAcHAgiCEJlYgZY8y4I98nhAYoRLOn9elRvj4WW/SZ45tFVda6z4hhtf9ZPrHZcaj3RzKo3s++yHhT2Rcz3Lxu0SxCw5jCYARYtW103hMnnLja6iVBGANiuDHGgRC111liJ/Nc8zFpPcYIQ2RPOqofL9rybbKkN5YTCNB4vGFIOiE4NQACTSBECEWNeNQ6UvefpMsTnX+qDRIPP65/DDAI1PMWbVuGRjdUhnlS/uch7NZdH74twXPtWNy9eWgRMx3fouC3z5ZbCRDqa4MzK0NG/xsE7NzY0R+JpA3Lunw6z6QeDuN2hPeBZ4TxhKDOYGGPsVfN7cah/fz5cv/Y79EJjwh4RLojRu+KPasBx0buwvXVvnc44nKMLgrM5/emiaCbEfOe5y96eaUETDNoVy98//0PF37zD//hwoOiZLxNlHp3Qha6BKCBgF9EnR9ZrpToRb981to7928HGHfiANsgYdNIFP+G5LnVIQxO27Y+9LAyiKMW4Y7Y1DyxANo488y/ZMDpfU3qBrKlF4lzjKMkWosMYR19c611f7UdB4B4uMvoiwpu4nF0GcABvVw0/Ik4IQTkCrG06Upt+X/+7V+8MWLfxcSrzwLSG/XDeN8oxccNsbOJzhBZO4lm3CxPWp1C/7Gr8GyoGhECzMOJlYVIhbiCw2ezzZ67QlSt91Jf8DlejUt/0ZpGQEqEvFuKRbqahbncEsrkY32aCCp4gHEJNNuajHiLKCAa+ruAtZyp7StpydeldN3bbV5qfCzappNpA4OZZ40hTY1Oq60Ih4+xEADwOoI5Pl/3+uj3BGlUxtTlwdMxMNvH+SxN/sgx63rNm3JJbAOnAON0bJg+j4SrP+vBjROe2URZWzcSKsr1/dwvpf/xb3+wqNfLu/DF2n95eRd8/vzLEzU0SjjZrBLtHES2JaakD3Vdg4mgyrjUxD588HBWTH/TRpzvmlBchxOeOGTiWVbHfN4k0KEMnEiQF08SZyFrE88cz+zM+DKIE6W9ncgpsxed8IUJrIzZpSlAhNCoGDFo1vj1uYhSc6YzNgSEAMtAT6B24hyDCsDbgQAj5gUQ9Cr6FUshTja7HQUgxmFtmrKopPoHCOu7cvjAWAdvB5T8bQjRl198OT444WgMRb/97W8vfNU4/Oqf/scLP/7+2xHZ6X2WPwGiTz7/ZCyNCJccnTgDo8TW/8wfMXMiWvp+PURm+BIVcdGmpbWB4UhKCUaq73NBMIjgqPKsWko0omzj+aYdcSGh8bN3xvt0SLq/UL6xfobIfLpcTMBcG4iv2nYnBJwU+HG3B9ZENjfGSxTSDo5gTTY+LJwTBlgpxt+cyoSHUyMwYn8h7TVbYp8QV/69ITYQUhtq8+AifRCy+TFPT6FL7O18npGc/z0vdRwRbxWx3t3M64iAx/r2+3/u/AESbgzenTlf4G6k88cbPLRlKcDJI6vrmoB7hoSJeyjgi8gRfeDzBvTTNoL5+efiR5ugt0QfgCbit3ImBjLgNcAQB/W7O/63nNOW/8T9iEeMFJI/jdiWq2LWmPUdQvPZed/xczGaod6Ui3JDNroJIIEkFhOP749B6NQWE2c8ANXf//3fTzkQce95X8fmGsTz3iTWDQHPuFHlEus4vG8G4Diftkk0zNI6BqfeM/YTdF059oW/XbvE3jIc/RiC2h/wamPzKL2YFRYSvuCkTtei4xERn9ZX9W7uvdswWekEAVSvcHj9wYXof7KajegehxxLMymnP7G4kJfIiDhB/gY6l0J9oNuViAqxnY19EF4cpq7Tjwc2wHpIagVNIkA6YfHASSgyGDwLIW3/jcgYC3llBWTz86pTuyGkMD5tEpChvIkQGiax/JKI3Nv3ta1xGs55QsKFNPUDIgZ7Swz1vULmGYSRzQFf+AVKzeNGuP19/95n47OZlGvnEVDfzzOvAZA/ccyGMI6NgBvBdqVHZHPtfKP8Pv/MdFKX+2IlAXnf/gCzQlxekdLiCX4WEiYCxoLQn/PRvcnEaJkSTvFDviD64WxvFgKO66J3XudfktrvTdEkEPFmE3y/Fdr2u4cYgMWHGPqiSUKlrwt9AnRxmC7n0F1LlSa3ZVxo1q51n/9Rm42FaBcHhIMYgMLHZGvPcBaiaABjEbL07yx22y82YXK9pz6HcK5XIle6Pg5/BIOjGoHJ3aCcq2VEQyBkDKcXEbvuJfpBEHrg3cZpCEjtE6x+++4yMNlQc431Wg2hbdpN3wbQ10PA2eylMuiCg+j1Q5+fRLSs37xaqsWn+Svl2yF2PypTtj5IpShvD10RwRokDW6t4hgfXD/UMRIBHW0AACAASURBVJS33pqD8a32nHq4jCxRe/Bj2RJ6YvyDGXbct7BbG0TaDJHqOQQT0VrjmPST79W+FGONrl/6z4X1qjHnFuGeuHjS3UXqgI0Ri2eD1UUQBmZPyIYzmxPjdQ7/PgrbG743XGivYyOf84b/I6JuvFr1fIjoU8DhmADuP4Zw5x/ev4/PHyvZjUFihsok2rnmIw4R9X3YBGSkHlGFF8ncPc1A83dxme8DAgtWiUnEMdzR6gk6EGpO5LTCwh4Qj1LUPyt8SQZvhh+JpUwQHQpQAJaJ5O8zvKoRl3cGJ5LljMhDFNQ2CNrcjdWUNRMCQDir9g2mcj0HASHEdrQDGib0qzeIv4l2iWgWuuIQnvUcZIFUX7R+kUOd3grQIcgAe8B3u7jar0qL/9tvvp61fogQ1wjk4K8cAI1bWjv38kQUjC2AkATLvu6+06emffWdq2faDnEbz5t9Hy6JoFQ+azBwxOlYOodYNd7T7r7zyxlzvrg54kISaVk1QpedOrL0jkGruiEPpLUb1KXyo968XYhh/VMH0VPb6Pp2RrZrszJYu/UD14VgM8fNk7HX1s/ykXI/jbEpUXvy+lQXwh4OjlVYesP3IbYQOKBOFGWkGrbcgauf/i2kG3zov1EkP5ToNixvON4IOISnuXR2bAR0f18bGK8PU/oBu4/f5+ZHjrMM3B5WyK54I8/5827Q8fqu+Ij9KPHoCFFeE8Bg81MGEYOFbCpngC0RhbK+YzWVa6CJIjgFqghQACxFX6gZJX2CipsM+gJdxiSOVbB6p4wTMuBALH3jagjAZgA7091YU0WHMHpwY4hP1T6GFGKQ55nkd+Zq5QK2WczaJHMOV+JE7LCKTgKjnsE1ABF9DFLc/WQtNJ4QOZzwJJJCbgBGx2O5xCURKkEI49trjESGfFESrNnGrbLHaNMZwLIg4iy4nLLOHPERAb+1HeQ9KM5V+eqePqQSkEQgh3FjIf36228mKkn9xpp4iahYzX8jo435Mi9Wj1TIjOcAPcIUMgxSM1ixCke8OPvpunyaOCgXhXYiKBDQPNxvd67J4N1cMLCJeNJv5IE1feepoVLQUbVdH0gNzvqmfGn8BxlqEEK9jl+MM97TZqoIC63f8GQ/OvcPx7o/2DqH3xvutRtcuLbfgzM+xse1jQfe/UuQ8IwTqsTLu+CN4bshu8Bjg3eFu9H73qKMmc3rGz8fw8z3P3wfUNxvq6wnF+5ngICA0hJY1ApgH+dkvtHk8PfQ5RxjQOk3S56OAyyuiJdM0kLOmqj7N9siLISFgJCT2Ao4UUmGlxELAzqLcpnyZ+uuypz1b3xZISldkQkB8OOCsyefaJeeg4AOAA2pALoy1XWp1SCQCOD6PVa+odaNZe0l7sqXiuheuryIACSXiQ5HNE4OAMpwIR0foAS8Q6yrfzbmzLJ6JXHbcqxxU4SIAHWSHxP1M1hwntNzcEAAOgmm6mtYNoQQl1vhe+VcrQ59IJrpE7F33AoB0BYHEZRnPyUGkmgCsNHZq39zI/NBX9cfHH5cC6vZU89OS09cVC6pxJyrzy7CENYY/aoAf0TUd4TPd4R2DDC1CSF2TPvVUZ+vJQ3NPAUzlwt8v9U44VEkD475CcqIisCtCSZvLMECrBvka5z9+W4MNuPZyLPPG/GOCLjvnUeu80xsGq3K6j//7L63z2dha7sh+4U/9uK+fix8v+uaBhPHbI5yNdGKOPE0xBDa9DrfH642aQ6jjjb8IIo8L83BcLEG2ECjjDjh+PUCbEgFISHh5B/t+vMgm+gmcHtscAG+0KURaaofJeY2MCHSUTBKTBR9QCG5EL3sVtdwaREfLKmABKAxjOiLD7HVgTuMW6C+4GjDVatXW8z2GpeV4+R9Ogp991pIzvTOeKJez70OqTdHwjGHo3SfwWkczH1su23Rb4MRsiwgHt0uZKJ3DjeonRtpZLbmQJ+yauOs/EBgKo7Pj9jtMDdjYSxNoH6PvltZAByXGuLZ89q1ttguWCDx09iNfmuMzS/grf8QXNZzBq4xzFSnLgB6SITw4THTzvrIP3znilC7iCODUvV/n+5P9J2AhwiKUDoJl80/1QRR8L7xnlQilYeATJaA3n9XzG0tmn4LcRzXg/b5z9Od19e+DxKu63TZcU8NMrr2ywHRhuD02czoTIo6MaojHmxc2OeND0o8X/YHFZ1+DBIO4nRWyJ9ipbuS/fyxgk0tPDNiVJyInsYqZoOQS3faNJIFM6B++O2Powuwcglnu1UKv/f9bqbjEKWDqHF0KxOAcg6lrPPP+v48EzcAeWul+uScydrIEEN8alIED9PlcMK7V0wu7hDSRlGnjp43oJAKABp+7X1RXOrkRulQPj2RweZ69UIe9eCU9FdtuStPS3P4dDg9k/mK/BDHOukW34jkj1r33p2LRbvgNj23pQ0UXtvUfyOAXMaN9CGW37iQ5UFvQmafS3H720W3IEKc50LMcCRAzx/KAW4JD4Bi6XySrjXr/SBxYwg5+dTkgFEnHydiMkjbmMzSMUYqRrCA3+qM6yUYhpyImnHi4wSUXBYO6Qlf5dx/ntFmpJXGTGQunhRYd602dh2iXLwa98s6Tj+eDYEatysTIb4kjO9/+OHCr778aoIviM1EUW6nT0POPVdDhGuPtjDmXUIYIq5C5yaIO+wXprZ0QC04/YHvM6RcSEE1WrA8TfgDRHFvf9w3Z/vjuuM8wh2vzwN/xXEWtvaxQva1Y3n72gDQCXEh4BEJJy6zhl9tYOhx96Nu/8e//suF//iP/zGjyLOW2pQzsskE0Lc//XyARcpz+9KhxJzoyrZ6G+ABEk5qk8BsfzMx5bLUfwGMejxrVQNOJcvyJJ49ma2BJuSi+1nTV0MHOGaDStQ/7snhLYgAFYYEy6qUCBaWIQa4NB0S54NIo7U0F/oMKOmHgpNfIALAIDgljuEKgB9BsMh3xCmAHCCRCLRdIIE6ZCmXO/XS6xXneT1u/A6HrI+30smuBLmeJ44RQScuNSQkugsDIz6PTthYvUq8vlcAvHWc9L/J11IfV7bsiNRGfoiaIYXYjHMz0NjXQya6eld9EYgstvr5Oq7mmAW59X1bQQUmCK9j8LlJ7yMpGHPXiKAREYiDvjEiXenLZblUh5styUfKkOlb8zGqRO8NwalMdbu3CIFt1MWZZhMYGFurYej/izGcEKoGfIAstYWhEDF1DKIuJtnpQxUMLG143jC+ueC8Wxnac8SDfX0/P5X8FcfZUiYFq9zhO6r3sUI3BfCc7z4bAV1DkQDhxP/V0btt3vjdf/r+wq9+85sctYCjxLetf5Npm5416RYCqG/idu8TlXAG4iELGUpHTBJIfC+KDGEIEZcDTAC16yaOCBY3uIDpZZyIwj75RFD62jLxlt1nFDEjI+bUR4ixxY6vCxggsgoQBmTDKSuXA5wB5PMQhQ54uWF6HvLs8DRimuDkpwEqCQCSywvDPG/acVFU3vMc337Tw8Z5HxB3+cIP337X8q904ZHnUPJlbr9w5+2Fu599mYhO5030qr1sysTSt20M/6QyWAInkAEA9fYWu5/HlW3AwvhC76UfmdtxBdQOhqnX6VTGEREZ8a4xoYeKQBpr6sDCKVa38Zg8LT3j3gSBmxHADTFrOg4/HDDkxkXpycqnY5oTGQgqbvYMMT98r/yjUj9++dkXE/NLjfj7tggQ+TSctH7hysbrcZKS3DPgYlIhVoa8PDvT21jdk4a4Jzb8EssNMvjwN/dA2jR7ISbYPcKz3943Xs7nke6s7Pp2/rt3/5ojuNDC1QDnXaHKdwN2JbtRnjtyvt141w2CFHwmhgHiWZarESlYNZscAcwG0zvSnOOIjB9rH/UkUtTU5IckkIfOOCupK4PxwKSuJURr4in0OIDrDtY37YRk3hH1garSoWZpTtfV4VgWRBErQKk8UxAMoPUHmS3GHaGmm1wh6mIeXxOyAHrcIN3XNuv9AN5sJoMYBSCAx1jcbLMbZWsTAPYcc7q+eI6FUb3zfjrcjH+haMoaSylW0nhcSQRXxosQllXTKgicxNiSIMbf2FgAbGXQvcfvVh36CIGIuxBzB6l7Xt/0C4EgWlrBvp4xzum1If3SzyS+EkSfkchcNE5T8ILpIQDqFSc8qelrjwW8jq3j98AycFE3InYOz+/dsSzgfdSSN6qINugvEVTm7ucioHxvnhERYY9EaivxZ176DDye/vbvhYJE05OOuJo8dTv+FALu+84bX/Rxv3P+fCryLz6dWUd34ceKFrCtit1fLH9RhfON9p6GzcQ1+NeaSELN7JUXEElB8ent9MJEzjdFXowI0bM/5BSe/R8qH+BLAATeiCqMLrPhYwA0qxGyBfCboeIUcwAFAcREvmhJDypsxXlaQhEiFPneDWivFCggbbz2i+HEbbTHCvWaMEHlaOJX+fIelV4BJ4ZUdgaSTo/R5svPP+2dLLNNPH4sxYTynnRtjBzJp5OunYjUHwskAoMzqs+YDFE4WSEFA1yx5IsLJ4PFu8vLnYMj8YN6jmXRll/EZqtEEBo5TCems/0aZ6ch0M8Smrh5LT/nlWskAKvZBZKHJIiK2NDKQzAGCWuLLNhERs8yiIxO1+dyuqC934nYVVlbGiDcOcsyQvks5H9ZGb4LxH5PvKyP5hih85Eeg9mqTk9U05WIkxWN5lIeoTdZcYSnGakXpfQgWnI3yZhg5b62XyP2BhMICMPei9I92un30ux7v5JLcw29eJWEoY/qx7HAkXZVz3C7E9KREPoVLPXMyKZ9b95cM49Hae488znigffO//4Y7kwFf+FxtorC85sL7nc3omnU+WsavY/NIYc6KAdFqvMEQJSe8i7KIbI4Mr83DSQrHrHvdpZTvjxUHLVsvkNGq6WfNkmt4UuzFngsO9sAR8AOoAwr3cv6wHdNkIWtEPCVjUYywa38M1H9gPxtEIUDjtEgg4J5AIzvJdMd7oIj504IqAAFwH4eMn7eltwsii8SN+kiAgMuh7xB7KxlfEq8qm7cX9SJULBFhWUEl9LCkqmc2tXvurQcOArx9rPSUdgQFTLgxhIFj54aIAtQv9dYxXICsuWPBDBjmg8RhJ9Zh4hzaef99jX87vsfZvwvpRffKx0gbvLwp1asI4716WV1cHsgKqQHq/RN7QCgsYjY3QppOECeFxQ+VuDaClgRFTsRM46hhu+5hGoLKFY+a6ewOqsqENhEn1lBwjp+I8R+VZsvESOtmCjaZmCmvn/WEq4fvstCmr74SVbeZ0lFN2QZr2xBBkTjnyKM+mtu30uw3HG3sbFo6/nztk4IoCyDe9mHb/qKgJlBvoXIox7NWxE6Ew+eIghz5UScN4PZsLyZjmd8P+LG/r6vT0H/DccfZFtT8D52JcfKjhTjeP2XRtZRAwzgKohlck+UaBbAeikR0eyjckQzwE30oIvhGM36GAnsvzApLBJV7mWNdE+qemLdKPsBD91MmolrvQNRJ99pZUcM5/7klrTmrMGGEJB3OHWcASCuJTTEmpCztiDAE/kRINlUU+o+bZRSj9lcP61ne567hXHcEqb3dksaCnuy0qnc0VAaL8YUhhxtpssRaSHik9J1QP6rJfudVeF9LF5VP1F+tp/OKDPt6Z2JJGk8J8A84iMh1Nv3onmyPs5WAEuFAFhyzizJhCi74mch6FhhAWP1au+IxPVpdM3mZqWkINKBVVZOyBmA2xsii6/2viNq6x/REyLw5fWcrOnusUZCFRzK+yKU5Bo1vtPGysXRB1EqSKQS49ek1xjeFJ4HK+BnMiUkHcTMx6/rrHIB36+yEn9WIMOT774eyQleLd7mYVzReSHaIOSU3h/Orm8kqRMSmtc9fp5zfcP3ec435fT88bn58TceZwHcxwKPDdvlbuTb548h6Oacunoaq5FkUOElFnE9MG0vujT6R8D4tPhFupP3P22V/esi9pnmUdbbwqriKCySLwtHor8YwAHGAPNtQE0PNaEQjWgLgq0O2KFdUzeo6t8o8P2ZjPV9DThklCWNqf5VqSpwcKI1DuVY6+zWkh0ADpiVZA0hjjd7KQLEgrRxCoDJ6ijNoL4BjhFHGVRqOx3rSZzqbdwlTXISFF3U5obGujnj9iYgA/yCrwHOu1buT8sDKNSdhUO0jYW8tgsIdUcHNK7mh1hWHsBic1dWMkTnJp9cdclOB0atfggbhwOyOhuXBPfcPFko40iPMoRAJO4aSaVm/j1T+yZyiYhcenu6He4ONm0rIIuALQ70mY+R2D7PxzERSRkAPs81Zb7enObQOI8Tv3psc/Zkss/RY7VHvGsoX6MZeW63bvQN1SDENbcCHhCUWTbWfGvlIDRE72TOMYaBW+0/ISd43Aj4x5BuI9zGheP5T9372PMfu3bJoB4/21K4H1bJRq5fkOyXov4QGU3Q6rynyN9jmo/T0dkYDAD8xBP2mBCwSUPXABHB7sQBLyVfvC3FBf+f4GwISCwxclwLdCiWMaFuUIQV1cSNesP/NH1itqY3xk07+/hOL+GDA2pSIYy+GVcxZxOV3+dqiCMgG4DQ3cZRH+BMtEff1TNLlnDSAGviFnUmREGRidjGdHGieoa7d0xEx+lDJGTU2NmwidlSfzDEIPf0SyFWQr6IWHytA/4AEYGQP2X+1rE45MnSWZu0U0pFOwdbzoXbEQ/FjVbsMlxB5H7IfHc3hDAPuPbodo2LtYAMMG/p5cYIFzRQtYeFluV0WZhXlI6gAByMjk5fnRXzfYazh4yQnr5Lzy2Gf4jr7HAVPAgvnKiWypS4ih4o585INtw9dOdur3SaQQQO3jj82GqUIYg9l7Nn1BzwNkTX0WmIzem7qxvePbO53xEBXd9wvwr57/v/GGbOGnxqoIadb9TmgJ53zzP72I0eoKi3KC09B+iBP5yK4eBWEzTPlox2/Edt/4Vaep6oRVR908S/DFkp6JR6SDFAXUG44JMoKMetgRfdz/L29m1ByrJqp5uh2oCNgeOdKHqUmwl7focEtQ/Ai8YAuGPN69qEjFUvgLxVLCnOilig5HtC9JmFVcQHy6AQMQh4N5/c+L1qE7FxI9pY7vDAytI/iui7HNfa/hxQdX3E7wD9k9JXoPqABmLHxxJTl+WPo1tKRJzO+E4/ZmOYOH+AONEu+tlnAaBi9LWxIJbHlcbnVrkc5tcD/klLQUKp89wRypr2Nw58i1alPCpyBdIziikIIgyB7YAM2LGIIVeu1VYEEuIvETZRvTGiKrDiQgTEbTIBxHG/TGcVEvey1TDen/Ia37eXCqywDUBjfyPf5/ic69cQu9rnYcgnyAPRosJcq6AheuaFmNtDi19XsMKr/D3Roe8TWdWz41aZKpe+PES0QzmOPYf7+lz873T8gTh6JrodGrIbdJ5yHCnGRuSFvIlpkTVUB5CaeLrdu3QnPccNUdWX5fW0oPRVE8GRS9fi/GX8+DSDCEf4pJbojzvB8KDw4/4IoYVTyWI2FjHUEvFosiAOP+XoHMQhImCDLzU/nWyGu/s3biy9xIRdj7va98FKcWKo3Z9s/LLF0AHggACycZ5fz2hwLb8giq3erV+MX6zixxfICX55GUEm0qQJVrbnIcu4VRgvApB7caLvfn4wjvWgfowSxhQ3uHerdvYsfYv4eKbLEOshcWXQcTcAXc+COBEz2VBw6wvXll4mAIDeZjMe4rLt627WF0RLW8Hh7GvRc6+yDDOCTMBzbVK2QIMa1RTWjs5EQaKzlfYMNw8KzEDwrA8Uf0sK8jhiN8ET5qnfuPjo2o2RuSWuQ8BX+T1ZvV/VRxzwTUYc+j8JZCGLjXXqQ3ozUZ4kRPx+8zrCXftRWHWciaLmufpGX4eIiKD+aFQfbpnNcObRrm2kOyLfEc7PI+XxHWXsco7nfd3Z++ffOfMTHh/c33eFXtoTvAtayPahqLqvLd1lEaHt8B7I7ABAQrkgE4Akat4UAmaAmiyJjL5sqY/nISDgp5tAsonSiHMacADBmsfyCelYzyYM69TWETlOg2qgN5FggYUggGJW2lfOpGzvj1FEfc8y/hCfIKBy+DGlpRBvihoTOZ+m/wCOcW4Pwi2jA0T13VgwvlT19JU4PoHetQknBqQQk75Eb5w9HhqfWR2RFMAv9mNAzThCx5TvZt73k3g3nzhl93FsLgh9HOtyfwgNMW8HJBhr94nXiBOfqCRV2xCj/wxlw+2ztlp+ZY+/yWpQWVwKY/AyZ9XtrL24ztqzgqqwEmbNGISggu09x+8J6C0OtlrlfkEa1oIuKSUiZP4q/+d8f1ay6PNV2xsQURCeuBvuB2k0Rvsk9Zq1qsTQxm6YR3W9bF6nbYje4BpCUDlz/uWzYdWzjn3vCNdzo2PjwREfNjy5dizX931tl3U8H8vb5Z9FzOwH3diF+r6Rb4tlH2vQLrj6vTHYt5j62kBlMjgHJG+e2gPi9oXPMxbY8krqC3GPE5Ab52F9BBzElElTQfMgkjFKNKIo36xOAPgBMSpssuWjNMETTxlQs01aTjN7lwf8ABy3oJu9kF6v9/Xn+dsmvGuzELhnTSgE2kAG2B/mOlEnhCT+Wsn/ckSa9KYQ1LPM+AB74lNPk7DHrqrmWUgxCAeouygIQV+JaYCIiEQKYICwOsDeDPpm/R1Oz9WO+EyYXO+sie5q91gsX74UiGB1R8QsPUvSLNEniATRXDY0/kKcU/0ki0kraKKmzctySreGyIxKwg6NvdA2/ZSOQ1gb0ZpufTmJxVgOkRtGj8ssJNH/NY70fbgEyW+NJKId+jJ7N1YuAvMwV9SbKMyIsPyBzZcAhgnMyD5gfOaoAsT6Wq4NbXhUmkb1k3yuVjfNEXE236Stleqid8DmCQk3BzQpw62HzPzCpfb3udjxMcQ6f2//PiLgEbGPcOHZjUe+fxC2tgtwY7PtIxYfv3+00PqC0o/ItTByLFnoJWCfINz0kbGocZY3AXQ+exLiBnxbzMxvmmRRHcRIHPDnOBFAIM0+ZTVtcuwTuEQza+4Sq0JylsIxnAAqHe0PQI0oaPJqg7ZBeuLg5DkJuYhguMnb14BrUXrE07VXjDo9CyGscpiVDuCBJBgAGiexrROk0HcAsQfYfcA9iAKgZ2D5zrKIBoBzmP/uCzoXCABhhZtZkmNzHNxCdRN2h8j0vDbs/uFOOOLEvAKq7tu7wtKjxVtZiSFL58qx8mQ57Su3/gFSxhTH5HAdjFlljlO7CQHg5kXbRxTurFXE1LN29KjAcoTRrleMYvN+Z8TxZj7UN7fi1P1muJmVJRU67qlRVYiHuZhGd6/s+minqlmtob++++s5fbMSRyuImROq2Lw/L0Hym/eQ3Oob+vgi3vo+iccaHAi44fjdLJps2Mzp6Tg/h38MkY7wv7/vefd7EYYl+h7xal/fz6r2zE/oRYfziHJ9jki3vw/V65nj8/s7YJolIibE+Cuvzy4P5eW4lqjXM5I4NapjkZu1fCGRSfKWVfDcAz/1jJR4DDuXopRvAxRANn7E3sPRRjTL+CNi4lY7GNE56JcqvxESQ/rJyjx9Yq0jSi0qKUMZYHjcciqUn6kbcs6OTCkwn32xAsz9NtGTpayIn7HkvWosTn0EfDBAXdqD4BgXuyk54/RjDq+dREcH7j1RNfVHYqwXT7hvrDhg1hIDmSgcd8U96KGiWxC395OqPoJypWdHb1oJphhfhghVNqJw40ZIfKqnFo9kYNxcnC0ITgiHZLkPkemLRAltGquvv+lkc5K4SkXAceX7ZImEhQjtrPmcx3C8pAUiOmu0MW08qnHGnkQzWb57ftJG9q7kxRDQGENkUVOIg12b6Hkr8dbyUSpkImKyYjHBTKhh8a/UEmPpPXMAscYAQzKA1NU5NoLumzpzMn3TqNPv6c6538drR8TZ77gGrhwbwfa9udgxdU3df6gPun+2nnA/vBHG748h4a5w35taTs8uHQzSzdgtAO3L2bM1YpmWG9jM0NwArxIrxQ2u/DBSIrS2MMSYTNQBlN+c4pBJpIwFndwQAqKtC7ySZY+e9ySr20qFFxUHQL2L823/3NZPcJxtFCEeotjENu6QkYObPHtSoN4sgvbNQyRmr4eeM7EQwIBvTkikspRodM3Oo+P0/iJoK1Z0ORQwlhXaNzsV92c8LLHCcW0p/ap6+AXFhMZKKmNR0yF8ONAJISCFNomv1Ycb5e9hjBnXRHUTJzc3QlRwHm6RAZQAXXkT0dP7T0Yn1q9E+5SAip2x88xEmPTdfn8MKHad4usc0bZ3wKyNefQZIiMstjabaJvev9WeijYH+v7pg1nzeL3IqTG2hKDDvTtsOyBOdsPRHltIMv3uA7ZIHBBpNh0tugaXfVpy5IwMi8AlE7tPBIdsC5aNMlrBaDPCan9g0hifgPQEv+pX127H8ff5a0dk1d597Ovnz/v9jZBnL/Tlg7C1jYC70PNIuIDqQ5FrF7Y7Cmhwd/RlEdoGpkaOxTJgUyZRk05iDH7161+Nvw5CQbr75VthGfv+wQ9jCCB2/pQ19Yef2tI6QGIhtJpi/AQ99+Jyzup0wmvDJZYIOX7HPuNwbzLG+mYScaKAB5WnA9JWACuRT7IpqQYn0DmEt24PJdEGhhgcGgfAp43THiP9It5uxNuD7/6RUBk7FFoI3FyvrYBR3s9nAdWP6YDPcI7qReGNndUCn7U707WuEVWtl/MuEZ0IJnN4Pwbx+GCH24YANyJUgskfPy7wIABlgd6Z4CbULDCcoIYQDCJIpT/8gCgO0ZJWEJg5FnubdxYnWWMCwYl2o48mxuN2V+vUSwm70ruFvl2NQE7Gg56dMZt2JzrXX4YfXJEhSkwoqyh4mDSJiRnaKYDeuL66sjZVJbIO4enZO7cXZ2McS0mda1OAlkLaURUWt5voIPphY06cnWfm2QW1c+EvODYCmQPfzfG+tnFjz/nHkO347IYT1Z75CT3g49gA5PuucN8//j62e7oPshrAkbENWJdG9+rD4DG61SUUMBGq8wHycQAAIABJREFUTU345IhffFbWvt0pjR594XnAyPQP6PmexCWOd6OBhMCiUugdtpgeK+utjBxR25dM23HYPSB1pMlclsoxJlQECygLHcQjWgFsHMQ7ljm9ebYSFAMq/jScmOgJgdYYLFEdUG1A3eO1pQTPjejZZEHmMTIlguLQI0qRFIaLNIk4YG2UCQ6iS/doFuhrDmVevLgRd3FOwLa44PJ57Qkdsa+6/QbEfGJcF/RehY6frft7d6UJJzM/GlQfJ9t2Yz6EqecggL75TMyu93uQO8PuS2aYEDr9jTBOKJqimntEFeclbjKGIXwQztz+JG9s1x03u8bANUhdPUPQ+iAmPgNvU2tHE9ijI61wiVyp3fp8kauqut8kSbxrwbJIK3om7kfMHd1zkA7aK2v979dkip/CPzw2Lmy4d9f3I5Lt3/uZfd7Ieb7MjTt7vvb9QcLNAX0/IuBuyH7YvePxAUKeKEtgMp3n/KbZENMo39PAExVCpW+0tMekEgmJebMnXUhkuYotqllUiSCQAAWdTGmCgCsL0uAobxrgK2EICj1ct3pnV5/aiesR9da+9RbjJq71PGAAPmOUaAIAnTl4XGzoPUlq4wLN7JRpTwyAOgBUuVvEvJhOyPoqFpJ4OjoppA0YRh/p3VmuVbniZS92jY5mto01/RW1t5BYusQ3keibcXwb03DMz7iHQD6WZl0tDMyKiuSwaes45QFt9SNi2qqNjC6IkiBp26nRAUkcEE+A+6V03LE2duCsxPu3NWtWEwTYkxay8UZcRMOM9lQbrFrxnc6uHtE8OJbnntcO3G3E/eqxeobrg6ENT3/TnHp3dPZ3rf4o2GHP73ZlWN42e2lAuPqm3WBo5xoa1cA1z9Re/TCOQtuMMcwcI1rEoZKi/LhizyEquKA/8NfDyh1VCULVspUpfnG2GZjTcR5Rjr838nl048hWTfZzR8J8xJvz5SpjdmU6Hh7ayLUr2deOv48IOs93c1OVaaRO62SDNsAf0hRrnL5nguIsxIzEEr43E4sayxM6aR+G460oD8o6079ttKxcUJflRhejxETQm+kc6obQqKmA7gV0S+xceyBWH/0u94h7gsABBd3T4PHJeZ+7BNJDKO4SHPj94zXhLGyWOIECMZ3v3q79GxiPtnHIZijEM743yI8byVatPE5x4jZd6aKdpSJSREGI/Lp2XI3rFlqykIVo3fgsCFsTrZ1C7KCGOnADhMVYGysGGhxIUMQkUK5OyKPfXDuWTbECM5Tor+VQQal/A4iQc7lzLBImhS5D08AG4okLVb9NbcYfWx+142L9n30TQ1CGN8TE5qS42ATvhwjm92ExqPyAOCGCZI5vXrUT79IFZzlbsLh9tqqle0LIWTFTu0GUQZnA7QimVTqPnz1MfVgbqF4tO4MVLpeStBAVfV3SGeYyPRl4XLogrjZQuxCy/jjO48NC3kH1D46NI/u+s3fBwhHRjt/Pl7F/T+yoY0QOHODU2o14G6N3ZbvyffbuPOvsr45NSFDf0anvfk6X8zsOQ8zogTGCTLa0GnzdYtcm7VkTJiksPWjM2g0085sdd65kdLhxJR2SXNgovitkaynyfa9oXRhjSVzHuAd7IX1tqcwbkK16JIiq0InC4DPDTSdtRojDSGBrM5z4VqKtlQtr48qHEyhgruxDP/3rnauzZzzLrFyZ7S+YHnsxbgaYr8+2b3Hh6r4TktytntvV/45RondvVnfQGr4VsBDCvCk6hQ4qd6gA7kjURNAI4VMfSyOr5Ii+C04CGpPd+I5hg3+RiEv8ZTxiPQ7pm8frXByJgrcActgmKdOjOOAz+lJ6Y+HRs87vauNrbG8ExLdTCW7fyLnewOJOOxIHcfq0PKCI5hiiWt83Ondj87LNau7W1/8h/X72qQjpEdhXVu3n532amPikttqOwDwRzc0vQ8nr2ncxS6d42J2S3woJ0TxDVOrrwGhnREhEzuXG2tw+bwuFKxGBrwr6F5ZG6hLIjlAh/IxfJADjgv83ZMP5ccKB8xPibUQZ5gGW+5xHviOyHe+7bm6c4c8W4eGFY5e9f3/sfJZj5sgyFbiP/f1Y2P5+vvHD5huv8Yn1RVQgK+iEKgGqJnXEuJHXR9gZEZVPLBJ74U7ADLBePlzZ1/aGKZO+j3g6Kk0DG1B/+XmbSrYOjc5o8O+0HMi7l680WSH/ZVtMW8zbs8S1HUQ9OpkyTKjJCAEuv894kE7DCESMNOlSbxhUCWoNrC2oz3Yq6rfYxrXp56J+wu5yVI2llRh2LyvgEjtN0ilErf6KD9WeWXE/ukrXcIXERmkdRkwOQIwTHZpFUeJfC235Qi00xvUutSvRdqzfELcZosoR+hJhi4iMmCsJboeFzJOdrXmx3tH4TZhafZ8lQNUzVtr6/ZboXPtGlEsS4McVQof7yf055dUWgCcw3LoLqoRlVbgY1WPGnHTTPLBsMwXRyUbsbd7pl7OyIoQmLtuTQlTS1a6/rA120qLzIqjj42u+GNiwC/CifVQYuh9992pIRhx+1buXCgQZ0R9CNcGz7MpEU47mfBJPlYWz9u+IVPv78azP568PDBkvxPF03zP7ubnY4bmNJ/va+fNZ7OguYD/w5148FjQVHyoE4GNObshvRcnpaW8a7JeWtzSpgmwNwIR/Mak3sOPw9teg3S61gsmhW/A1ESHGfxY3tVEMavwoiykxzEQRu2RdfpNucTOq7hojwyj5TYiB8OysPogjAEC/Tapt2OhRY3SwKJieh1OcBnhLCmfn7g1A9S5gArwTrUNHM6H1BfcAIMQzQDTGmV5gdOJ7Mz5W4jvGv1hpkK1mTpTIIINxqc8MF4uQLAAeN1BvzPIoyIAYVK62QP7ZM8LII/vVgYBo+8RvIpD9hlTEf0jAejnRQhug6pu5ELVy8dRWOXXMsXER5aQ8EgFkv1nfhNnhUGKEDT49m36Je3K+v6rzy6gjaqi42wgqRENA9cN8mg9z7ppNbowHv62gAHUjTMaTy2Ss2xH1q0kdY8Sx2oNuXD18uxdjd7jf4NyMrk//d2FcE7XdWLs/BNoPz/R9+vYRZHJ/2jDv/oKAvru+P+ff/UvwaJBwi5wq2ph7bNi08M8cp/4q4axTMHP0JeFNOnv6oIhEt6GmTbQwMH4pCXhwAKKgGMf790sXnz4IgOQtJTqaLAeDxa0mlAHi5p3ExwAAtwCQzPc7MsKg7oGipzx9sZLuTuhS1LsRX2J4v3FBE6zNEHMMMiGBdtJVd6QNZAL0kEP5YhlZOVH3ZQBitCBGmaDGt3bSwbhAII0+44DaeTVH+9rdd5nUrRjYDm7t5ssb0Tkx8nlErIIXEIoIifhMdrIGmsqD+w0C94dbcb1B2YcZfCb7QL+4NS7VhrGCNs6DzPVDXZZMDfHpw9qJwAwC117ERdAAxKOT6/+9fKjW9xkfm7cirMRIxM3qlkECxGBY2Hpu/K3mFIEC8N0aLhgh8I5sCz9HYAd4L67dmXwfox6CVr1WfRB730fQX7dnovSJqhBhg1QtDrfOv8BlD/QDDBqrQcrTzQ0fG/anvtq7EWr/PiPExqj27/fgzyZ2Fb3a7stfeARHHyqS3js24C8sZx7TWA2dfCUoRhMkyBYHe4Ub1OvtSLcekO4PIcdn1T26EB8YHw8O9rDJdogwmZwsUXkrMLR5Ni4pfeLmWiJBUO7RZSBWk7UnXn+uFFFBRLrWfWbziXjpcA9wCosTaMy6OSvYa98SCxOrQjr1MPnjpCZ5gNZE1F/fuRZuFZp1LU4sSgMSotLcENJIPNPf+mg1xBXib23ttZFPIaOAhcenqBqEaFIldnv8XfRjD6tHPypzsr01HsT0W9UzcaAo/aBkXxNxBcpPO+vhpURLFstZK8j6/DZdNa5jvlhK9Uk/EZ7p3yDBEiHNJ9GYFDOIUPmyxI1vN+SjBlg2hYsbSyswcGyuB/N/sXFZSLVE2ck9WnkQ/eWoKIjXSr8og4HVMa4hHHKyEhroyzgyQjgrP7o2Kzxqi/DGMebpQ/N7HRJBuP4+QEIzMMPov/l3hmhzzbidzucR0PX9AQuOzf3Ao3sb/qevf8WBKHyAubty18837Hhtfz827peGEDUJEg3cbI65AHfSwgfg/HGTCDbgYqYen1AKn0iYBQRZQBNR6CUophw1Q60DALoAJCLmspqaPLGEIvhnW+4mhFna6B/bZjeoiWutLXSp4RQBwGRtHnGiyR2xaq3GGI5Q3eMEj4sBb5xtIk9C+Im/xJV7nr+TPnarugHpu4B10CEkQfkfJV5x10iFwRB1K31xyqh/Wxxa4vIKsdN4S6nkXeUXRSYYahhpbsQFHCs4W1buREnW2paFLbcMEa43gran6Y5PQ5K3uHbtvtYYrdUNL6dsS6lYqSdcr/MsB2vspk0NoTJmEXQWbfcYfyS+suyKnkoE9IGwjC2AkkTClSR2E3A6fHdvvkdgwJixFQw+BDq4eIwL9vzsrVE9M+fzSshBougsXBECIjMI5Sz7mrlbUUk4+QTyMNzUdqgApwa9/AdROp8h2FxayDOPnL4fcWBf37AELtzf3G/30bXj+77/pccYZobKnwrZ2L2x/XyD/N7H8ftZY6e3AFacaEjWJCnr8mVp3RdgM9IYPIYJ6raoh+I/xlAA6VA4osr4EU1gMv62yu3lRRaHQhrAC/ly146BgEjK+jiiziLmRXQIFqDYYDzoIzG5aR2u5rIg5kz5cZcJ9WpMfEZsNDZZ3EweoADo6CAdcILBAxwWVHop4472zOr32gHAIIJtuBEPeVYAISPDbPTZs3duLuKAsMw4ZUwaEZ5YVyLgEz0Zjsvy9ypihTvOrrwhMlmPVVEe1gm0rh9+6xcCMGsQ++P+scpg4j6rH6I9LcfNVfXVVmWyJkoSNVzEGI5wJ6NAbp/uf1bS5ue9Y9Ezo4xEWTPI08jlZ5zlVl2XE3WknBB9wtzepwYQg83PEOBSVFTOlbjke6tIGm8JhmVJ6KGVbAvXbSwIlsZksh00Z4wwTOCWoj193tZpBW3Ixi5MjlW8ps98DdJpGll1sZuFkJAIMAyW9uk4D9cbHzYsbDwZSQ8hH+T/RUfceHJExlXyn/+fZDEAtxty/L5fd203cn/fz52vgkVqdmvNjTD6BEtonX6SCf5dA3etgcNZLmW9vH2vhZ2PbAV9e2JBbwV4lHMThCNS0geJ6XsZBCbKf8z3IWvXGW6ISaikQb9XecK0Rt4ndoZExn9WSZTmniMeJwM8jEQyuu3+4JLvMrubmd1XXBVS0bIGCWYcKtG5JyEfPRCAWL2uLdot/QYfII4QygyAAX5iNZgl/uHesqUN8vZd+xlsiHzRnX4T6zWw65ULFF/lriESQ0DLgmYrAYAN6VmjepgjHaJWMEoTYjmF0MpuLnA/Ke49K0Cavg1ZRLdwmeg//XZWnsRWLuf+eM6v2nVALxxN3CjrsHG+VoZuyP7UUqSQ39jRaXEpLh9iPyHVuCMsK3mVcDd5eJ4P4YzCzk5N3/7w3YU7nc3/lcZ+0j/WNvN8m+RQm8b/3NyO8QdBJH4mYbyReAv2uX+C50VMwr/aYHzneu2bMvzub6zCp+eP8O77Rijf9zPa7XNE0n1/w80u5y89n20Sul/YyucWH1S+AfVY2ccaMZRhSIsz4rm4j3VyT4uNhIRZ1ktN8HDpQN9/FzWPQ/Yw8fTafZH7ojaWUWQshg0yvQoHVCeDCSSXM+VVcYr3ck18ltEGJZRWnwGBa0IbXgRkfId32kxTxmehYeOr5DMJYBCEHdcI2WYTks67z5DQujxUlHnb2OjfGGVQ65AKQeCwn+tEsAAN8usDcVqKfboNsfZeG7E8ncRJ6Z8hkXoQidkvsDKlQFQHQwUnPr3LhOMuVwfR4iw5o7lDIOA4zXv/8qW18oP4/7S1iEL83r4EXEtEepe/ztwo85XxLGRwFlA3H+MiMloQupX6fLAs0kv8rE+9R+SFCLOdeOMu8bC2QDDlap/QNMjnb5aDnazUiNFYRnsWV6SK0M0nrlP/+9ABnSfLQhyWmD6Emg7Y3o9XI1bWjMooh76PGFurbbV37WZL4FpzeblNSK3Tn0XQ/oV12tdwzvxNON0Zsq16+RP1HlzN3HZff7bIueFgn48ICBf2sZHviDu7jONzf+z72f6ER2Q7j2BHDN/fnc9/DKQ/mZGFjnG8EzFntXTXWQRxik+yehpNCW4NtklCoXEIQch0tTH5V8bUNxjNbzQ8bqj0CqWqjq4BJmItnXGIR8BHtJmQpABDwqJBCkBnwCtjsnpVGBFwuyWOxMYgQnjvod7u4XqCkxkUWPNEpYzoBRmq18oHKfufRDxYUMfHFQ7jgIwHgBA3u9mqcNcQGXqjsuc4AcEv69viRMagW0RMovnNOM/8rt2eH7UBgakNT0MSWc3t9dDADQQav9Fd63SjNZ81oM3UvLtWfDB4ybGD48rXg6gJqhD3KlbXzknKnFw5nWWZ4+ag70pCxSUiCH6IaG1ZWdA8usRkOV0t3jVOxsX8mofx9zWOEwzRMMgvNLlPrXio/TdlVWhcx1BWWcZxomwWnR3pSNYDOjQpyeVlLIN0axhGNG04Bl77voxOv1w7P++ec83Y+myEOs+YKmGOj+HOxpP9zJ86j064C98FOu9CzgDkUMrx2hrkpYNsTjELMhvYl4kbYgdNzO0m8TnRsoElPrx70UYrcaI3KeTqh5A4wvjgJlqEExzIcPgbRaO3AOdZHO9SER+CtmUJI5Ix6uBK04feGb9Y31FDiDT5XkKCq02qLbdRb8/Pspeekz3tbb5GCIfiOfTN90n3Xn8mdrIzDikiY3bmVW7t57MjolkNMPVGCKx3tCvtGDgCpAc//lSZklv1DqQIAWzhdjndCOL90K64szpCuFyiIZM9Heh+4rq8qpAeZ9JmIyLwQPtwl6fpbeqkn10t4HtWOKQE1oVBNgmd3va8C+bPjLGuYhFEOn1FIGedZs/rKwCc8L0QQl9xXu/NWDSPkO+t9JIhozEYazBuqNI+EI1R5hZfZy6l8R8bj0ZcbDDjkucQAPo94n03AvW0LbIRKTqgvtIlzZEwQtjH5XIlhCfSv0pPFhWDMI5K0RMjORDlvXRCwBP4jL7rsv838sxPV2rL5mbOA88n/NgiqOf2tY0H53HF74/hza7n/PlsUe/5G3/s927AsaJpRA0eJOmPSIB+68SkzmuyLmUVhAyG8/VrCvuVC7///beTqYzj3ZIdVjc5QlByWdiU9zb9ZoWK8aklFoWgqDGrnk1ilpgkyiUrJfGyd3BZgw0gR5yLiuJSe5U239j17vPB0WEZUF4nul7j/L0pzjUEq+2TXKryAL5rolUm1WHANhQyREed6ScCqhleLNfC8S73mw5mPAbhiVgBHTcIHcv7vvMxjohcOczxIzH0HmRHmBgaGHNupsdd7h0iJrGShCH8TvvE1QoSn4iT2sC6aGPRGb+4zjXv9jsNfcTPEdkqJ6l0EM8CXdnoAPKLCNQk6e2+UL+bNuRETGo7QsLKmjyexJJom/HlysXKbnwmIKEhR0D4NRFBHBExGHdEHwHml8ciKp3j4uAkFu4a8PNJQR0MXS+frdhPafHV2wNDCC325XYR5H89ZB/fJ7HTGDMkcdDXBm2ZLp4HYgiIlnd9ZKoB2yU9bYTciLh/YxBjSVfg6Th+P1/F3/L7r0JCDTsi327oYD3Ea5J2L+05MLsCRfUhA4r6nCk9JJOy/VH70/+mnZr+/fe/XxE1DbbdmnACPsFZGtMoEaVMBH0gCJqJhAjjhww4XmZwke/ySqKIYRIBM4A64E+KjTgYwLiAIACGi4lS6ZrQtrEkjmQHUIiUdKYlirxsAlhecRBp39ULOYigKLTJWTpb4WVx/ScRmctlOqP44gLLgioKKL2ptiIYa2ep07Ki2gdhJZZaOmmWwuqfXanq/+24xaXLXC5Es4CtvoxVt/dE50CyCT6vrssZViDUi8d02uWjvMziGhcZ8Q3waXevDRD1e9wmoCakuvSudgPqPp6bJVB0NZy9ORipBCGprsfWDBrXfk9S4BBCnVbImyMIw7jigITmYDhJH+L3q4uJ9JWJa076/Nd066WhIXY3CgKALOPq6YsMeIiqDAuPnye21t5ZuqTfrLu4WnWNYWbqHKF0/h2PKVPX+0xcajc3PG/OdYRpCLg54PG5o+T4YQ1/269Gfh0bwY7F7Abtax9DQICxJnXpXwDufT3F8bZOh+vRD2/mS3ONDH87KssA8XnGCDjMqikz98v3IWADLECbiDLBzTXAMhmi4psrKwpf22aNYIhwpV2broaEKxNb3LbJHXECotKCQuz3grSb+PEFVh5E51/jf7PxzLWQh29SADQdC/DSAbUX4rHsAfIlHgVAiI6+aldcFKCJ9kBwWEQn/woqSucaJI/iNvu4Mu4JGbT/lkxkwYy6xr9WOyybEofJ4CMkDEK8zrp8TZ1DwfVgiUqzdAkwBrz0XO0COOaBSPY+uXe5H3qP2FnftHvmrUaMcSeMFnlDQrgdMl/uOYaM943P0idrO24N6SNKDFxVMsDuD6KQBupi5a1dlrQlNjz62fXbbfRSn75veza7KY3I2hxrsxC62Y0pqeNx9+9+XlqTxsVuWlwRK+vaErlfNIdEfjsvTzxr5ec/GtjQ71ka1cjwFw5xYR6AiydkdF7ouhDRDXO0xU6vbDzY8zuwbbQRncOxkfaDi3/jjzHMOHZl+/exMRsZjxUfrw3An5Bx+aCWbA4ZJK0N9leawwD/dRN7tUFESSeIOar7aWbqBVbN7XAXeg8RaKWsmDjFnv2khFDbmDNhZSG2sDIv0yuEshkqyDZLgQbYM6gQ1QJybQagIy52HiQNcgCFyI4bEQu7Pq1cJQEr6k8EG9HQ0qV0j8oey2hlEDMnDSKRKkCcvRvqzwQUVPY1LgwiZkhCtN3RPtss7hqn9L0QcXbkxU3iik9Lussa+EVRQZCBw34TtBFdK3u2AoOMwciY/nsGgvitb4gCSyPOO+4V89PY4Kra7rMBTXsg20rE3LwQgyuTSLlicBGj5cOdhFczW1QFo11bmtPQPuPaWleIuIxVu7u4PCI1VtjGay+ypgZAiHHXRHBx/08z2A3SpnOzD7A0A0/rDR+2VYLkzjggKYH6gaAxyIxhrQcRmxXUWNn8nea795veaafxWivq/UbMPkQ6Vzccb1+gMVLORsL9+zy+ePdvPT7IMaOQTd33+YiMu5KNdBspPbuBxLW9bfHjEOXnmZCAq2St76OWrxIfZeA2qXJPinr5rvusqdeiwrgJf94NynwDSDyym1AjHTW9N9RRuJQJuP1J21dbAnSpXZ/6/upxSNeg3W1PieXesBW1vJ5ZLZm+ASDgGm4UcvWdKPWkeFJcwU6zk9G6+ibkqvbZDdhzrIR0JYizkHGt/kcMhH/diUg8KMzOioBJJ48qB7CQBeLwlzIk3EnU+vGHHwbIvats+0Lcqj3PErmliPis1P+MPzjSjUQvW22vpU3Wzz0dXUh27goeHRQC2bzmkySCH9psdUeyLEJDLF67YeFUthPHRfn1AO0tREIQBRHWNtoFNZBjiLuvAHB/8fnE3PyAIYHwuqtJMTJgawtL7yBBpU5S39uf1Mc7rc18kM7bmr/aPlsfQNj6I9O4+FXE6WHL3F5Xzmf2geweiQPREOI3Yx68MOQ8ao5tQCrgYDhsuiFjnT0jLbp+294lz/LTysQ3HJC8KRxw1CO/XUxorVORg3q0kBOR9ne0gG7xc4pBAU7Hhu/z1zcynj34N3w5yzGzke14PmL/rnxTBeePIagOu34t4H4WkNlb/F3rzT75NCQhusQFf3z0YCxfQs90QpJZS4ZwnrdZ+cZ7E8V7GRLICSM94I24HqMBZR9XNHDiT7kfRgxrAi0Yvdm6wxHNDLBP7RnOWAeat9OeFquN/I2zIpvy3z0LX7e4eSNuwB81ImiA4RnIZUxmP4fqHONChygc1HZM4yj+iIs41Emhrx2sjTiu3J2QUTkmHGG4ldGK2eRu48ApLrPc5Gapj2PCr/X0SYat8buF2O8S+TnBcXpJmMCLpUYouP4y+uDSZ8RUO3vaZjZLl7WRp2VAcavUAgjE/2hscUAGtev9psO/fBoh7TkI6N0Xxewaz7upFy9kLY9QESe1l3QxakJ9lrLEGHFv/PvvvxkR+9LVlRnhSRbQ97lrbgUPt5MYtJm+PkYekkpclf72LHiAXEINZxFxH1bUxyEvNwpiLFBBSFu0ZIjBWpFDdIePxPYFC4ObiEHPL2T1m7HrF1g2Xo6NgEckO177KOzPm3/9MUi4CzzPcnelu1j3XTs+tyd5P7PZNU7DLzRbGQcgAM+egcREaQTJ/2s7r9YGftYKCYAdQsz+gCGndWxDqbNg3o5yElHEO0IKFjrRHYwme9CGu5Hve2f0nBMSzm6vXUP1hsr1x2yuH7O2MOooMNzkzgoHlkmIARFCxDHL1xbvngEoSlp5w0lDNIYPnJN4Os/3HZHwPKAlJiIiMGUynwVknpn2DuKuEL0v2+Zr7y2hfd4f32RlGR/l4KiTGvBUn35xNfC3AmTi+Ra/j3X4bg42gRqrKAkmwBSNBPi958CNBr0LNNcPY0vXpVtzN+GAnqVfP49QXs54xC/Ih2oMLeC9VqSNd431Z4mZ38ah+TkRSwTPOBHxJUEWaSOOWD2svMbMXBN2B6Ea+9HTB2GWaO2ZiSiKfqrHfENiagA71AQ2IYwz4wvG/VoQ4NpCwA3TxuLIBffYGY8j8h3hfN/7b+WGZ+KoSjfgHr8fK/DdPYfvu9GunTW63qH4S99aS45QMFTxdYg52bgyFhgMA0m8szRmdLzM6HcTYV6VnoAPCTeCDMQtk+JAHQGbCfs5Sm8FBoC4givVJgPvvoEzsJ7bgzj6JiDocH3riZ4zoe/aEk3QABF09nIIGD3HJaEOFB4nGjFSqNSJgPl9rXdwBKsaFlVfaQB9ENLeAAAgAElEQVSHSJwIl+9Wf+D64xervAG4JAXjMYHTtQ2ADhJXpw8L6AAlAOs3R7nvREhcMCye8cf9tHfGNK6oPvOkDmOwz767Po73IPZWRg4EST+0fZD4lMZixq8xVb71h+Z8i+QswtqDG70oUmd8hc315ogkAc516fxHNug/z4wYG0FY1t/igp+sLAvjEqouYry6EDfRNOZMf+nH3BDGRND8nRu5tGyjR7SucARqYEBVjclIVKMHjvloRFPI5wEcnl6p3NXuDE3mat6d1p4dfwrJ/tS9Dwr5Ez/OXBS7MGefPVH7u99HijBU9NRo5/28bm4FmP9NAPEo2P2NrjKGcYCxYi69K8DaoEiUS0ejo9xogC0gReVflgYdIJikGeLeuS6pUe8B/FulZLCCgRT4yjbSJ0IBYADz2blJHVE2QHPs9vtOf2ABnCU6IT+K7l2Aqw2zF0PvX8kRLjyNeLTDzVj66CizF/zlFY62EcB5OF9tPY6fNikbIYDkt0JeIuvzU/zqtSQAAGJDGKZ/uVOqZsQ+XIlYng1ouCIJYnPqjUi7LmeEjGjqnjlQ7xCu+jP9BnMVJi51ghGSRACz54n8YwWtnInpbGwRKG0jjZAaJjNcn0t24AUXYdKspazBEIMVE5KYQ2UYV9bNqpjVNkTfm+m03p32h4RDoOmbrNrqTfqxvGstg4obR9Qn3Un/9H1cIYgSOGt6b4BXkAahembg92SYIXlEKeYawneE5Q3nRxz4E/jz/8utMxfF+dI2N9wAvc8DsHXYZ0+0TkwsIDLTf0QlKwSFqzFNv33eoOeUf9nWzfcTPy7lEH+aTC+KhSP4019/OQPNWGNw5dkUD6pOljUUkQmdvP/z/8fbnf1YlmXnYb8RkTFmRM5ZQzfZEsUBggdBgOEX2y+Gn2z/1wYMPhgGTRqiJUgUxW52dU05Z8wZEf5+37476mR0VlXTEHwib95zz7CHtde81147XNVAmJifu/Vw5HTeJ8TV1BoQYM0glDEkwJAwM72hawBtEEg0W3pxzJgLw/0n8SISiGsDGNewEAi8cT6CEEwgdx5PVEnqmqswPAuhfM82KJeTwvuIAvzcexY19MqSozyrTe47KhFzvyFx+SvipwzZpz27nT3py2AiHUggZeqX90jc15kKmuXM8QMXjMg3+xVj63wrZ1jOq+qn3RZTj9AzEkaY3sgmR1KSZOo1ddJg+5wfZFLf+FmJwkNsLo/Hmd705PnzeDeF6EXaZuzs2kTCXbGTQxhz2siKehKw4gpO+U6/2v/AgboJDtTl3SSJAgP4gzmRnlLjC3XzLhgh+jJt1yILO79L/w6x6jsYlIA9j1hzzO9JhL145/DMFFqfujevzeeW3+7dJfCPbMLZgPngrMgAzoJmo5eV/9AoSBUwQa48ABkckMo17xrorxMt/yDc+cHjJAXKgBvkZtmquSBGMoHUqfOCZ9WURhAAiCBw55gCXXbjTsrXRohnxQUb8TrXSBaItlRLldE95oNcCA9BOCaRNDtZPk21XzUvw6cNYRR+10FjMHHPPIfwcN+qbpB6cKC8Z2CHqq585WgLSei8RBPk0Tbf3u+URtpuTpF6CFbaR4o0/CzXECNmQ9pW2rDRcg+MIdGS2MHDb/fVSe3Uhtlfz1ciRsI71NcJ/ZTpOtPBxDi1z3iBG7u0zhF2namC4LJ3dsN8TCVtZrfelmN8otp32gcWBB8GM4pzi+SkaawZKCcU7wl105yx54ZQHtqYnavslagf6chgcvAo7X8Ypm47dTAS1eMw3wj/bH1eJ1me9VdVFF76q7TU1QGbSRB9tu3/QSWd95Q9z337LA/vzfvedw5XZlnz+eV7y/NbSTgbofBPvTwL/zGugXyUUX9hGmHK1rSDeaLs0dypCNwKcrFBlIOoAP2mLnTZ0G5qqPMWTqmwl+DhSqsgLdWEx07+onJHHHCtWjY9Yc5JSYhdabVGeoNo4D5cZ1Ht+voE2gQGTx8OaYSmrcgZwiNpwfB+2sFLl7EsgD8U2UJUQUSr9j9k7WSRKDBwzPY7RxTHYTIOS3a+i5OiTp7AgiNF38RXIjRqMMSC9ODY5UdBWgt65aXpig30siYgde5mTR6JoJ3KIlm6/jL9VjdY61MXKK8Zl+fMszYiJqMAXtrMwcMpUwdP6iR9t6O6zZT1VPHD2HpgAxWpiO9j09NeCue0q5ngMqa28QZQMbCuk5QHSabFydK0H/kIWQOHBneHCYiI6hbludeYX2OaNoMPO7BxrfltmZRoLO/uJUHYdpiwcWnirAwBnCmp5JvUKxGuvdZuNGghDHPiwZKQOlA55rXl+RzfJf4szz91/27Zd3HvNtHT3ZdVbFAM4KeI0vM+kzgBgP7tNyWEC5g3S8pzhvPzX/zR6l1iRQ3ew8cPVi8zVyYtA45u2kJw89Ok1DMwX3/zdSbm7VVvqS7bI6pGJrAhS72inCMvvh+cfM2VhIUh+AxrOeJ0z+tH4zMrUcYatDR8cEkczAMpo46M9PdxOKz1d96njhkssYoW5xrYpuEPsZ5wJoT4GqWR9hlodm6ROwiPyPS1Nk6uYQKk9cuXL28JFaJ7FoIgNjgCHqeJnRQdBCkPk/XNOHBuaCeuhcwvwokQWKVs7CrMQD1lEPnmpMHkIDDCH1JiqObeUfebTBOMNY3D/sMkj/Ls+auhJZBOdYik7eryzjdZfoZg1cPx0vw6+SMxtUGZYAbhry8tq0q/894pWGZ51Yv031pB+Wkgo/H+PtvPiQy6yhwlc6RHrruG2XJM1T42BRN40ZrOMjfMptWWVwmBfIBgg2+8qf7GwKYc8CL9ouEM6R3GmTKb/TzPOkY7hgScEuwuocznfE/cn88s71VbygFmpQlMAJ6tv+ez85rflYTLB5a/lwS2JMSfakQLT2/ZTlKdIxwdpiYYxPtZnW3yuA6JqC3sOrvrlovleyteuUC+k7Abtm8PQkmJgWtzflBheOQaZBzOepVoFe2HiA71d3XEGhmLqEGQzv/xoCa8bba/g4DJQO587iftBO764sXLQQBBZNaY5TU2mCnCx65AcAhKfs28PqRukOY4TqEpUfRF3X4jinp413ZgCS8Hwie1TMHwmGoDiWEagMpblQ6Bl3OPJUCdK8tzyvcZKRLHfhTSMiIK1x3qRRwkIHi0vzmmzescg9lJmfok/O1D7EiIDCTKaZKplpd535RDk3DT1AkC195nyYCHmfEmq4+tL5O4dxpBlXEaybuy3CgwxFxeh1itCX0UnwHcEuQvf4+QPU4nY07JnJ5LfZnxqNJtVGNI4IH2HcQhlISqmcKJpG8Xgw8hPMySdlPmlrpivneVjkcQaqWl3wh3QZBKmL+X1517/lMEtXxuSXhtDWAuvu+el/xnI5bffWt9TAKcFS3vzUbNayWIfGRlMalMjQIoqoVBhCS/+c1vioBU1L6fzlGlOtj5bfmP6AhkZfh513gmxZ9WGuWaDGYGxSJXkS1sAE6RuvUz0BB9cnDXEARm0Pb12UG0wFPg5tvAT7WI7WO3IDYrxLcCvPAhjAK17n9ncDGFIBlJq77Gya5tMQRYZ0fqngQhn6m62WmNEEnfZMjeTibxYCdqSx+pbjzK1glyEkEb7IDkSAyrPCt5diOrH7Yk7k2f9Nn37Lc6pko+ObJ72jLbh8h5feuYgrA5/O7mnHmW5nBL7HlmhqOR3JS9hsXleXZebck1A0AAAVbakrwzgd3wLA+HEGnpwJzduwnsrvWFeo3ppN3GFZHwqht7ZSvPol/M2PzyZHCYlDaaMrKeEf7MqaOOc9qirKqfJGC++2cg18fE4UksLs/zeW/i/qdoYFnOkhhvK/iZk+D0D5zgLhEuKyyirp9dNnJZ/uAwuEy4bZ4vAkP+fEiSElmuf5HVE7x3BViAKF8MANUmyttsLHkp2ZQkzv0gLgeFwF2T4wApHYM2ATxuC8EELMvDgtNPInNOAmEAnh/EOLjZBPR8toMZBDyI/dfggrSnKTLSzjoH1gOprXWbB4HqoMl9nfZMXfO5rx6HsiEBRuR6ESHP+9Z/dWIOlit1KoCkw7LLtVNAnhnq3UCMrmZIPd1aIGUIArBnAyZB1S0c8qFKgjGVeHkMu20wDdcrYXGTdbnNIZrrJftcg8S1e/Mcbyhmh3mUsIvMI13HrKNrJXN/MkISlr0KHvXE5rcxryYExpYg5dMF4OlXp7UyTn7zrmqvsgqv1NV7Ac4cx/oZUp4ySWJMAdjgEYmehg6CKrwDO4ws935YZf8ReH7yx8SXu3Qxf08aUcjymZ8sFJzLLe58FDC5593zWfiSa8xKKlUUGi4jpQIOhuE0+1kQeOyIZBFugBWvp/krg9vNYKgXQezXUcuaszN/r6Prv88ksPhLm4WSGNzQVMLuR5G63gfZHGIZSUJHJ2ohzRrxDVA5M+9ekGESwpKpaHcZRt4zqFRNMJjq5Uy/OMoPg4ndVlXLOGfwMRl1CFB3KFv/EQFkgjSYwbRVIdaUntR0HsiRHJhkCvEXmZI8OTCi8kFe/e245LyIyJuaw7wm+w+Sk1bT4dPNZILsxmxKNN9+z2tg4RrkVq+4UPapT9PKpx+8v+oSaK6/9hXR524vl/vCCTFLdiiGw+uKaTYXacocKyxsQjokp7qneqmPkEaWcu3GdCYDY5NrP5VdG62SkVv1YB0+h+jABNxNZZHEfAadpsK8ysAG06vsXl/rS9NJUwj+/DFx5SOcWcPR25OGfoo+fqyWEuEclNuGp7EGZ3l9Wfi8Pgvt7/zwwWFwVgtLcSmI3UFYA15eSepG90SHIKkLkK2OFkVRNSPI1N1sqUsIKAcniDb5TVUyKN6jGolwEaHf/QfWQF+2Tb/q6g8ikVp3+9vfqUu7OFIgQ4Ovg0DsCu2vPThhlW8cFtGTlp0bRDQpe9psoDFhpk0m9h2IGnEqC/NBgA5SpxNeJOG68XUypF3gessU00+7KfntyZHoaUx7aOM8wNYzvke71mrgug+FCfU85ZMQ5uQqsydiuawh63FTVo9ctAC4Ws36+Rn8YOwavI6IA0fzeohgwq4ZunUxzxnHah7eCUzUC+b5qgcU3MGKlMdYaBjd8z5jrb6hmayjo9KSuZhYkysBA52hVQQnGlWkK6N/VNHB0n64Njr3+//Pd+ZY+p6E+Kl7y+d+v7RPX6k66lh+L8+XSO36/NwO1vrdlqLzkDw/mDH1YkVisLV8DM5pwtamjVbPWoD7bTxugEQVbKbtSCFEahelDn3KNMELtB2sEAnbihPFfBGkNtCqN4lvsLSzkjgXJyIWkYMUS8YzgeZlKyCoSOa/hFtBEIiCgC0c1o7+5duzY2KepLdzEKQfzifviYcEu0q8fHNOTLUZAimXmtb5sfT1IN5CjMe7PsMRM9I56m/VyLRL2xs/mm/lzhAx5UFaWoLn/db/yUyB0bmjTEaZqQdMt6i/6ZdxO8740BimpNaWmQfIt7HrguuURVKRoJgmDUVoXb20iCl/XWGfdpD+2q2sOYZjmVIWMMdMQFT37TkpaiiOtgZnhMHSImoPpl0y5pGAxlLAgmkPqisVmQS2CADDYn82cwCeljbStJwjO1J5eLlyfxLkGqcLmE8cS3x3fpfwvLK8dvd83l8+t7zmvOsJFW6A7kqRSYzzmWUFs3G3hedkNpLeLaHRWYBlJYUBYt8IazpMWkKewJH3JCoj5ML983kfoEv+2lwqud525buEknNq2VxoazDB12Be2f0nywHsuCPAEBJUskQisy/rDMhP108bg1pUGIOSb4NFHeJKF5fJSwiJICnCoB7Xbq3TJG2tUU/NGV7FvFpua+wttVIWueKpSsv81g4qNg+eGzZQeRN127m6MCyIWgYBlvnoq4RWIlL8LgPIuQfM7kmnYZdbCX67EiVZ7KRbVAIGZzzrGQ38qvrmfcSJwLukK8Tc6Bb9gAfp12a9x5wuIqPDYARJB3c9c0qS5V1qKseYafDuBZm2caBIsDwgR8qmHSmTVJP9TZ3GsitDMADvhSjaV1pIYMT5RhPQU3O+YDEy2g37mif9fTzQ+myVjXBB85OI+EOA/+sEgVg6J8Suth+8WX+spjA+Q+Lrz2CmE6dT6SePybAnbi8f8u4cM9+zzOW35ycdLWlmXnP/dinTJMBZqEEr8q8LuUuIy+d7L0D1SataqXhHXrOdJHO5CXVsJxaUNNwPN4Mgluo8zPmrNwlmzrqwk9exqQKkd8f2ORgS6Dh2orLYaA0Ly2hTY7SteUrDHV9mWdQzi0EvBEEnquY4XD7IgpPjildJ4ZcLRWAMHxdHSA4EUqdHMSHr1mJXlbsHUbiyr0J4w57Ms0EwZWhkN7BJHTyVELSDgZTyfRJJUtix4VI2ApQ/k4XnuoADzoO9TLAHezpf5llB3HWZpwbNmf0kSTAkyIxYSVQdwfW7Z2OQ1n2qdKVS7ssnw5M4lzZ1TAM3qjvkRICk5oxEYscO55LcosnSHYZA6nWVSVQaUwdNkJUpgS79ysf4dQvqNNgcrbHWcjtB1euZeqo2hilwOnWVCdzwDnUwbSXVjBNbkRS1VXcdOZZq5f5hmCJb9DSS1Ip6hC9Er7lx9m1iE5s75s2bzEM/SZDH28DwIoRp7DbT7m6lxukKqhnywjWnmA3NH25NIptaAryYeO98+dv1+VzHHFzzcZTJoYE1cbs+n10S4SzzIyJ0cV6YhDYrXj7o/FP3b6+nUTppMM+DsCQgrnudZEBbW7xiMawj6aQ3EPvHc/o+nswGPWewDNRe1E/vv81clU48EJoU5IKYjzKJ/CYT9lZimF+8j/DynjkuhrgonOyKVsdB9KO2lURt/GLKmuoVeVAHQO6nqurNBVjK6VKqXLfpiWU7wYccQ4qQwtSjzlulRbi6uQrcmFRrP8JmHx4+7JzYZRBkN4jL5sN0SCSDQs1VP0K3UPgkk9NSyD8MElX1zTMIkG1dT2KlXGxkBJFrwbxiU5lKkd2l4fjRnTqK1uV016Mgur7Ktg1d9FP+ULbvRBT16C/mUBszbbiJeg321QgKqBFVo2+DyQyb1LvabNLdM1FKSuyUBUROMRWALwTR9ar4NA1wTr+pm2xFi5TLTFL+Lm8sNdh5VE1rTxsFQxUNE7Pbb0Pporp6p8mPwxQOspj4Jsz6JMR3H4yqsUzNIuf5Da6T1QHnEsfzcNu1FDDOwWk+N4muY5FjSXh+L+lk0svy++4zfn+0imJW9imi9PAszPn8fXutA9WrY9ACCOWZH7SF1c4eVTJzeEHMzYfpWBbj2t5KKFljNANwQbeWApUDA3rKGIHZUXOieskT0995fm8nsaJBGNMSCKs5UYKgOasaKbTJnvM3V1FfgpQK7GoD3C+AxYWnhEEUWl8bJucl/DxHWlCXtUVfuv2YT9rnvlXf7IwPafdwzsROqxNgEJB2jkFHNINwihZpB5WOSk6aQeTtwIeTxzkJQlqQGiQBLyQFF6wNfeMi85GGUGY20wimbhqkgLhzfW4jhmj1iccS8pNkAVDXLVKBt1LvnvdIDcSR94WNVSPIH9hSGxHK/r0kHU4DeEvBiLRSH7gMJhGY5L4+wANhdohTsATJfCOvbPrGdmaHGiPOtW7NJtgihVu+Bt7sZdMv3Vcyv/VTFE61GOORcvS3tnvK05bT9Ie3fCOJxKDjaAWSGwQ4BmEQIpVb2yYxwVzHJKLl+ZJQOwYauH7WveVnlPIxcc/3l+Uszz8KW5uFKeguwS0bNe8vK5yNM1FaCRQAz/kbaSqoSfu5jgi6kQfYBuj1nAUh6m7PYF+GY4rqhyS497C7smIhEqOOjQC+m6Hkc55lPvd2o9rlWiKkOjDxx4UDy+A8nDLTgUFmcHG33vyRuCRa55ZSn6sjkXAQn7cuVy6zIgCRDE5PzcvATT4aIiCxEGe35K4mHjuNDUYS5X1tONmIipS2QlJStEwk/ZTprSFpqVt0DOSBSOBAtRSS1blRBIIoTHMoI8hbtT8fhKV/nELaQtpALJuJHoTZvU5onZ2r9KXzkHoJhqkPwyENy5SC6GI4ERyCsLwIFu9EMxmbnlL0TU1kVX2erb1GhcUk8rxyqXckbZlQxpWdz3FG7jQQXH1ZY2TcsCPwEPW0nZhd6jHpVnJJvfpkH0JESGviHWVL3yC65Gil+VRtTRuq7gYWpkOuMl5vk4vGFmmE4JyFyC8d74WReuUHydaOLQ71T2k3paDvid++p7AaeDFUUEW07bm//L5b/qd+34atLaWg8yW1zxddmw2b92cDvQNRzmI0kx7ULyrF470sW9k76lIkntIP1FR2Gc6rwQEoYCGwet3yzsNsEgr5XifNuQgJ3jrzivJyHkXFYoOQogiCZLqftWgJnC+CQUzv2sSFROiCXISe9sGSTovASs/jyMowfxiJ2ukPDIN9E8z6wOu5loqMn8sEaW+GCEhCR8OibBaTe9q2ilQnadiqxt1cG9GAociiRo2jks01fKZWjvVZu1N/F8GGgMZi3xBf2uydqqkpDzz9RsgDkSP38zy7EbPSbgRG+tlKzDcmJ1Wj8ajdEuL2ui0DSN6ttI8NjUF0JQkJmTxAVc2z+JoU5ZwizRCOsWIfm04a2RLM+UYqcvIE3hihfKjyAFEH2YEyE8jZup3fwtbY1BB1O0Su702xaDwRU4hUML92NE1kzu8ndw7v6XvzhBk3Etz2ArrYNZ0ZP4zAOIgzNcDa2fWDZUFrQqFd9HcK8cJPHFNSTYIyFnfpYgqtJeHO53+i6N+71b0oJvXepeB5fb519/7y93C525c8Ee5xuHwvuU+4q9UHNmAx6N2JiC4fQOwEQNnNi1kVBEyi2SAkOumeC6mQNCm8XAT5/D4NV7fHnsGFiHsZKMgpL6WlQAAvTwzC3eCYEL1PeuW6yXUxjeXaeY+6Yw5KH7ukJ/qsnYjOsukkRwAEM1F+EE5NonOHB1vy/loCpUnywkB+EmusJySNrGoIQVbacQRJdBtiOEhb07a2jxRImZCvfQoB6xfHURh7GFnuYSKpD750+jB257YHcgwnB9uNRLH8aCSxaohgmAyt4SySxZZnkNWUjxSP7GbJtDAPDpSuAQwsb5Ik1sYuHyKpThKzK+0jhtRt2cr5RbTgWmGEgbXMcnZmMi6k9iDCtJeqm2dJ0csz0pBUTPlU7tyjmpO2De4OTEjHPp/78ghx7pxlXHcDH2MoZE/fwAtDkQoxHSxhYgJnKUPd8zAO3WpNmzMukGsQYWVs29WNav3BrTvHXcFTxp3D9XnP7zLClOMz7y9/z+t3iv/Rn50n/FQBs9LZgEmQ8/suQVIh2BG8opak1iMYgHYdX9TG4zhkEJRoi/0M5JxMbqr8vEOF3JNPMgh8HtVDIiDPA55tvx6QjinrbZwzF7lPnbSOLNZl1rQFEaN6nb47iVMnG8/goOHcjSwJciOK2jq5To0yqKTTkECmSDLIGRQSnCOjE86RDu9TF6cK+6eqa641hWAQiqQg9cZc2VDnyn1JJUgQpGl8Z/48K6Xf3FCltiVEK6KkjXkvuNp31XuW1SDnIRowhWwYievukzRURG3oZi1BZM+I2OHQsmWZ33ZugiLSGJ6kbmVMKTpsqWn/IsbsfJu5VQj93r4hCCTwM63SdXshRurycZgaQpd9QP1vM9WkXaQXYjammCjVVjImTA5DZQ/Kpt3V+fE46x+Y2n9CnYhUnyjMbUd+v7fMDeHlOgnXuVMSLQNVyS41ZBg7Fb32YB01HD54A2IL+vTpIf1Kc7mJIfv0jgHr5fE9iWfi9hL3nU+iJLiWz7aQHEtJuSTaef/HvpOt4Af9eFaqAhXdPdxf6sezsZ7rRis4R56RrHcjA/IgKyZ+nfAyuvtuHCmkyr0gx2ayJjfJrh1drxImFSBTR7fCFM8yDySh0X4GzrIaXF96CYB+nKVOx9H5T5I+8c3V63gUD1afPf8sdYY7pbmQzqqKs0wT+N4PUbsurMree87lM7XZ5fiIusni4CAVG8YQ60PtEINa4rPnhT0PRq4Z967usXcz4HneHCTbiofT2gjSicQwwNtWlyehsS2l1XuceUHC7DAT/S+yFEsbPDvatPbgBu4kM03ApDPkN0kN8aiGHZdimtoBesTRUuVLKKv3q0eJGTXxjUl0LjKPW6cpyLmMgw3L+7tmcq6dhYGRNpgT1Y9a3HHN5/PAuFMWmFWZy1j6hYBce5j6mtU8EjbBiZW0Vsg3cobzJ2WRSTBK/29iDxPyF1fxNgd+h0lPAt483fKIXkXtB3vUQk3ufF+JJuOTU6q1/nMkmfoRNF+JZ6xTjrhlUzhVjXoH+WYMjLBLrpDQtIC0deJ077QuYHVvEN6kEYxg0oV7S0E0f/flf+LRyfr58e6SEFWy/Li/5ADLRtyeKyOfdxkEy5HeR9KRhuZ8GNscL2IaGdoGcC8IeRjirMMFMkRttAEJG7LeywwGtdKg4qw4tI/QKVy4HsUgBgLiqpa8F7KaTgCwsTPs6BdOLbrC+861dESWSNc/Vo/ro3fU7b7B0zflI0DtFDwOeToFk/qH19fcYIgqo9yBzMf9RmmkjEaz5Fntot7VOxu4DHgPFadIniPVFTbaX4dLVCyopAzXvTO58QyHqzRL36i5JB9E5RACU3a2dmmP+Tg2ZzffyW+ymqr/XnLdfFPBMcA+G5h7bjq3wG3Wb1xoI0LvOFbM25r4NzcJAR4nwkn/aAoNawsYxjzosONJMGaFZWIcMBbztr0ZU2MvjypVuxpLGU9B00OZpn5ER5kLNoe5l1Uo52H2r6OK12ub522QgwAxKyNZAsQjS2BKGmPrbOL1PL9LF/P6p2hiEuC8d7c8v3/quPWOzoeWjbn74pIAl8RapMvhPgAQ910Ii2MFr6YO//Ll69WmtWD5Y6Ncn9qxNaFH4fSQYTuT380hGYNdikNIS60jabiyBXLvZCKaZ09OGMSGEO/XQzc4l5C1LsjN4Fwnx+W97G+HW5YoQkSN8o/UdW6kDPsWTkoAACAASURBVFAdJa4FWUwdOLqmL4gCkXB4c1KTIzYGNYghCgNyTA5pCVbt1fx5doRJ9fUm88UsZJw+yfsQrbGuCDx175ibTJndNixtEx8LUWWbtoGM/u+aL2NLUrPrIEpEjB2q8l3mlMZAZLDnge5zIVoBAXmoEkq7mtI+h3Yj7Ij5SkhOHMhtHKl3lnUpW5RJbe+8o72mGRwzDhZhP3h0WBXxIOsBRT2dnY/U+kLytIPkafQTCZd2crZhtojX+KrHnKnxtr7StE+3bDVAPdIAVJTfcKzrGrMI+INNaYx+pqPSoWooZZ8lNuNLAhKSGZWJp8WVwRzZ9POYRFS8W+OBe/P6XZxfEt1tIf8fTj4iwknRvmcjlkQ5iW1JdLNhvZaPP4MmHUK3+YrqCSmnI+RBNuzEpcw12Xvu6j1kd3/M+0CGq92EXWVgRcRTyYr8BilEbVAAVnVz3VqlRq4bgKarD0Li9hCyqmIGZxJG1bw1kIczKY6FvOcapOo8YZ5xHOQ3xNQnyK8c96lmpAOpiKvWLmq8OX0XGAYs6rDJn8ZqIwTvOkqT/vmtrHHfoLMlgz4lXrbscO1rx+xLp3PAIvfHe6OuEV+JmCNlAnOB0JAfIUt9ATiIsn1PX6riIcrAp7id80mQxrsSMEQoWHpI0xE8UMkfOFSy5ejuu1Ijpi62szYZIw6wwyyQlmuGkj9VvkrREIZr9v5Q125gOd5FNGOemF2JoE4zyX8dh9nAxUFQRr/4Eti5bpqkoXlU15zDmeMQ2JOQItxBw/4vznQoBuPFFIpJ+u80R+/lx8SPSWTLb89N2ph0MN7+4X3Pz7LmvZ/6LhtYEtI8Xxb8qfuzAbMy33iLAT2Od+/EvA3VLNdqGxjwHFzROsHuqUoYwI1J6rwNaIWIt3zGQXd3qAPylOLymcCpmuN6DohCLZs5OA2wutdw7v3Z9qnSte1pE+RVLlXTgHY9YQYbJ6eeNkpm3Y4Oa97zDJWxcECDjJ11OyE2xOuzeQ4RCjyfql6RL233+yI2cq2WuELbxXUkzv3k2+GJNA/GHvatnqtoAlTyvWwpQEN4d/Iu0iuqXbycrqVlkXixF92PFO++HrSOID8bajcBFPZjVEa9l2s7tns0xkPs+XKU9QcSx9M1pL84TJIEUgdeCJsHnJoot4x+jPEIAfGFr728xtRrroILCap/YCcuFHyopaST7OxbqcfYDioZRDPPwdZeitN29RtOydhmvIs9a3W0xJafo4SPCW8SjDZ0PNf44Tr80M4y+TXjuh3/NaHN95bf8xnff8jR2NF5TMTyPbEWGRWB26H15V4YaD3fL/FAxNyhxhiYusJzZTf3qF7sDZ1pqsLg80X2KSx3TtnsMC71y6hZytrL4OyHkxqoy6vYaylrl4s9gL+MKlsCQndxLTYMKn9dIhNkPwhxKwOHHDbVOnXgGnDuFbD5YAQl7Fyz13vtu0gcaiM1UBna7bn3VnTnnUpHjCUfCDZtNZ5JyDeJu2AzuP5SPu5LrSSdZ6YB9XpmqrSV7jkQPwnocE/9Ra41ssxytZcKfZ6EydKEWAxt27hU0j4JsLbqYMAoGghbTFsCPONZRBv8q7ByfS+EUMdT2uLZti3PFmYZT5qDsa6zJr/xSDYpDzCvLCdRt0zL813qlTIwpxJ8ypxOPA6zJ9nqWuB3AwfSFk4jUxNNvFWUSivDBDHJzjnSNIZ3pf6CMvcwrJG3NWGRpOJAzdajk8Vb+Ktu567nzP+NFFrCFA4XPj98jIFjPuee8/k97893/B51zDs//X07WX9b0JK40so2vqX23xjY4kmvdjB61o7kdgA5ckeO+boZGqTRXf+nA3ncPNxejO+deOzE+xnmy0wzlGjCuQ+CGfv3rbaO6hK7ziCYNL4OoZgLAlDZt1wzKKZEqvimfnsUQhzeWdLGPF+lb+wQbZCZ7TqDbgCqnqUO79l6zIQ5hO9URNrcoOO01/2tItJACAjJCbSVMrSBithAc5LMhHiRJl4+82AhPmqTOTVIb2PU67jg6xHkhQxAqJGeLdLl+YaKBSG1jfd29ybOqCCt6z7sVW1il5J4kQN5bdh9DSJYI5FBYUN5ttE3aVdTQuSZkRnNVMmI5mkms7SRmjkX6G7m2TqVSngDEce86kgORbI/yFTR65cvmiWPJHINo+r+Iuu+b1jikjalGWUMiFM+mcI/7T/cPVwTSisZKq92g733Agftt0lME2xxymHmuSdcbT/aAtheXCbXTNTpm/gVEKEprJrua6+ML3UaRx0C7uUB/tVe8q7jLuG5ph5wXBLdfHb5vSz3p85vY0f7kAYNJjHOewkX940zjM60Q+3EQE40eZWHroIENkp5FW50noe3k6A1ymfnDq9Os/NQ1I3thMB3K7QQim3AhHx9SKcO45zZDEFuf9ir9OtmnkmZByAPdx+W24tqOU05bCpScyvTHkRq5rVbP4lK2lCN6D2Ibf/6sBuSdkvofAxYHirH1YUSX+qxrZdNTQFd3ZVCuVc7LH1BQCaTm/g2gyxLtZ1+qV7dDi1LfxCR5wUTfwiBVc0Gw8BtaABiOMOcyoAiEStJlSCQPbZw2swZ0/TvKcM0A4RvxE+eQySdl7QyBDanHwLUjU1XV4SYrhMBYy0j5NoQYJ62mxqi3iK62ophUKTZs+yObI6ygfCpY2QueBeYxVFG6gXZ51wnJodpDA2E7TnW9Ukw/CA7Yj3JNAW1fe+Rtl6tXr18VYYqrM30zc1UEVNukSxw2N1OUqe05zT+gPuHsV0Dr+3YsNMpdf1+4FOAUWcLTchSLUxqN7mFtgNDzq6bZKITurefqY6NLJMY+d/yGIJKXYIditD+5V2wKfHlv8IJXufkLlEtJV2Z4/qYzy6vtYb1M0sivX3pJ04+Vkchcv6sKeu6MigmkiSNtAvQaGxsjQx+51lKmMPwvszNK3NmQcS3AWZcD0WK/Xg8T3eTedoEdLJWb51nGZNYx6h2tv6y7OQyrKoqXWyV7AKaSJgMTu6f28M9yNU93NMutk1jU/MbAQjZ+iYc+Mtnz/OurZVD0KG//TgLvv9u7P/OhS5Nvkn+DfZogMFbei8Jhm+y25ApFPuem/g26Qz54IjpkCYqChJZuoORmEo5DTFSUQH83vZIyTACFajEkehxNpHsTV3PTkm7zt6Pdm2kLO+KcZTq4+Gjp53bq6MDA4Mc+bY5yr1scX2WNZn3QiX6pF2QjBZwnuue8/xJGMZOPM4mx3dClwexAW1/liJKmOzp168yVxgHmc5b8XGwl9SDge3Dg0is2JDatZflZJe8t5JmJei945uxwRRM4FdtTxseSUUS+NxP8MSF1S5hDG9fJnViNYjALmV0WVVwQPuoqQLpT777vvN3WAaP734YwveRlM+fP119eJ9dlnh5Ux+1VF2PEqqGkTMRDgOD95nHpMlchGCtpqHGnqc8kVDqEvRhWdNOcOQdaZtx3g7ONjY2vyJ7y0w/xIFDPlIB0/TAJ8zPsqfcA2MMyrkyHZMw7xLcXUl599l5/ydo7/bWx5JwXWnvljPkQ8L1OgSBn2UrAdiYr+rIUgTzAOKkGgnyfZ1wLAi+mUHefxiiYvhnYMX9RV9stAhiYj+a7yGRzC0ivkfJOaoynHVMK0RCre0AgHqUAYC4LzMYj4LM7EQ2HNf7XiRq1b4gBenxJt5IBG5H3OlAMQwkCYlU4KbtZ7g2lTGDSK21kr5p/SBURqspNdKHBhDkWURae0Q5aZOEU0M9ZBNnDi4DLwqIhNMu6qZqLUZltODI2NhOpN32jWmbAr32jCkYyZ6q8pjdzrPawWGkDnOrRqFlpDwKswxs7O6qnWmrqZoGeKc3UjnK3eog8TBO6isnRPf6iAbQMMH04yjTGQhhSLGxdTmiqCmRttiKDnMxJfLkaYInqMimOBBdppzgg56ZGyYtITU4kepg1uzlxanAhzofJmVfivYNKmUsjAlvrjGEIxi1fK/mPzGGXkt7EZj+sA0x0MOUcxFv+7vAvySU/zpNkU9hVZgbhGgvwa0h0djwP0jBSWw/JhXndWND4i2Pn7r30YN3fowJo088UaPW0U7kG67eSuThDGFId+83UiHAre0QYF5+/XUIYOjMFn5630AqZiP2w/0sibE1mthBKwkE4H776kWjbCAcb2rnbxJALK2fuht2lZX5teNSX1NnRD3awMEDUKqgWEgLh4eU4v0zH5nQqbRNAPJmBss9ny7uDdL9AEjucctoUmfqE89pboy6zIYKllZdbD/0iQc1/W/6+NSvLAgBoRHMUHOpZlz9Y4GxemuPFflHBApbh91XtRJ800/IOZ0a2u49qiJV18FuLUPJn4GXKLg2aFB7SKExQe8a54mdkecq86FOSh9h1i/VBd7S64tsMY5N7ZgyhfhND3aRK3WSVG/evylxkMiYGLhebEZ6Er2F3UBO+IAZWAWP4Kik6UTLaEB+2la7N/CaXuIysVy3XlSd9jHxjSnAnSJ+ygU/DBLApEsZuHmzepT8p9/FXPnu20Qjff7PCsv6NIq/ocj89mxxAINrqfjoECKFh3fWn0Gk4xnnnpv445l57nt5zHu+/5DjJ4iw7W0z0Xs5Sy6gjUCvuri1Y+OJIEYQae4/R8+vJzP7id8EaAx0hEYqmMeDTBfcy+Gu5pjM4lEz7GNvvzsSkXrYNXWplDqhLqnmDcKLlNdo/ZSpgTXE21i73Vo8O/ZowK1JLrDo9dwfuUtEk4zA33r+SI+UdRIXvwJJwlR2OxhTqnY6IkjTleYhLPAwPVBkEi7FXktDcH6ExYbjBVU+5uBw36CVUNMHRE2CXURrwAC6sDb1dBlYnpnbi9EAamPm3UqX9T2kaGwgmnZQg8FMuam4EUoWwpouMhFuov0g8GfvnYcoZo4XkpzWUcJN+xHnVqYx6LXNbJ1+IFyw6Fxk6hdQXTQLgMXD1i7NQFUq5r66BPTvd7u7LOtK5jwq6XbGXba8Lvplv2u/T+pRnr7dZEwxIvAFw0rw9AdcLxIKqM6OU456nKPmD+IZuW/cdxdcfBD/hD04lHG6Ds/WRDiJqoV6d0Fc89w3GBmPHyNC5VWL+QOJ8GN5OmvPN2kwujgA5JYyR/ArXTuNzxP9y42tNM69NK0bvrzOnNa7OFBsscwBcT9qTvfWi9pkIh6XBAUuZTldpJ6/tqSCqkR1C7CpbiRBV0Wws2IcGeDzzKlBRGqbAYP8UiPYblodVm4U8JFSPKTysvBy3s5ppa24s/pJUF5IbnzufQhW1Vf9+cZQNGsnUtbqAZE0Rfu8ywsrczRAkY5NU4gZiY/FsRFVntYWDpE5D8m54Jq668mEDekr6XqbYQ3wU5a2K9O5Z72jHOfQd86jOacl1HFTYh1IZHoezDAOUpeWARkhdSe6ha/lPcyJBO6mrmmzd7qOL7DWdsEEEADyTZUXsk0i0s7hZR7I7nqZUsrZDez0oVMVHZchzcpoaAWBB3XVeFbKpwUkv6ioOTdbhM4HsfJK0wSsDmGyeI90ZHoY58I8fVyj0yDGPIf4qoZWpfPJsSYUz08J+HPf+j1e/UFqLt+ZZY0Kfv7/W8fMp6h2MAIWFMCmMJohnCGhIE4IpgtC151ROflyErvhtPZSuFUAfl9sKC6Zo4MZAAhbUySiQZDnkTxb1/EGUmFIj9wrgSNE5WQQOYsQpb3sundBVCiqU9cDItKs1oCIRaiUCyFfvnoZoz7brVHl0mTI1QWzASRpgaOPyBXqBmK12cgIpuZNZe9s5Lr9ECEs6WKZjMHmsOEg2U171GuVgUO5VKjO6xUpjDWqGkNf23k9kK7V6xkp5D0qZv+tkQKMSFFzq1Wh1og41T3vk3SI01pISGnENtN3FeuLJVTuq1e55lybgCnlgYkxqsMo10ySy2zHA80hw6ONwU6mWamfSJZmFyjjmKrckMgNu0u5+mdsmtA3sMB0YAq8EVGDkGU8EJtqO7V792Lz5ppwNGYNmx8B0mZqg9csCHaZFsz1sTJmZAXfgUupi3cbs/rt11/VgVcmtdbc9LWpELUpn5oiuW9Ubscm98FnHstz1+bv9m09PrcPr8tRlrrm+H7queU7zj9yzHihQwhi418bvf45pGOuF1Ey2NXhNUZJBjh/Os7L9joD+PCLZyWao7iSebc07ElWQlzy5AXhMgZKql1hbqn5J9tCqkb+j2pjOY2DTWgFhnT5kNsqDJLoy0efl3iEvZF6BqwT/BmwOS9pXg5wpBdsnk8DkQrYJmOy1nSG/Q85CzL1sE/qpC+RCvK0NAggfbof+7PtWw/U/aPRXqrtTOOAoD3P/jTQbN62P+cGB3J33i99KRGs72lTs1/jdgCKoFIPwtQnC531aTo65mBbxLoXJldkyjvNKRONAazrFbwi3cZkOAeIegVF2xCUdkLd24zHlD1IHbUaXrt8HsQBZioFgSJCfWcz+g1enCf6K3Rtl82o2aRc2lvvKvzI9+vAnSqrDO+9y/uHYJk6mSbgVHs3dfqeYXpgX2LJx+qUbiFQB188xdGcNizmzhiC5yTUvRChDWaovabMtAkhcjypT3KurgGFt2uCnMRV/F+PrXFZnvs9j+I8ulg/f/e5eW+Wv3z3U+cfraK4fcloFgnWDck3wUfddD3196gOD9i5YMA7GZzrpOBhEJ+rHick2RqPGI5nXolJzMajjrxOmr4XkVYGaKQHFBVPJUz5AV45Yp6vRyz1kUY+bEjzgq5pN8Kk6iDocv3Uq6FUUuflzjknAeq8SHt1p/bL6FZ/IxajZtC6S2zu8+DKczntPVKJ+uoeJCTF1VkPqHcBLt91qqzrmCopyeJ59WsHVY+HEXPp8+mDe9T4AfTBtZsqnqqWevS59UH4EBiCaRRSGFbVy0ho19hSBlEb2sf1wJGIaB0sIGSZGsmYJyuhbrWDwDVl8GpOh1dt3CA+9ZJkNmamjnR5qLND4qirQRQpVyrJxnHmo72mbaYkhsAkYLWGnPtGhN7rkWt1jOV7aC+cZ6lMp5QVU0XZDpoTRs1O5qetCZJnG/TufZw3B4apznpL1+36ue++uDgmAS4JbV7z2CTM+X33/eXvOmbaQI3SoPx1MAaTLiDbvXW/+3P9DkggNEiHqHhCT4Kwb+OxOor7+uvvv8/WW/tJU/GmdoGwJgqbrbCPIw0bSR/O1wWZARh2LlxKtAaAvX33evU8u9hSfQxMJYln1w4edg6Hy0HmoaiYpMzIqELNzfxkpOVGVo3PKJdKX6MX4KvPagMDBJlHFE7urQcUTCAq+d7+5iMSCIzcI6HURzIpH9IgjkbL5Gn1sCfnOjznAgSOIkkuEjxQ+yV1K6fqTcr/cGMuVXD4MP7d27key5feJs3/aNqwyyx8ZcOSHNQ7MLl37yjp/+K0ipSg0tV2zncdK7nPBOD13GhaifXmofGcinKpWh8G9FSS5fQP4ZF41MH2Oe3jSMFEIfpN7iGkaht5HjMy5ybHLHhGNSk8wOHxZ59nAXCkE8bFPxBHjRyznGtzOgT8rJ6YoXoTvg2WQITBLcHvWEodN9lK27InknusjYzTjxAIncnHijC5edK0miXID464jqnrD9LVV/37ucMzU82cOLAkumUZyzL/kPJv1dGPCtSiVNqmYc2+0gtnbTjs1IvYBDMCgXRjD74xOBkMDpf9LLoFeBO85cQZL+rgWK6U3CHr9BGQ8aWtwQKQboaZ32p/9izqbIh8rEmLc4E3NAPbMLZIQlQiiECEi/QQpJf21eOZM4xBWNgcUPdlcsYJO/hRv2pfhJty0wOyd0mDqlRpT9WwElm8iuzQlFEung/JD/jKUGaDmkkHRJoyuiYxZTsqEcIsrBQ/SIQOxB+ZyLcLE9uAV+2i1leHWk+BpB+C3nk0y3zyrT6aBZvVHKt97dnAxgRRyC/j+5I0Bfd8CAFSH1IijmYpC1JOJEFgGCwiNWbaOxhM+gRRlZPvagrrPvptrDBJ6TIuE8kDDoepG6F8yKoQWTGofjNmlfRyz9hhPoV3yhaMrW8l/LRNo43BZZ7hfBI0MfBgTE90TjSrwK9I5arKoo146DMdBSdEP1mlk8IxmJZB0IyetHxwmf039s7nMQltEtd8bj6zpBfveG4+q6x5viTO28LvnFQddXgRQNuY/O7lxccA3UpDFYYzteLqqUN6No4vyE0aCphBeABLbXkUfd5mHtYJWkNmBfVxpBo1aiCHGEJr6ERemDYYS4TAjC03n9EG6xMhg3msqpqxb4RkkUimSgxGVz0E86gdY73giP5oBEWQmcfVQmMIQFpBaP0p94aE+XZABIHHHEOIZSDdUGtICWvnECfE4bAicSxtUr6oGESi/wVo6hBU4BziapdpCFMszgvj/JUG0xbETyMxEW1KCNEqi5RSxlwI3TEL0RxHWnrWMWys4dQBO/VhVNo1nQZyiGovGI66BzKBX4ktR6VX3h9woK2E6aSN2jscSYGf8c41fcVExlKv9LF9GExJfxBcI6Ayvjyc3ucEMg7q0Q/tpgk5tKFInI/2GU/v2B6hqiWel+fYtRgf73W3eAvufB+mxvEDm/kMBA4oyzDUhIG3OSYsfN9qg+rMsSSg8e7vS815Xdvn5w8hvFawPioJJxeY1O1bG3UQHWrSHKRJly42DCiVi8UQzsiL9jbZkL13kgFGVN9++22IgjSRZiESJQCgxnEVX73L4tsgeXcewqVyDZe0V520fe+i+rARcEmEW5smZSBmnBo3HKkSb/vTgTbxnZ1uytmUPz+AzKbxrsGuGphnIIBz2cGnyjSmRdK/lGXA/D6RAgI95c9Ows3FmfC390nNuJe4127nHQbhUO7cg2GuU+RY2aQv5YBgbB2wV2eZFQzJgWiMy2SKE1G845r2u+Z3VWBImk+JFVwjAetJBasQ75TulQbWdwaBVVU1PUhLPmhHLyor5W6FOF0b3slBiH5rfe3ofEhfZQo7RBw8lqfXCZgvEzYpb+pgMHf9gkfto7qUQ9rm/fO0Q9iddvA7iGUFd3U3aDvv1DdQ+36s1p/Z6e5JIK2fKXxMixgfm8zG8Hn6Wc5zgxd3Xbfqy9xyrW1K/cq/S3DzXh9aH8tnnS9/g4f+uAYW/5SjOWY0YtmQQXCab1BSXD4pexCkTrTRA4FrDwZJEaJrx5mQNcdzHVvwQwajen7m78rhU4gttQRrF2gd9xEJAmkuMhA8aryzp4gz4VnQklPgs89jVyRMrSu1U1YTA+2TJsPInoiJ611nmmFytVvgKFf9a+TxjcDZpZgAW4WUVqFEtJ1XS79IirrjM7CmIEhDdstxwvLYYraifn3+qipxhz/vGGhlTyJChNqzVHUNEpXY+3NA57dnJ+ENNXO44qnB1Eb3vNvMBeuBV0e43phwj0o5F9kiDChPfdYe3lO2m0Bvq1AMbNNypIdNYKy8jqUBj7RNfd6V0tD7xnBqJe43IglDSX+P10yFJxSidywCE/AjueAAhiMJMOZN4naVSwI0ZBrQFvffRaILY8MgKj3hWprTCK20TTa5G6kQM16TEWk0k0GwwkWYPjyZe3gYa2FvhCTP6sTdJd5POjAujiWB3b02aaUwWhwTB+8S9UcPfeJH5wl9HBMJ6tkSsN2r457/EWUfVTlRmXPPmCtruFcuiHaB2OIV723uVCU73w/SBoFxiNcJV/v8F1/WGzfiGccSJ0gL4IFqbL4sZI3xfxJEv58lKjuZ1iAJJSA62n5YSYqRjZSEyTUSKXWVuEVR9dcBfm2tIOTlxgh/g4hUriJiPt1ZKAijv+qENOfZT90gCwyvLZe+QfbOR+l0nt1OUDGkbLLaIIK+Qa3PEkBuIxh2CdDwYiqjc56kk/fzIe383gvR6wPEo8KBy4ysAU+bm7jWMlKfc89CFMTmGtsJQ3BNELc6R0LdEEoIzHVjUA9uiAysld2cninf/O7hPUuJQmCWQ4XpNEVlYFhpS93Ls5IBKwtxULn1oQzM75xfBQZs/Hpa00fjQoIdWyGT8hq+2HqzT71kU8GNe7GJmTON0Mn9rcBfW0hBZSNMW3/zAGvP5X3a0WCirm0ED2TgK4wwUHiZPlxkfvomtulebEH4Uk2uYzewuOZKjFQTF5hE3R1r3F/SQa7eEqHzeSyJzvOTcOe7GMJk/sv3fu68RKiwyX0nB9xIp+pqXxMh7BqycX0975TDtkvhQgHmeQzxV1klcRxV9MKWaMmm1YzOQRLS7fPPPxtZuPLb5p+mGTKCFeM8XYCKAHnOht2T2k/jEX059vbjdXt68HSoed4JB60qGaQ7iefsiPSlImZgOGRs2nIv6hekcJxlcbC2kLKQgeRDDD6Oq6vsC8FmCgLylgJq1bEgCwkvdZ85SNnSnj1/VsKxOWdjZuUKTZsQJkePgHCJrahbu2kP7g22VNTnz59XgmAi7CdIrw3GACwgr3Fxrs8knhUiM7PbRAbOlzdJkBxWkjSC+hDJFbuPI4ykhHTUvE6Qpz8m5anSYm1PwxTvZTmQvUIasZIlGCTcifA7Ggk7O9KoknBNhBwjnXIKI3kXDzgph/Dfv8nqhcDzceZpOVJoD9RQ2TqokfpTVTFjpS/WKMIlyYbLtYJmplZoNU+fPlu9sgGsNkeDgoO9RzKm3fDM3hQnkZYnKXOEJfKEhrCCTpj7ZWKOv375/epd+oLp3FuHzmxscealyqqjsHZodMZ+Sj5wn+dTKBU5PL0m2HkOLj4Oz04bdpYxn1sSbx++c5QIJ/XeVppGOsCnrl5cscJgGNvID0nqnFXcJrYvM/gvEiv6PoNgvu5h3NDv3mRKIpIP8DgveDSr2qThj3Mf9/wuqf/eBZGsd6tXMO9eyNacQb0MV7M/xcZagnjvJS/imjdQYc/EGOa+DNcORHOdeSvp6wVkF7ERXQYcN+7GNCHE5vEExLQdgkAKXBF3tEpd+JR4x60sRvW9EQ7aJUJZWnOcGNPzK/NncSrl7yRR+4fh5qQmCXkepEEgReQihw1Q48UM4jhe1pWWygAAIABJREFUZFvrtiuECDERsX7OsCohfBd5FyHNNPwkhvGGnBxHeT3TAXHZp2/0LAwAEhzEI13WSFMJoO5naghSS9rLpjqJze7YCHM6zQJYdQUIXQqEGcgefhrkr7c0bX8dE6Bu/Tx3mnE5vXgXARlJFkZD64mLZPUwTKnxpEH6SgO2eqaGwLm/U9JI2BWvaPBkRBrxYFpALGfqUOWpp98k5BGj+CZ4gYHzOJ8xG5Lgi2OiWlq2wZNzdi9UzhNamzBEtZWprzfJKP3t63err5JK8zpMVr3yyXpG6CNTa86X3up6vTdsvMIG4q+PKeXmNePmwCAnUc53l9+TEH+OAJV1m+jpo4dLfUY8Ha4+ngZmoCDonBj1cv1nCDbXTQqchaseZ1se6oZlmDps7eBO1rhVd0/DzRvwjE17gDRAIK8F9AYZL9fqLKcFLleCCeIfPUpuynBov3Ff0xvCtExyS/ZroCF0Ci6R8ma2TxmEidyQHXFgCrxo7AMudOqYNWXKaBvzHifKbPNYfpRCU6bQOUZ9VZkAYHI/74kgYYdQ20SlIGrzZOofaqylO0O9Q/wdqGZNsw5THpz14EPcDDYENb9KqlDnp120lfrV27oDOynm2UdURWWQqvpeqd6yhj3O08qm4ykU59loofx1c5p83NsJM1GGfrDpzrTRvcBuN6YBpsDnCA/kYz2M/WWfkU4fpKw6T9J2/UVszJauiDEWOTom/ZjLTYgalRbM1/ecw4fa0ymvdl2lVsYpcDDnKcPcUdTnbtYTLYVqaUmU6YjcHnPVGb/L1B2hqOTArtRXlRlu39ROdTrGoRXkmISlD1Pd1OYprKb0+ykCbI3L/s7Cf+Q7cP+BAyh4IkdFnyEy8gYiv7jgCz0ItP4ezwxC5ECpDZQ/ap9HTMYLaKZGTMMe0OjsfkMk0guiQCJqGvsSoVp9IUwJUrMl1WtRakBXVc4AUk0GwnF/DwIkdUheHk3lNw1Fvqlbc6u0EibEWSMgN3c3qYT8QXzzn1aCIDyEOxEDspJw3ash3z4YUXOgknjpS9XflAO1Smj5E2SAsP320ffapQgjzyqfyuWA0Nz+07ljPq/OnZY0kBrhWpOp76SZNvLMVrojmpTpmTpbUp+yLP3qlETemUhWT6zhw3ONce5x4AoJPGVj5W+oXAhiwNgmNuYiZUu3bjHF5xktG846Eu4Sk1sj7xLRlcWj2zZC1LzcayG+2qL5bpB87sEdJgoH0sw/qg3Oy8jX0n0yJOV1pUWum6cWw9x+gvnEc4zHmKzbNvF/+W0M5jPenwQ1CXC2cz7j/vI57893PPNzR3W45Qt9yQeA+hnn1IKxyDe3dSh/kyZ52ja3h0u+KlQGfCsI18ROQWIIIOKdnVb7KQj+4TjxkLFdXkS9HJxw2EsQGF4rpxPOGZjhBAiC4Y6QKkhvbs0kcAOPTUm0r0OS3aQt5aQZ3KaYDwFyUGhXkT99oTLj8GUiAbScp+wufd7szTGhPxDwBzAOrt7XgnKqzCClPYjoPqfHdGTg7iQQJMgfKT0S5kLYsudbaUb1fWdPCnZP4K2OGVYFht7tNmYQJ/eUp1/8mJiBebMRbhZGkL6BMUlE3Z/7xnfKwnhq8hppnHenpyD1dUSGdgEj9Z16W+dFPkVuN0J4iM96P23dy+r/rtpQTvpAQwBfxC74oXOh1Nq83/OMg92oymoCm+Jaym/Z+cwwMjArMdJscsCFPF0mYaH0fdkL0taLmCtiQUlmjrHTmBEX0Sj20paTtwmRjPZw9SRMooxnaCbgV/XnlhBbxUfHkrjcmOM1ibB4VU3h47nF5Xt3y7hbx/J3tMIh6gHqBwJcPwIwOS3xOQOsfHUVxbzmUjrk2nspLM7GXNlGOBUuyfHgmASoHgTkewIZwHn6GOC1ZSDLwJdxmrp4HnE0nk3RKACL8zdqJMQabCiH3Mwgt0coGaD1r+UNBMEQcErVlBjRSn7ci4TVHuV7nFTmHEJcDhyZ08dNnrkCOfAQHGBQ2C849yR+/escV/7azzzf6I30VX/LsXNf+dQ+zCoXCPnCRpkQvA4XUln5pKVnqL15h+dwIzD4kCS46kBCkB7RNP4Tgagr7VefzwhYH8TF9a9dnnF4btrs7WdggsjV3XohX6DLbuR9ZoKY2tG+gT+BccZDjTshFAdGcC+fzkdqA6aVlpY5pWwb8ZgAqk2XDyZSJpG+gE092dGEukwuAAfTvUj+D1JEei4EB57XWWva1fgpwxzu9cnLNRE+bzsgL5xt4LbBLy7rsZMfDnU7pgTzPT/zqbsEOJ+f78zfs6xF8Z88HRi2rvT2pVQMwzSvhrDhjS0EuQGQCBzXBofs42k7IhIxc5B96a8CPMCpS546FyQ24MfmEDOYoiLeRCU1T6YmXjdIJGfI82efV8qK1TxKFi6AlWBpL1skswMgw0YWm1p5LU+lIIEPmaLoZi55j5RAsAau9ptBTumCu8e+9HLNxBlR9TBlZVBHeFqIKdKabgYBzH1VciOyfEtWDFPvpUzICujdgSkHD+pUU0heBKNfQs3MWXU1RlY0QD6OHgVRpyGVsp88e1rkAzPl0gBsCqM+RLB3OAhQREr3DAwigYV+XiTnjHJFGhkIMLdGEtGJ89zdDLGWAMZUAqdXo2Ty25+RRbimMrRTf8G8AQpZDaPsEkrqasghZ07OaSWeM1aCL2TDNoWg71Wv274w4Kx22E2Z52GM9+I0s2tSA8DjqKO+V9JpX+zjEmHOwV5fRdMYz7qJ8l7nMQPTRhilDltnG9/BCFJXYHlw/8Hqavvt2Bnsj9bMMPhctRgDCApfh4npw/IoY10ToetLApzn7pchGcHFs8tyXF8S5EeVfOLHrXe0gFfoLNhp/qoe+cP2NdJgtIV+IsLxjAtc9kKFrJw+CyduSJkHA3D2IiKFvJakGCQDAOlw71fxGFY65PNNomxIAY4ZAcMmxUnKV++yv30Q16DsRS05s4NQltEoezd1dHuyRFDoi7Igx0UkMwLJlRJFj3PqqZUIQy3koJm2MCQAYuFoEKhTBxlwbnt2JBjZoqz2XP6u0tc5KIqGXOXOgVVXewTpOEgEbFOhMAJ2r/fBABGO5T1xpgTB680LIimzk/Mpr5uf8tSmHaQP8U1ynMcMaE6cEAXpbvC1l4Sn/umv9XqIMpTUtpNI6lO36RJlgjmYGQtwN08HdsBlDtYKeRLOPN9++kZKSfsBV2z2gviaYT12pI1ftV0AwMhaF0a2L0HXdadzTtKPs475sGkRorw1RoZ3fDjMMlZRexEgxwx4aQdnHtPHDlSWX2Fub+LQ41TbiVoKXjdJvy+oP+S5+u5tIq5S8h7izVjZFKh4kcoGqg+NYxLfXeL5FBGWIa2J0P3STa7NY5bxYwR6++DipJJwUm0rTevAX0sHykZmZKDqoMm/IQFzLzd1ynVSxW9zY023ngHzwekbupTrBhYyQDAbvJBsR5GGtvM6fDSSJ9mGy8r771+8roopyLlJgZPaEGdkjFN9mw5xQz6XqHZHAXw4I1uy228HEXDIuvIBKYOP4EIdw8umD7nX9heg1NURQga4I5aSTTLiGNlxXWsXYHc5FRUqR50+eb9qKIJJHe6MiJkxmc02QtyYTFcW5JxaW2mY/hioqldUX+pz2oZJVUXF6WOnkbS17ZIZrvZb4Cf20geTC7avrrQ77aOSWhZV6RqJRutAlMYBsnScEZ3y0wYIWXuvPRo26l7gfx3Y67/R1l/MgyVHBeb0Lcq1fWFGeUZ6GVuXG3vI7V1SUtRR4Qs/8j/J1vAzV8Al48CW3EwS6MZ8Knb9MW6NV03fKbD13qZ+sJHv5iL4ZSpJomAmvPZJ8Qh/MVLpPF4ehwj9TpkYR4VJW6OegbNLYplEBzZ3CVDbCrOUt6QX1/1elnOXmD3zU8ctCX+Kckt3HSSVrAE0KLNltnIInS6e5YHjcKZzc0lBPuodiUAdFIDtEAXx5MmTSjWIAnEQqRq6z1wAi3MjPHvcCa/qxi8pE/FyBuDWB7hg5rUGIaxWT0LEPIUzOBpy8rBZGV4bsEQZaZYyuePVqzfqqz3RAR5Gto5Ceg6RzpXlt/u2JxNuR/Vly5DiR8LvgmzUKfhdBAmcqNGWbZF6NmNBiLQB7v2XmRPlZkeMyp1wZFtNJ4frggWE+zknmRE8uIjusdIEopmyUSFYkpScE9qQzrQ+0hbcbsfW2KW8afcpm43W79wCA8hP6fFcN7EJjEwHyXBXSeN9bUpb1ENKWhJGlW2InfJ0N44Q7yKykRx52NmYaadN8kxTiqztaPUjD3Y9WVstI/VpPwmMKdXeDixpFrYNsBzOlEgZfa5T/dVZwo1m8HUW9+qPTH+8tRGYdRWA2bSNwWZKsklMkwDV7+MYDHuo8HPcShv5eH4+114Y73/CcTtPePuOghUEDOtKsA7IVY1UowNgESJUgwgRLrbV2yDYK9trZRJ4OzYA7vwyKmYROYP1JNEUCIKtY4FsA3TDcSExQOPim0HmSqIMPqzOlONQdwEwxKg+EShFvJQpfIyb3Kh7T3u74tscUcoj8YoU+SKtKzmofCkboLr3uXNqJuTVFc/kBcyAlOA5rMcz7X4rhWOuIYKmE8y7Jd4gPLios4txc+gzdYl0MEB9Tnlps/cQTSNLcq1B62lnAR8kMYTl/spRWPqHaB9GczA61H62LARv4iNSOJ+q1/qTfrHBSnwIK+eTyfzgIDGOis473vMshgTx0te5ISlGA06u1QEX+HDOmNKhibxPwAL4Hsjrk7ouM7ZVhdMe+GLMD/YPI5FGynpTRyKWOp+YOicxqBtjQZ0YO+1CEP+FPKhwQt0kODin7EdPHq82TvdXX2XNKeI82sqUVO6dBk+o/jaaOd6/Wb2Kt9SsNWCmeR1/DQPHyZwm0U2CWv6eRDqlYMcWrBbf83zSy4R3H/oDjo/SWyyfV82Snvu7WEHuQZgh9jvoocRXSYUnwe91EIOn0UoIyEfFIxn3PyTkK4gNyZ8/fV5CRHy4pmN2NuTW7bPYB7YLUxXuxWFyE4taZmsq626Qw1712tX8LDnDEdmwVq6TOto4JHU481ryQAoEU08jpEE4QSb1k4wIyjjhnLasRgwWGrcvIZSq2CR1kXeoIQao4VIhrK5Qzz2OpnLIIIwC2cbaQqWa/cVEqHidBlgTqUnlqmupF4H1ulbEFwJxSEzEa92ce6JJIhrQbu24W8IdlfwgudKegWRDsrvd8XSoIx9Eow6hbzdhrBxRmE0zHjTXTtpvGqJMZOR90a9KJ2v3PMemDYzsMIV4pKo3pVImCO7pM7uQHW57bu2ubbzWcoyntmB8D5K2A4F9yLjPnKpjFUyYSojtBJ54P1JvC8IEAGBl3pRFLP2mqbHtg8e5mhaEiVcrST8Gixvdn0SFeIzZ/J5Etfx2/z/38VEG7hKUGlrROF9fySWcY9zqNR3Jx4BQBd5zygTV5OukntzEUJ7cA1JBYoiP8Khdjkq/NSHM+UQEZeC3zNsF0Pc6vxN7M1II6HBMdtKhqJwQg3KpSBIAI/zXx9mANIRqQBj/XTIVorARZb11kMG9nOO25fy5WgRMP0ZcIU6cenNR2WXQqdv+72MhLHtlLd3Sfm1A3J2HNOkPoUnPIA+nAcajnsm41IH4yghSLklWWATAtb8QRepEnDaZ6YaZu8NRg1HwboKjeiEMu7WqovYbJOUYF3XmmOqTa522yB8kL8Klc/VognP7mndy3ZxkpY9rIawWm/H2vM8pbSPliHqR/sOmLkwHUn0/+2aAubEFZ8uKjIOFxG+EzaVcY0prwQD0vesg845AiwfJNA42nGNjnjIYlPhW2bjfxk9Ai2h4YhpVbSBtuJfM7SKHgiCFv6RP74NL37z4bvUX9x+5DHsKW30Bk8GUBlFN6TeJbBLexGFwnM84n+8ur7m+vDeJe17/se+fJsISHewc3zoBWYV5DUKkp2cg0ytB22cZQBz0PGnNL6MGAKCG1Cnh3ZzjbMqcHibqiXMZ2eSltMJgOwY9d/X+lmiMsYiV6lpnRqQDBAxWpyyexxBGBkRG8KGmcTAMKbdJ9aPGZjB0Qju6+SjRCgEhV75NALveQOMQ14zDxPURD8nHKWRAlDPVDbYJ2HB+QGyRQWHbw+bJO5vauDm8vyRAByyDD4iIgCRkG11nAlGwmMN9DIA02sj7nXZJvdpRR0YmyDWj0yGIh8oWpIRKpP20Y8GLlCxBt93jEERBY1C39jMnEI8MBrZIsy7yKjC2RcFO4ILAwQqMhO+Jsz2zKc+maZGYA1lPCRvuZbwyqk0kxR9wdirRVsYy4/kmRChP62EI7FVSexyG+ASN21WXQ0aonEAHyadKnRkDycJS8FpKcs6FyCI57SsTrtbooz6S3KhMFOPIr/Bg/0FWjyT+9ThMTg7bBHOY1x0r/IcwwGCqIeWdJTGB0Ly2JMJ5fRLo/L57fQ3iwnsS+bz2U9+/r45qYADh/+Uk/Wwsbg1QnBs2YRleraSbjwQSofDhQQaFGpX3mw8UoqVR5p+6MiLHREiqSwkryDSQjIdrAMqgck2Lzt/JACEI3lSOEXLpLG7t3SBrVZEwAnNqTXaUtPsyc5GsXZwaw9Ie6RDFR90Z4gJpRt90gSjHUNqzKY503QbSvx7QECDEbSrGqojsKbbmsEXr/AmSeI59REvwAYV6S3MJoykDCzHV/AscO+ApX7SOgG3PgTs1lLTvfFjeb6hdYIkROETPyFzdd0mTVjmku3rAm4onw7kyS/xlAH6ljpQ56k+dGpPnewd/UL/RszA4SG8c83CvgwupTdXXT6o1WdtV6zm/l2De5lxVXp5dJmgClmotuY6xYjw0FfD0PhWW1G30U9qB1oYJEkaf93h9z5phz3TJ1erpA1shsEmlU8mU1eZBcw01GivXoelZYPT999+trv7lYG7sbv2hthsibZmqZwGTY0l883ypScxrvu8en7p295lP/f4RIhwtLBqtia6Br9Sz/O41HRBDGOBDrpcxhr9N1rTto1+2nrrF847Mzt9+/U3VB15SiNr5qSCLa2IURfjj5kXDqjvDrgNJqgpdwk5OocvcDxAzENrTmM4Q4qtsCnMdgFOFzyyRokJpbggXYKhwym1QdhAEQjk62WxEcrvZxPJbm8oAzAuSREFkbaUmQy7Eh7CKGIlmMV9WtTxtOss8GF5ePQGMjLT6U3cXkqZdVfPyQXTKEvWCkXyIKtWmxD7lyudLaFkhcH0ZKT+sgrBoOikHMZ/AvogZVRCiQPqtwguCJT5XaB+Cg3j57dO2IJLARL7PjaxIcK3Elj4ehPijh/T++YcROqgdXSmT+xdWkqTPqbzfZwmSwMQaF1vGHOmfviAmH41/kB2bMCrLrqrKnozkTEBE0h4HL7ZTX7N4p7LpzANvNvbbeLlP0xZLo7RlPx5nXtmrZOK2VOkmOHBhA6HTLAZOQIdtFsxrfoiGYr8S6Q93mOYWvAdm2tQ9KtZwmvAq4HIsCW0p/VxfahWT6OYzy9//FIL8WB2FPBAW7gQAkLMBxmu0pXbycoWNJfojLud0yITxcZ4/4TSJbnWagTdvdHT0qNmxNAbinwZ5qFmcKWebWUMX4K63mShnuwAUdeZdyIVDlgADsP0QV9302geApIJlSiEyq/ipR7VXILwncw4hykQAHfHmqH03oNxz+yNgIPKGGpCjMAyOIVMiJsm3Ui8iFzcLeTp/l4/pg7HFWritcqjbiKwDHIAFhhhAtznTpRAcKdAolbJgjaHG59G8ot82JWkqitR7n2RIXxrmlntj3jOr0CVVDjLi9rrErmQzVuVMO1PCWgqpP5LaEKYeqy5sl1YJHvhUKudvN+2uJEhDmpcndjZgdW4wZzsWZKfd9TZnjBBekxDnWU6rrbS5DpP0vbGj8IM2knZvZ32iXLAl8DhNmqdGqdELO+ecNu3k52EIePfx0/anzIJGAPZhMg14yHKry+CWawh8N9NbvHbWidos9jJqL9WaCdHUHfl8CNIKlpTV77U0/nAw9Q2GOPwR4NApobTLMQkMvJwvCetTRNaXcszn757P+3/I9zDWZoEDDPkFmTuC4UyGA4LhHukcezCTpHtRzvf2zN+sVr/L7++ymPci5yQHJDYh72AvNQg5g+Me4qJm4nB7WftmQM0nfjgxSc0uSX35J1JfQlnAIymdkwq4K4cK1Yzh/kbIVpCAaiOt4KbQsgwyG7ET3u4Bav44B4p0AT7gkZx6d32T9/pEGEkIrPOAafMeOySDWERORw2a+MXTBAsc5zn2rFXwLQOS5hgExZYUembqAd5R8eDdUNM4LcCTampNXx6pHcQlLyJI/3gVu8Ih8NIyTqr3QbqGdSkn724nUB1ZyZA2pmPWyIMJKROha1N7lmcDF0RRiZX2Ygx1EiHIeBR3BUanrYi3HB/DCUxNyEthYk4vVNigiDK5tIONiDjqIEGc+Q1l4DY1e3vPtELGIMRmY5w3kVYcYVFdVhvZKu8qHnWOK/Yrs4OTE4HyTvNscv7Uok9brhIja27xPBnAD+Jh391NXy5G6OBNxrBgzN9pXrAjGH74TezOlyn7YZjFeXDnZlPwhbZp49AgJgHO7wG6QrAEOaXaJEbfQ+UeBNsHc0yCds/5fG/e/7HvaEajkn7nqR8qDFJNrkBKaTA7AULGoLdh5kWkG3I9FpJGXbNxYx0fQRorEnJQGXnMPk+OGITHOcKxIkrkLHGiDhKzNlme22NDZiBF67P5HmQqQj7JEZs5PKw29ARICIViESCppl22jLb1ljkjTg99qGRyLeVNqc7GC373s1eJN3LIQC5rFGX+ZiNOTgeR6q1MP1vvmvgwDhPXpAsJ3rnLqLR15KwlH3XT86R/PZZpErvLd1hQJRTYc2T84CCi/g7V1bRECboSj3QdahECHe79MV3hfscx39rD/q39nXaDuQ+EB+tKdTBKzXUEeQ6s8qHqKvt9Vs+Tgg7P15sLYIERuw697ITZ+RTe67qHnTc0kCJj2kvV7IoWfU97aFKPk1WcTYvJ1PbXvrSDNJUCsp7WLpUaCG37g2vqetqgDsOLwXaM84ustZmp8eaJJUmVYU+UwjhwwRjmxL/XJuEhnI9oQV+UreQ8OPFgPuP6j92fz/blP+D4SB3tIKTiVlpZCFHSONwTArkffCqXjDrSBkHeOCxeRa+/yQDb1IV3kuTjAfw626QZnN99+03VS0uXxIS+WydyJQ1MCA/3/gjOtYEkzncAkQNQtgjA46TUpnfR80lEYW71zmWgm2gJZw8DAOxy9ACgu9oO7lJEKqfOcyIzLqPa1cOIyDN4bEFEcOu+T7nl4qmbKtV9B1OctBwQo3OOqcPqCkgPblY9kAoQyjVIcHyWyBWe1NxHhNI6uAeZrRK0qelG10WuUwymjSWglAGBT95KDymYOw+sCbZTLymzhI0ock9fjMlIeGSrAAHqQ/oXWfOveV1CAV0sm86UaUQCuV8ToZJsTOsYrzqdqNU3o82NmV3XRbzHNzlUSHZpgNFpk1SUZhbs5mAlCibpaFJU6KN4eKn6tflC5HMqBcFz9In9lOJEAIB72sFJhUA7lPAP6aadpFvD5Wgpxj3aS3PfUDXzLk1DJoPLw2z5xrF2L4LAoKXxBUnH1/nvS7xJP5PY5u+730tidM/v0tIfePy+Tbh+dzpk5NzM6Ja7aD2klL8SQKW94D/7NkG0try+f/S4m4NyNjSpT5Dtm2++WT1NEt9vv/u2GdM4FhjauLPVCDJskyxWaX+XZ9klD3jKAhh1dfOQdKjGejpl/pBfnT14GMAeRO/nVKECC2S+H6LsEh0IF8ndyfIB7Qz6cMffJKs11dj8lsWoktUWaIguL5YF5bxyKgTIHoKge+HKkGQvO912hycNyjGDsf2kfkMW0lCZWxcjTlT6ezAU4sYi2yEd0h4SUXsRgtURApdJKwhadTH3Obc27Z2oRWsJYCL8UHs4KPLcYDoDMRHR/TC2znmCGWkd5HcutE/bEEPV9Vyjqjq6sU6+G32Ub8/ZXNUPiOU3WEJadWr3dranbua0MEhecTbfMANSQNqhT8BfGzswf5j3MCYmSOcsA4dtJoTBqVSNbZ7yxb6a7kBwdu2tcy0FycCHKKnGenTPFEWeZxGrj/dWWGQle544OEuEUdpwLyK4UToS0XSUhwaylIAVPmvi+TnCK8D+Mx2/5x2dk/K1I9IgBNIFvQEGpUlkAhdw9wcMsQXHVl+9eLn6+ruXq/OocfdDfOI6H2beD+E9TqzouxCdrctM2uqk5UdsHoC0SgJC4LjyzjQ1RABUKyYD5oxHFZfj7bs8y/7kIUgrMdgqb1J2HQloJt/bNSqoHuyyEI/wujF+QWDENfV5feAtRQZBwEjGTtsHoaY+X2SrlDUlEMmedhThcPLca9LgtEsWgQ+xNUgXfYEMXWxcqZJBD2JVgmhH6of0G9IzpB/1COY5W0i7vpt5OsiNmEmJQficI+yZNDS2OJUZY+yyplyfy5YGKQ31iYQbi4gjGVO2Nhk/43aFIOPsoGVgJPoIvo39zEGL6aqNtM++iw0EyDOQH8PDZISxbUfFv4pniVagbeYXmwg4ZRpnGoVzDN18pzlgzEPbjVmDKfIehoYwT07W9mLa4H1tgGtsRHZ+F4unnV2FQvPJYTlacYT0MVYIPOPAft6lxqeCb7Mdw9mf/UU8pMGn9JldvxPH0ZR+U3JNIvz/kwD14SMixARGwzI4ECidCsreSiWSS3Q6FTToFgmRZENBnTcQJoVRRTcgSd59H3WTZ3JsdLmd7ND2jjPvlQiKxJiyDXCmImFgfJg5HgHSHDA8rB3I6jQBPpUlAwIBeCbv42ixAZvBq1yOjUOlDBllUEtEPHCYK6lZCh0ECGFy2olfK8SbDjHPd9oh98byphHlQv1WH2la1SnqnQihLVnKDHjuId5GycSbYbqGPUU9Qrie2YoHgGQwPdOFsPqdD0S2/MaD/ybXAAAgAElEQVRKlMaQUqeCPAipRJ9+IeLLbBkmEom6Xdhjhh5K2fqt/0XEvNvpl8BLveBuyU/jONNmji4SA2HQKcqq8jz1/jJzqZgtzcCzjXlNudeBd7ceAL1cb7mYSd4ZCDsINpgS4sa2JXFaTzXlHedwoRkHao+nnPzmWe1KFmO7Jlr+AnuHgAEp1q3QTBulXs6Xhs+lD7KMu2ZhsVG9us7UBPzIOQeYOsQTfxfBwARIs1YvBfLn23KoPUxyoMCtxjT7p9xJmK79ocd8bz7v9/L854j6I3UUkIdnZwCc1ABaqoL8K2N+cNgdkFkCpnOeSF5GxJO1eztZW0YCvUvUTL1p6byjDpog84PHD8uZz+IVIzWuU/Yj2369j5cwqthp7K7RCdEhGYxEPbxOXCp3vbnHne1EggRhXyRw90EkpwWvkJEU0nY2Qm0kxJKBru1lnqVe1yBuHC6S/7Azt/azppF0Y/uYF0w5VCfMoxIudY+AAQtFD5oXR1Gk7ERuAIYg+jLiLAMXQc2BAclyL1t8d6/2MC4rL6hQ7BsIshcm0JSHaZdJbmqvDVSpjGzWRuCE8Qlkt35ueCQHohkTGsEIyUvfF0TY+dD8LlxSD9X7/U32vsgYsXnZq4i3MahRdXdSljAvKz/gACJoZoG0jdoJrnXkTOLLMx3XlJ9LOaddBM7UXqEppJI2eybnVYeNQ44y9jzPkXYT+pbZjbNr8JWMD6eQQjN+Fn4bD447bVaH8bBHCfhaHnfNa59ytU8gB63E3C3zhkq+mxX3Irku660WjcTkCF7Hxr1Zm1fa5FhKRtcm8QyG8/uEdZdol78nIf4cAar3di8KD5cTpyO4MiA0gDgADMb1ehuWDpSjIb4AxgYw/+4//qc6UuQV9RxuKX8MRDUHZ2vk5psJcL/Lgl2KLVWHZKOS4dKQVPnqtpMtDswZgYt9iDQLRq/ek0SRKlYzNMoi9T94GFsrfPA0MYl2IbrKpMveUULZ7gfRkoLxPK7rsVddgJhiIF53R0pi3KMY/kLapGIUJmZ6wGBSBV9EhREDK9kTrm2LbmqZQ/+sh5w2FWmCQKwfhAT62bmrwKKSOmUKRieZqMwCo707bNLh8aX6mzxXtvd9pg0mce+EP1SoFxJ2GivqZdrlPerie4wiCFd7LYRsfvZ9HFk2lJE3lQPmMnOLMBehkfL6513wvx81X8ig6R7b202vKeRHFA9lQoC0eb/LzMIhLkNU1FH4gvFdZxx2M4aCH2yB/iB7EWqPKR4MYkTa3MRc+S6rIZ6MaZfgWROCpS/g2HjY9ruUPJxgEQrabHEw/KkDJm0JLyt8ugY0Cafj0uqSOQ4yFuDvkj7xdTy9GGKalDaGoaSt81gSn2vKAv/l/Tkmnp33lkTq2Xl9EvUs67agHznpFMU8VO6j070egFI928gyAhwkXxmDqj65/50tuwJAg0dSAAxA4V4SxJpLM/jiOg3+bpDxTRAaQrKPusA09UFKPI30MHf4OkRlw5iw8tgaURVz754J+thMvGZc26JjXr8McWTADlOHaI/NsGAzS5fh7J3cFZd4X/azEbxcAuFlDcNBkADmmu6K5CENwEDspeuWxWAWdWaEsEY0z0BYxOVDY6CqgqT+6AeEqJ3F1gyhW5nfVRjl6MLuxlxpMLcBABwU5ufA0qfzZFHV2Era06VORItPzidSkMCIYqiv64CAdKYLYnMdM+Co8O3QfkRnTLVTlA2bvQwjdZlaoRqyHxGBj35rtzElHZ37uIcj15sarcj6T15s/bzIPPGTMN6jwO1t1vUdZzyp7jYmZTJgcPond6k2ID4pEodMkvx7ZK0zLpaOGSDtG/Ae9mmnalIfz3WZFz6bujHWqr3alfcx4depp+GU0QxuV7KEwMtQckxCHLBe43+uL39PWinswHH9aQGLw/V5LM/vPjd/1yYcEmjMAfo95q1ghPjIdExj1+M/g2WvopchHi7gb998t3q38SADfbB69+pt8rhgTQFqEA1RQW7GuH0p5JR5RV/PgCDYEbPJBjW/E0kbBMTdZImWBoGKY6S7zZdrbKv0kS310M6tWXHOdnEbUpkEv8gksLJ2w/mwvkqcDDAGwKMoQDyjnkEN0mQgIRn7byPqicl6aiH1+Sg5bCADhwDJkOLrsROdQsKZJFdubS2I4gAnxJdTCEEF7vwYYgijsEoAMuWhvleJGNvpbaSvdsrfQjsYNDe8gdZZ8vAh8ox8msFeH5oJWHW7t0gYBGn8KnVoDZHKGKJFueos0WhXGQVJRupkFy0hf64FFkWflO2v0S9pp2/3Z+Y3TicrLJQDbs0rS3pGkmOMct9ItlR/dlTzAwRbRjXWHmKuL5O42M7B2jViT0ekTtuhbemXtIVU6VeR5EOtHhnTtQkDtbB3qGUUpe1kZz+KUy9ElvOXVmuEgQtpk33v+6S6uP7yC2DXveJ8o5dyjP97OoRPvu8S0mTWU8pNghxvjfLuEvCyvPncp75rE/oo3PfgsJAj19u64Yovf3e/PDLXglziLm3AgaNBGmvcjvOe+wBcrp4SAN+UBWmyEaP82aPHoyymhQEvYkHUIHfeNwCH4Zg3gnNzZycSkEr8Jp7Uzz/7IqFaUfsyH3c/QbwHWa0fTFqdvo4jKMj5MHGKLxOpz54jOa8/mL5IxESQ4ihtKIIF+Wo35k/wL/uCKmX/BMl2H6yRw9ZhRo1XlL3BpoPIsgewV/XJASk7L5j+ijntqvwQXbNaR2V7/PRZNQjOLu8XAfKsMDtTMGzcI9kB0q9dUSZBRK79TgOk/vtRA/fyzsy/gilqM+dEpXOAbDNR9vFY9RBwsQkzKL6nqllx78h3pcfQzdLfpBeJ9GjGg9SNUVI/2ZnUWb+1GTFiqDIkUNlLnBmzSQhHIfhnYXJwJGIt83KRcIGb7OSbYWpvQnBY970wo18+fVQH1mmymWN48O40DHVKWMwDooOXQA8HO972A/oIs87ZyR/kp7F99jrBdOZkO7VDuGhGahQSOZdQdaojfanYLMcZh/onobkyCWoS45R+k/jm70k/89t1MPynHLeOmWXhCjBetQDbUOg6peHgwihUJ48vjuts2ctK529+93r1WRDu7enbDmJXOAQRSDscjXta6gf6ehEjv2uE5yPu0qoHRrWJ2u2sSRPvKA6QerERV7ioenbEdpD5UQzvV99G18+85JfZMGY/DX2WjVm+ef0y8YgZvHgwx5RQpGi4YTAmXrZ4/9IxhCLoGAe2YJfjBJHUW6sNGUSDr42drwyiYTqvEoDMvoH4GEv3TUxbbN2GqF+9yvZv+U1l0+dO4qfgC06YtBfx167kZc43JDYxod+8x1VbA68R+rf2UAbyVCprJI0ReIk4afTOXt5PG0nu2vPbduMduWgQDpu99eSZqs6eaXljigARzAnySso8O6dkpnb07OnT9hPx/epXv6o91qTM6e+T3Pv2xber/U1zosOzzLY+4AyKkbiTfKikGFI4OblcfR/p9yae5BchvIf3sslP+ixgYnhEE4aYCCow0RbETwtBlN/HPsfYOHO++vbrzqX+Ivt5YOAkPjxrprmMoS0CxJnuxgSx/lC87R68ow1BasIFNjvP86ThXQL7MQKaQsrzU2hN4lsKsUnAP1bO3et1zMyXcIMOdD6VgiU099ecoc/mfr5nrCT1yiC/z7TDXuZeLqLrs0fYLjjXSOyTcgIIKwSoZJbIcFCQskWKIJE5obexI8zzII45T4YQ32bDERm4SZJdMYiIKtLoJJLxV198sfqf/rv/vjGIf/WXf7m6zD4EnyWm9cvMU26FCDYSZ/gwE/hPHz5ufOSHEAi+grB4da9DEBdBjPfxyvKAQtpBXGJZ471cIyqJVI9hBrPIk3bi4AgG0cmsRjrux15t8HT6R/1+HKkv/I5kA8iuD0y53Orvo05BDKosmDfULfcRfm3rXBfDiugdntEO6habmGSGnDj7HEft7/xurk1CMq7eI6BIQDbfOZinDWPH3ntji/I8M6WScvX3hTwtQXZSst7SlOseJvUq8G+Z7OGUdxCH06PdxNyWO5+vXv7DV6utSKb/9r/616un0UTevn5TiSdw4VWIGXxJVYTW/Dkid9J3n9rJqYufwX39azYGEjK4BT+s1kivqjlYD0kCl+GHWJWBqWBeIrrCpuogHzAcQedDHYXo45jEOGE9vydNfOr+kn6Wz3nXvbvfd6+53/0JHUsCbGGIDbNIOUNxSwdw4LW6GYrKM9mUI0RlZ5/T0yQ22jysVPkQr+R+vI/Rd9aetCgMawCIBaxTRuEZEGWzhXykS7QGbj8c9EMg1nWAMfZ24oyh81BBBF+TrodB2O0g9qPkL3kWderf/tVfr/7N//03q2dffLn6o3/2q9UX0f/vR0I/fvZZNgpJdEwGTJCZuUE2L8nOPW5K4zpEQh21HtLKEIhP0kjHwWkgo7PFswKKH2Y6RRIjSMiTywHEJmO5WtumXw1kSD3dqjvtxt0BHzKNVRhjXdx0tAjO9h6kxNkbBBB4dbVGJAJHFaQyIJ0n7PiMATZ2gh8cpj22spe7xbhjZ6gxIc5LXdUsjGMsGRu6jTZ1ni6H8UdQc1oC4SFo85mSNT8OsfDKWlKGAJS5H/t4+yqjknJ3QwRROleXCZj+7je/y+cfV1//9nerX/3Jv1j9r//z/7L66ui7MN9IW5LrMHN8SU1oGdujLMI11UCj0B57QxbfAtvDrMTZDixtpc65x5yxllI7EB8P+lMebowgxG5if5N2lfGyX8VZFhYQFpiiDWQAlXbHD9C1silnBqeAwSSoCQ+/i6frYzw/hNaSmJwPM26Mzbx3V8W9W9Yst+roXQLsEMkR0oauqVkjDX7vhXsnaoSUlA37lw+fRppcrL59m1XTAdxFlpeIUueRGwQTAAZBBN9eBYjNZRpE4Sbg8GATnUcaMb6lsDs5Tw7SuLgtHjUhb9U9hxApJljY9+vzdysWGQ/c83t7q8eJET1Kav3T//iPq//jr/+2Kt9/8a/+1epXf/qnq+e/+CLOAx7VzPdl5cZGbIn3aYcJ8BJM6hJuxSN5HnjcZJ0awtnK9b0EDYORyBxwepM+It6M5mpTcqOgg0igZkEL0TX1Qr4P8x4HRUPAMujNPhZQdlMbDoUYo3shOrrm1dmYNukghylCsc04OuKiqWPLFMUoJ0AtU8xB7c0iOfYx9Yyk3QwxInQajOkORETiC2SgTgoTI8m6xEkh6Y8AAOruVZxDpLrwLvAx9jQUhH0/THA/fXkXtZDT6DFbNMR+FoI7SVzmUX6fxCb/29/+4+qb//Tr1WlSVj4F77TxXmBzEEL/ImP4KFNHv4nH/DR1fEi7TCkZ+9MwQkufEAktAE7Vsxz7WEC2VCY8mrLJYUTGA4Htpy3b10MNNZGfAQ4MYgMHQseph2q6S4qHWD8LQ66jKB3nBNzktAssy5ANTI5JJJPYXJv35vl8xnXwXdJPGdn6mGXc/Z71eG+WFTNheNTmw242YDmNz7+1ztz2psVDQta5kT8Ts784erL6YvfR6t/++t+vtu7vrr7/EFUtAN3NwL/+9tXqizhPnuTzIUjBXd9dfRB24CFRz1sLVEOsG+GovI7l8AF8U1ME4FQ3StTx25NE1WSimSTIvQP2ZlTQX3722eoggP3nu0erv3uZPKVxYhwm4/ST2KaPTm5WX/3lX62+yrP3QiSPvni++uM//xdZjpVJ4kjYo2dP40LPwAXRTrKvwWkG5tgSm9hMmMrBVgKIY1iOqB9LpEiOOJkyf8aJwLsq7lEUTSOMEGD6zS3PUXUee6SruQO3nSCSnZU4QK4ygSy/59iTMY6XOGW+ji2LpXMydN4uhOVznEWzZMOuVeNVOzMMgb+0Ipb+XETd3sp798I0D6IKIh4SQZgb5xbCOw6z4X0FywYsgzeoUl1p9umra+/Tt714uD9wqIRJbQWu26mTqncvZTyKdD+13V2Y5NtIp1e//sfEZl6uvsuzr16+DoEm8CIq/9O04ygE9Pd//x+S5/Lh6n7K+OPA+joqv9QoSQezOs9nOxPmpg5uMj4b+TQwQhvDROSLeX3xKkwleBCYQXDTH91OLdceP4lkDpMw7ZU76U/eCWw+BHZ2+ALJnYzdft59kIXLf/FHv+q0RR2M8GudbQFiT0Ka35OQJqFMe8/1eQ3saENVndO2KfUG/Qya8t68viTsJWEqs1MU8zMrN9IGq7SScwSYvuWbejkIM22o6vA86skvsjf40++/Wp1cx7uXRL3XuW5S+GFc/CJZIKOwM8pZ925IwXJ/UDt2Ug916uRD9P2qTSN3CNV3pHnHqVJ3GsCKZNNshGs/CGHvBOpf3n/YtWIbkY5HkXQ28XwSJ9EvY7hzIjyOpOTo2d2+Xr34+1+v/u5v/5/VSTpxE4J7/sd/vHr65eeZ3A/XDpfeimR7EElZT2e+eX5NXDPud5LuzALi3SAY5VgY1GU8r/LcoDjeSjLq6PBR1cqGnsXmIiHDXeKSTyR/iJaqu5m4Tc6Yc/sv5nzHHFuQqxFJQRTA5kRBGKJcqMZNQZhbBr4B0Bn460hkajDp8DBbx1HdL+Lo2Ekbd3ftBGXLgavYbm8ybTQcXdS5hzsPq0p+F8eWTVUepO+2EXhAEop0SqzXZnLldMuz2Hbvv3/RpWqCq//+3/2H1Vdf/TZS8WXsv73Vnz7/fHUch9T9tFMYnn5kRmD11T/8w+ptJCcJSqX8489jHoTx7ER9fxfJuL8X7SYgux+v5k2IZUuAQfrHeUf7MXvMRqcBXWT8KgXD2HhjDzM2rm1qE6mcMk5jAmE08OTw4dHqZeKWH6T9Wwlr+9Vnz7OPovBCUzGxL1Mmu1l51TwCS8Tjc/eYRDev+31XAro3n/spYpuSbwwZNjiObgizfLEyTgwoQswzptAhvn+9Nt8NIZ2Ho99LOoE/+9Ufrf73f/9vVhtR1e7Hvd/dYXeDDEHGJgDKIFhBfsldGV0IcKki4R8l6iPRJCRvCJV3bSd2XieQU9l+nt0LcRynLBEY2mvjzteJvPkf/8v/evUnj57CzKhsUccyX/Vo78Hqsy9/sXr99lWR2bIYqzoY9Iz0l7/7drWT8p5++dnq7/76b1b/1//2ZvXLP/+z2I5Pu2LgaYj3KJLOBpMmgo+ePskC5thYIb2NByFotmvsDSmLeUqJdNEzEHZ320ahQdy0J8McYhYFkr6FGM9CsIjxzVnUs/Y/tuajMJ94BKNBJXQv0xCRIiRtnVnGJaU32XAJcGxFthFCafB0CBSCUi134gDaP9rP8rD3qSJvWYmed44DQ8R2FHtIJIsQPRPWh0FkOyl/nikWIdvabrLdzscHsSNev3yzOouD63W8we9y/vLrr4LUL+JU21l9/ZvfNsb3T+KRfpaEwJfRRh5H1RPUQO0WcM5hJhwOA5rzfo8i3f6Hf/3frF79zf/ZAPKX379qwP5DwfCJj8WUdnbT55QhNHBw3mgAGTsOIqt2mngrsDJHGSs+uJL50NiCGKoVGpxDTXqljxljuVd3A+d/+ad/nvGLUwyTZyMi9sCOkHEsiW+eT6IyDstr0+GFZmqnL467RDbLWJb/0QvrH7dTFB68/dDNEZ0GpsXsQiSpzZWLuVGXd8jzPGrRP3/+2epPPvt89Q8vvqk38vlmJogjOZreQG6QIERjAtNwOj+J0qiMnItqaS6Y2CGmDXi0IAzHQiMb/l/23uzHsyO777y5Z9a+k8Uqsqq4NZtNtTa75ZaslmRZaliwJVuGAAMDzF+gxxnABgw/eTDPg3mY53mYeZQGmHme3bANSCOPZUndTTa3KpK1slh75Vr+fr7nfn+/yMtf1pZZzWJ33qxf3XvjxnLixDlxTpw4ESHmZHyGLwVjNBrgqBr9gFTOv/XmN7Wxq8aCgoWeni0Gj5+QSf2+nAMYB8mb55Csk8zFXdTYZa+I/7VTp60+Tmncd1KTu3vUqntZ4X3penfnsojuRx96bot5pRMvvtQdP/1St1+qz6IYbvGgDqcRDKjEs+psmBGjMfEZxZoJ4axL7RaX2BKLQWBaHRU7ANCzMzZDAxA3uGc/IGmAKxerN9YZi2lntmW7gWlto3Cgf/UTcYJ0VilQF8kKGsD7vcxoK8R1jY+WbyofVE7hdEXSbh/WYdRiCFY43KtxM9tZrOjI8CUNAm+KCWmX1ZuyPGsMhzX3stZ+shTsqtZ++rhzqXWrqs8RTXe8oDZduXW3OzGz2H3z3BvuGL6QNKQ8Vt0zBYNqeP3WFQ9FDqkju3n9mgmdyXqu7/zct7t/98O/tsM7C8D3iDGXGPtD6HSuSgfOsDkIbLc1qrwKozlt9SwfZuFSUhQtAZX0rmBZE15WREvsCGdaU+c/Iyn+6ksvdW+dOWdaXlQZuNSJZfUdaQhB98KmYbYwU4RT+CIS0HQMvKp7yzeupK6WGRP2sLvV0U0ZCVqroO4pxICWgMWMAM1+/4x36BFmVZFFxefU1O8KwT8+/0F35RanKsmCKOL+QlJjQ4RFb835d1g8YW6MJuxO5jlCechz3PTtFW1NJ6Su31e+6qnYQgGr4x19u6/BPfvXzKnHg0kvfnyt+9vf/k73zkuvSM2QFVPjlCvXLmsrhXmf0kq+SJTDcvTFiHPp0kWvN7x4/nz38pmzHvS//94PbR4/KMK8feGiG//tN77RfXzpIzMIy4um5290f/aXf61xprxnpOKyw/gRdTZ4YsyJ6feI0A4o/MUXTnqelLkyL1oVg04LJ+ALVZJx47IkPFa8fVKjgRF75rI6iQOSaEuC57KW8ayKeOzM3OMcE80ejSWZDkG9peFtMFIDYJBAbV4Sc+3X+kakz1GNG0/If/fqFfm9SkXEdQyGZBOk60qHS96tfi4To8WVTz/t1jXWnpGazBHfuN6x2h1Vj53t9gk2xlm3ZOVkA6Zz5852d2e1bgaDjCQgEnZKx5TjgrakTuqWxnQXZJw5KOv2jQdX1AlKoqrDVcZWtY+Jib798tnu4p//uXYTl8ak6Ydl0nNwi5jNZy/S0ahDYCpnr6Tqxl05+3s4oblWaUxYCPDVZU6V7SSxeLNy/h6H0ohQGS+uSQ2/LRycEKNDlyd0ste86HVdqjcdkendgkb0B3f2PAAvtLMFLV+048IwYctsSQezPTETTkwkYEwJvdSLOZxgy0I1iFUmdU/0enfUG33rhVPdd15/q/uLH7/rxrzPuFBxmQNj9HdH5ugbtzjgZc6Ww3uYqtWT+FQftTT7TE4v4v4lJN5mHZjSEyakHZBKgnq3KovXkiTYC7LG/va3fr47QE8pMLGSHZYBACvlLQwKInqmNZhCYIcvtsNgoH+ICWwkL147mrdifkst3h3HlU5ErPkaKZ1S5dTIeOGfkLp1R5PNmLwX1Tujfk+jpom4WB+5orHJXUmb+0c+6S4oDkYHrKl7JIUYR6KGIrHolfeISFmYi0cPRMvYhkn2fYJjXpbdg18wyS4jDIN5EaPsf2bgw4fkySN1d0Yqvt3rhHcczddvyGdWz3eFA9ZZooVi6f3L//3/8hkch2F2pftE6iMS5cqly+USJ1ysiilxG7ypsR6ETX7Ud78m370MTQy6KtV29uhhzw/e1W4I04rHqHyPjsxm3Z+34tCC2juSLHTWd6WO7hU+Xj79sh0PUKNRCT2frHbQ0mAPd7//y99RB/jj7iMx3tpeqdTqjBFz3jJEdzQCFlpjOWczLZZBsfnxfv0WFNcO9/ohFaGx63e12bNUaSHP1vhFZbNxQ5ZzSftvnzvT/eLLr0niyhItvOKSOKW2MQHrn9UM4bhlGjo6U7nStIzHO/GGDBhGbdMlvTN6jIuOZQSEecwMqJuQB5wATIfh/SkhUIL0m/ZuqmoWjA08KvTv/+J33Iv+J3pOqUlEJA8OirmtMdsdNcYJjbFY43dHk+/sHXNQ3jPWNdTE8+rJD8j0fWNNC32tb7NdhFzC1ue6/WoA1IujEqv/xe98v3tH7mvzQuCsGoJe7YB67ttyV5vRSntKxbz+2YULtsgek6WUSX621IBgmEBn3LosqcsA/Y4MF1hJL1761GMK5gQxcnwuwwJ4mGaLDBHuASFiL6qSYGBS+tih45a4a9c0bSEpgHRcntH2fA8udh9LysBonPPOzuDXxOQLMsqwMuSll0/bEnhc7lh/dfGypIIUW03rMAqkDVD1UfdQVY9pjOqDXyAC2EBhByStsLRyoYbhOM0w4YbqwXYiB7US/TPBjdaA6xxrJzGSvSRcfy4JMe0zII/JwnjcLndIVm+qJHhPap4VqYh19fPrV1VXDBddd0AWXIweTCktaWwscNzRMFH+hba0XFL+MzJ53tBUBao0FQE3MLjpiXrp4bRw8Ae//r3uf/23/2/3n24qf8hNNGcfWO0Zy6Q924fgBDInPOPowP62MB2rXXBBZB8jqTNeIIAKyuS/15ICj8pZVKf+ms64/KPv/kZ3VMYiKIKj8x5Ic1jzfq24ZQKN4BLTwUgwkTvA/t5KQZ65+JYxYsLCmI7QX21+fA8Dt2kSRhJP1qcncAIFWh0VIv3G3TD0Kiqkokaht16XRKGXXUQ3VqRjQvD3NPj+7Pb/IyOIphRksbuqKQivVdO4ZY9M5myb/oWIFnUNwwybMq2yY5oYak3EcVPESK9uU7vGDuqauyWIfk2IEzP80a/+evd3NSaB+ZbcM4k/sFCKOMkRrscUP6dGvK+BP5u/LouB6E1p6JtSpTCQMNalSzl24litnhCcGEes1kiCMR/oSWDlTbwjUj2ZzF+RCoVD9SHGrCLw/crr3rJglNqI9wmnFbMf6SExLFv4T7EbmNTFZcG+fv1298oxdQCfCiZJ7UsahzKpvP+F4xqHyVKJZRPfUUlxlkR54vz0bcODt8kLsvJBztNiSr5D2bQS82DXrl7WeHTZKt9hdWa00ZXL17qDqvfhFw/bSMP83obgXJD0ZV4R1zscEb6QOxk7XK+IiFfUTjdDx/QAACAASURBVPNSEZc9dcRys3vd6dOnbNy6vy4C1pDgnsai5cyh5UgykAEnU0/HxXBHZLC58PFH2rZEe7pAI+r06L5hjiW9c0Dot185K4PeUnfhf/tTjTtva7JfHYtoZ1X0dEdOH5xvyfABLQktZE4Nwbb7OO4vqD7s5n1ftLGisTNtRP5s/sFc4SEtZXrlwOHuj/7ub3Wv6e55Qn2XrIWL3DlDznS+pu9eurWMwnOkYBgK5gufDKVeGA0uSZyWyVr+Ik4bj2e7rbUFmlvrnzKs3pc7JOtwM6QqIYLmxTtfqTpsdTAjJJySSvP7v/H3undkkfr43fe6PSLSJY3vDmiccEeqHB4kTMYe0dQGvdtVqUl3NZWwX1MbexQPH08Wva6qMfZou7xDGnesy6hyQMz5X/7m97t/8M63uyNqWCbqvTenGsNI1TJ/xi0+pUkS4PwHH8q7hZN8l7oz8qChATgWjZ78088+lXFG/oTLMkpowfB95gjVUdyUavOFFguzYuP0mZetbjMnaE8WEQHeK6hxZ06f9vo8iOKemJKxEeb76yL6TzRZ/bn2ysFAc0tbftxR2CVNjcyKqPaIIJZkBJq6IXX0tszlt+5pjnWvDERanKy6sLsAYxaWPWH52yOmRltgNfghEekhWTMPY5GVlKJ8pMQh1e+OXMtufHapOymcTmmq4fqnn3WHIVbh6YjSfC5Dyy1J4mtstqXxLoYvOi/ale3tUdNxgcOAdF3GFPYAAj93xIgnXtQ8LO582MjVO6JKMxmDqx8ODHFfxLGezpQpkG++/ba0AKnrYi60CiQtmhIqKmtNDiifX5CB7B/95m91bx472c1pWmRG+FpS++1VJ7SkOTx28qOD97IkGIz/UfllyLkqVXyKuWiGGbIZ7JNF95AqNCP3xpfV8f6z7/1290uykM+po94HXTI4R2NC4IheH3ZB/+0vcSPxwlzte8KSLkw5ZL6kIc9849mGmQTWcw1aMz9YPIfHR4ltjA9eca8uCAOHmVYNgrSE4ZBo70j9Y+PYPZIG/+b///+6Y6yCEEOcOnmouyxiYX/LRY3/Fo8d6a5I+98rVYbxFFMI82qgU+zYrDHkTZ3MO6fG+dV3fq777Td/Tog920l5lRpaqIEAODINGGyhFBGjHl+UenTq5CmvOuAoaRYWv6Te/L4I6JYkEKrWcXnjL+xV7y6iOXz8aPfi3CmdEHxJ81mn7B7F4tUfXP1h9+bbr/mItwvnL3i6BEsp83fsLOcTf8hDBMvc50H1/jAyltJFdTpYDHE+xsTu9YiSnhc0RntJLnUYWPaxH4/qjPEI9fuYpknwH70jAsS6SRxc2NhOcL/Gp+y/epMFrWgeGt9wQA3jwL3K+4033rBP54KYklOw6HCOyUjzgsoqtz1ZRSXNxGma89NUjQj5RRmZaEPKQur91V/9tQxSXXdGuPv444+7l185pzorP3UKdELU4ZA21wKvGxia5lGX5RYoiX9dEg0nAVR/znJcUlswhcImTaSjO1+XpPfeOmo+1Mff/cY73enjL3Z71DF98oWMSVIjOZ9+Tlbru8IxG3fRdri00RGyB62t5JLUSHbGeSdU3wcyNh2ShP/ed7/bfe+tb3e/oD1JZwTLPtEf7pLeV8h0Xk4o1ibcEdXPNKyrFUZFYfTdpYK2jJX4xBky1jDe8D1pwri8e0y46VLPEUOMBT09Qx8BRkMNoV9DZ6ReeIowac+FVNyP94mQ85YI4ujP/3L3zRdPdf/mP/4Hqag3us8uXpX6hoV+Sau9r6snPyz1S/NpwhTOuejt7IKN5FuWivSyGOWXf+6Xur+jqYgz83u7wypnFg2Vjk3qz4bS4VQwxySw5ptQjy9+fqk7/dIpTSh/aidpkHBTVkg2+2GrRZZdMVb6XJKBhbU+qFLE/rnWON5W2NIxwb+iDWOlHmJJ+EiqlU+KEpEylvO2CiJiVm/PawzIeAbfRpzVgQmJyjiQ8crnOhYA4xNbdrABEoYVzkdgioZO7XNt349xhV6efXCQtPwgkPu6M95a1h24fa6fVFevGdQfVkAMSziTr2OFFs6vqjzULDqLPbII3pBUe6BJa7b8w9p5mXd9x9iCl85n1y5b+t6WqutOQWUoo+66DDavnjnrNr2tMR754RrHth0wFGNl3ukwPvnkE6nfWnUv1Q+n8ktXrmjHXa2s0Df2CmI/Idz0UP1wwJhjB2514NQRuvlbR451r/y93+n+8qMPun8v39+Pr13xpD0dz6qGBkvCmXdyE75YGBx/3qNysFjGkV6d0luvvdb97q/8avfzJ17uDqszxn8UATBn2lW5/RiVtvKOEMoLRmyvSLH2HgYr4VQM1zJPy4xtXi3jEd6mT7yE8f5lJhSneXrCvhhwnVnOjGhEAjyVIkw9F0d/AQzbuHuilUbGrq188KJ4SargG4ePdf/xwx93734q30Ih8pPrV+TmdNVjCYkBnxlwW8hfwkfxoBrl0LHu9W99u3sNR2wt3D05q8XAajjZTV0uzC+FVXAK4SJyziS4rXEYniGYtz+VOoallB6ZalySMYIFuteuXfeJs6hpGIeoC4RxU6vzmQbYJ7UQwwKNhJ/pabk6vffeuyKwA93Jl07bwOKDUdXRMNLBzxWDzBdiDk+Ma7wLhmBwcIID921ZGZnABmMbksSsV7whlXcZQ4w6HfZ8QQJeunJRTHbLFk2cplmreFxLs45q6gMGvCVJw8LVOiV4j1aVyGIphrwhKyP78NAmMDlSdK86in0am92UZRcnZ5zXb93WtiICguVH+2TYuSQDzn32BBJWb6iTwm+UPUIPKx3qJ65rLGBeoHOTVfiApBOn8SIh3WFKm2FJE2tI72Jk0pwqBpTrmtw/qLE/GgfDD9oFFzsuLNZmAHXgjBFxNmPOFnfFJVkyX5fq+5HG8D/68MPu/Qvn7aUD83lbe0ljNg9jPQR7xxyQhHrj7Kvdt9/8RveqVNojwtEBtSmWUIYJogqPF6c84S2jCwdZ6B2LfdFQGUx43ooB23GgE+kaMljCt3P/EhOauwEe1oPauVA/eVUYIRAaUsK9uPVsIVS9dk204nuKszULVDWxrd183pI17aV33u5+7a1vdFeU5gv1jOdvaBs6jc9uSuJBAIzvjsiQc3Tv4e7I3L7uiAhgL8wghjEJy7+RtYbrDK4FA/6n3gOnX550V410Q6ZpJqhRN/dr7IRpny0XsTBeuHChVgTI+FM7Wq/JvU0eH5IA92RMgfBe1LKoa5KAtbM3zHvZUuikJnzjisawHvUNTxwwclvMUYyh0Y5wgTaAKd6MrE7o0KlTkkgYovot+5QKuJm2eOXMGUupJVlH75+/56O1sfQxt8dqeNLPyChFZ2UfSrUDjA0DssQI9ZNOj/nCE1I7L2ssSoeBtMbgwwqX6/JMAfY6FUsWajHGflmgX5BldFVjUi48hVDXcGhfUvmgG79TVjegSjNJjertrQ5VOdRopgOml5lcx4lellEx0oqYeo+YVU3mZUmr0mroCDGkkCljMjZmWpf6yShvTQYzVtscFi72T+3VfN7e7uVDR7qff+WMz7u8JQl7XQ4DtzS1hWEGp469GqNzyOyC2v+w2vq4HB4YZ+LjCg3NqvC7Gus/UNmcQWHBoTKnNW/NQvUiYFUQKTn4tdIpDJiwSEDeW2OmEbjN60tMaEkHcALY2wbCdfzoVlQH9yP6np2a6V7txAph6dmLTeX/OdXv9rCqRb+r96SGqFFOiFgO63dDxPOWkC1Z5sH3gsrZq7QAA4OxfSJTCUhU/APxmFjTeXhY8O6ihqIlCz5vdSikrOhnLwtUNRHcTU1/sC8pmwPf1EQ+lkSICWIk3CqcJB/EuKEef4qF+6Kmy3LNuilJjSUV9RGC+8abb3px6bXLV6zG2W9U41Qm81mZgMHp8i3NwYlJ5uS2xhjOKzNUT77heYIEglkI9/SDcMQGUouY1mXVvKUywQ+SDHXvnjoaiNyagtGtuiod2gX7tFIuy4my6xiC5vJnF/u4uMx13TF1Pp/Jx/OAJATLju4JZnw3mX5YE05w0J+RhNOIWfjUFIDK5UzBZTo9Se6rwiH77OBOiDUZycnmXWgDqPO3mSvUWJ9tCpdkQCPeYW3kLEVE0lBb2FOOcIT/LVoGaiGsJ0pxO/KmPkbtL1rBs0owM7+LHzArbl7ABVCbSa/I5xSao07c0dKgD46u8QI3cMMH5cFetsw175X7Ius06TA1K6w4GD9KCuLs7g4BzU1/8YJR4OhqGTCSr1U9E9am2c7zYAduwBOAxW9ufMaF7kAEvPVrCF4os4lXPRi7cdNDiW4QmLVqW+nxE8VNCOztEVJQb70hkayYB/plJJje94pYpxXmuSU1mn0E7Z6mPJWhpS5SlrRqYfsOyoIWRAEjBgGfYKS4rHg4pPEOBoDrbLkvaxnlQNAwIIYS4GB9Gv6QxGe5Doz64hkZcy6pdswNqsxXXz2jfGYsdUjLuAlrIvrAeSSrvqEOM9FtB2uRB/lB0Eyq35JkhmDBIr0nhhpWp3/00Yfdshjpw/d+4AW6kOSdmzpWToRx6tRL3bmzr3jMiPmfJUmcwUAbsP0GRiKrzmJgmOKGJAXGC5ge5mTXAiTYDeZhxXTMrWFB9h47Gouz/Q5Lrlx/jf3YwfyGrKArSvPKubOeZkGVxGjF2R5oO0zzsJnuSY2Jz8uyTIdmFzI6QSm0zGNeWb/SXZHaz7EDEPyC1P8vrmv3O8SiqUqB0Io7TFUG+unbHDczH3fA9IHCGc956lj0sIBhBAwqHVmYxhgMwEx6Yc9Ye17hJqipIAaU4P6BLKbW5nThC81cN4LERkXlheT3FicqL5KNcH9TftwrbUlM4sRI4w+6SMsvcRP+pPcvW0eNnx6wEQIUJgMKahrGBwjCko8fuEEyQWkApD82U5+fYmt5sR5r9SBbKqjvi3qvATIGGcXEqCMDC4xNlwbC2EPFurvSPIDoZX0UVwiJstCJATkPnXfgMJOqfFRMTgDC9c3nmkvVxYF6Tb6SVlvpJJjOEPxIbp6D2DXlS5zPNGat5T6dVNMXlK0aSdZX9TUKl5+jxkfZ3uG0mOniZ5+ZyMAXe7DiZnVSc3lfiPmwTjIZjhPzp4r3QPBR3nWpjLiCcoAAY+FTR093/+yP/kn39ltviQFlWNAxYSZO5QkzfKa0P/rRe92f/C9/0v3o3R+pjL3uILwRlpiPLR+8eTBzd8qXuUZUxEV1fITBMD61ieGD2hAniisyiq1evaQFwPhiQqxT3RkxGE/gjdOoUKtZ8nNJztt4QM0p3rqMSnsk/bwlJnUQEyJZmJQ/Krj3SrP4RG5rwLcuCWe1uydqyAMjGhoUaiEMDGcw5mOcTadOtZFXZbksvjNh0dBcIhEePcWiP/YN7RM5MlTj/zH+KG+Yk3MPma+E9qBVaE89um0ZWUgMjNBEy0xhroS1nX7LeNtlQKpldZRMh5eZxoF9b6E4qJoO5YMRQaX6tOCKYDGQx46FUTEJDF2INIJAhAjXwPsZ/NVUR1VIsUAcf8qb3FG3QB5eDpjDyd8dbF8+kmcv+4hqGoRNorDmsccKvThWUlS3ozJIvKC1h/hVMr5i/INqd/bVsx4v8u2ivuF5g4SxkUOSJchH+qC6kC/7b5LGqy1UHqoiu00zp3hHe94ckjFlafElbzZF2cc1BcL8KIuHP/roAy/F2SMD0R/+0z/ofu/3/oHVSqy7PlhVRF0Hj05rlcZemfyPdN/WFM33fv3Xu3/77/599yd/+qdichmPRDSXJCnxnlmQw0HB2amTkPuYpCQSH6nIVh1MU2BEeUljW6S5x4hSNakfxHhIxhjqywXO+I409Yp3vb/0knxjhWN+hzV9BA5Q6a9JkmJ1Par0qJrzYvCXXzllCcV49ZPz56ujo611oRYifeAkyIO6sms7q2O87hJmoZ3FPCZ0Os4iEEsunvkzySk9YaY+05K+mEZ5Lm3FB8Dyr6cz03nimeadetTGlEt7tvxAWHu5DKclX9FqX7dNkZ7w5UvqaAqJhzhABbAgKAX7Tr2MICHXAINkeqJx5T3pD7KJTiO4BmNIjXA3gBJRSedXcVNhsrb07RuKDICLMYgPmZFaVpvC1ro/phyYVoBxqAsqJeb/oxq3kCdECrG9++67JhjUS8ZlMBgXDApBwpAQH2WhHkLUPBMGIVJ34nGcGlKAeUnUOByOUU1xNKYhmXhf1dQG+87AJP/yX/zz7rvf/RUREjtes6ZOUkwSvNzEJKmRDiqHyXukzunTJ7o//Ce/r/nOk92//m/+W7ng3eheOXWye/f99z0vSB3SIWT3N1zjYDqmEajrj3/8Y9cd5oQpMQrh64mhJUYY6kNc1Pd0QqjApAMXVzQFQb3dLmpDG6ZEBO6AxNTgGePRijo/TuCdmXnbzJPmLtqpdkYScUXN41t+hFMfMxHjfb3Xap6iFROesyk4YsM3D5KWjl5/YejQdXsfls075RMncLTxW9iqHlV+nkn/NJc6k3HFh89DgAP0EJgR0AIedFt+WYpRGaOvR+a4kkkTSVNlUSmQUIgYdgCoNz58xEhiWkTzZdL9vQhXA3q+QXSoYCyLQXpBUPTexOF+nTlIEdgZWSZhTiRCYDkq4kTC8B24bIgQfvDH/NGPfmTGhPkYH5IW5oPJIWokCR2Ht25XjWEAwojrHQXkEobK/OYbb3b/6l/9y+43fuN7/g58wI3TAGPROtFJYy5J62gI9OgwJWrgb/ydv939D//9f2eVi7ocFAMx9mMfGMoEZzDDCUl24CV/GJR341p/Zm7hiPpG4gfX1Iv6g7u0MwxKGJ0H9accyiDfl1952fHSjnQAGLWIVzhCDYcG1LbQAqQwojlCN9Of40FHYYTQjrkY6IshTSPJx/TiAvqv4zJaGuY59XRuPdzpBFI24blanhgFNg9t3EnfHydsSyYE2LYCLTApOGEU5DCQwnPzx9vo6h+TLvnXd1SJLcqEeJT3COk8h1HdYOr5xAwwBETHHfghMJgsZ0TgSQOMEAoS8OTJkyYUpAIGE6YjIDCYCyKFcZF8YWwYjPwJI2/iUAdUTgwoqEK+K4x4EDJWSSR4pOo//Ef/sPulX/xFVbk2WcIbBVhncFqQ5BaLmFn5zubFAs8otNeIdPl7MrTgy/kv/uv/Sp43J+Uf+pmmNeS3KulzWN4pzKdhdLmtuT8MTowFkcZXZd2FBcExcZiHPKKlXMDFBYOB4+CDOnFRF+oNU4E38ANOiX9HUvBDzemRJzgh/SF1dDAs8dxm5rtiHJjEuwSYGUraDKVgGKWlLQPSXKYxyC1hRXp9AGVOlmSh6eTNfbMQGKcblvks363wtsyW9xAy7wGUO1dbiVQ4eQzzI3x4DeMGOagtqBHOk3J7osC1CqngFuWLs6Qh8ZzhcWy5Ii/gQwKxXhAG4og28mXCHqKDOfiGmsb1tnwdITIm3m05VQ9PXZEAqFc8I+0gUBiXMRHpITxD0qdhSw+8XGBApLTht/SBKee6X/u1X+v+4B//vv00MWYwUR/JYl29vxiHldFAQwGsqzL61EGthRuspL/3u3+/++3f/k3ndV2ODtQbJgF3MAEdC3lz2f1NPxgL2BgfEweraq13ZHplPCVCPHcMqi/5gTOYivzDiGZegUwcLu5IXqQzG3O5g1I45bnp9Ox2F/NBW/xoU7SbXKGlYt5iVr619JL3UaIJ30nfpqMu/Lha2gXmtqzQau5tGcPyhu9tmq2et8rPDtxtJfMMkpLZsLciszBk4qRyvLcVHSJkiIgARjoji2kKMYzjiYBTdtKhsnkO0wwK0WvhqyyBTLbTQyO9IBTGfBnXkQd+m0wXUAZxQmioqKiALA2C+PkWxohUhBk57BSckDcEjASgPE+YK3/CQnSQFfOQGB/Y3gOYGTP+8R//sd3YfAaGymKMyrIdJrRZdc80DdZZ3MF001WODz5BClwoP9zYDkjyYYH9nd/6rZrHlFXW6VVHwyPcUC9PqfQqb7QCGBAGce7Cufc6Vd6M88AXHRTvMA9Eyg+GAy/H5fSAEYm8PM5TPGsvyotOiRUUfKP9yt+UBcol9XTTczEj8MV3M/QWugEuyg9z8B56CsyhKd7b78kr38N83JN/8m7zaGFIPO4pr/2e8vLtYeW3cZ3ZFpeZMABNKmxYYfIZxmvfg7xhnCEi2+/DuIGVDq3yS5n1TquTJrDcuSvPG1kFISSYK2MXmAZGYk6tHceRJ9Ls1VdfNdFiQMEyx9n1EB2WT34YJLggQBoSoiacfCFG7khKCA+nbcqKFRUVjPhsR3FP83D/9A//sWDQwSzMrojIKJd0POObytSKLYE9UbuOdEiSHHi+cBGX/Vy4OFHqnFy9vv/93/XEPhZTmD3SOR0J8AA7sCHN46xAnbAScyGVkZz83JkIDn7UL6o5deFbJCFSnsvzoIrLJr1oG9Tptrx1YG5+fMOabQVGzzVdVJ1rKamVD3kNaWIYxnvoy4X3V9JNorFWAoYBufPjMnyqS5uWcN5zH34nTb61MCdevid/R37I5f6WxOk1kmn1aAVgwohLvCAid8KpFN9yT7zkPwQsadtK8GwEWcWBEFAjpLbQM/LOHJPmFgtWyhSi9CNODC8bUus45BL4ISAbTdSrex9OSSAkxD6pqpjWMS6MEOeGkC+nVDjS0evD1JGuMCRSBKIGTvKBIGFG8sEZ/LSmAJAmMDL7n2CdvSspOivf19/8ze95vSLNZ1VO40fjXTBxSlTVE/WIBgFruqluqrXKw+9Dejd7wUIAzJvKDA9jffdXvtP9j//T/2zLLozPuBYVlvWQGGPSrgclqeic2KmNDoALODFQeomWmNJGJOENnGEJzjgR5oOp+YEDygUO6nFQ7oF8p1PDM4c4LJr22FPxfESeDWqMa2uvITQONZzrZ4vnoFMFttBLS2PGSU+reW7jhslS5zBgmC5pyZu6h0ZDA21ZPA/hcMDgShry3Cp98hqmzbsNM6lwAttEYYyEpQchbgpu85iUF2Htb5IuPs4LRIcOe7UF8lKgy+4rC4pclv5BOPxQs3J4CYeIIBUpy6sItA0eh4lAFPiqQhB8Iw7PbAKFSuptEsVgXCFMyrGBR8zMN54x1b+sLRMhVPI5oIWySKykOSS3PI6+5kCYb33rm91pecIsCkbyikpNfYDbFWZMaGKkPernaRqLEFebGvcNzXud1ffquXPdt97+ll3tWKpE3fBtZYIe9RCGY36QnbO5YAxUfoxVeAnRkXBRf5g2eCQsHRsSks6GMoGZZ5iNd/C5X36m4IQjzGgDfF7BE22ANGTsKZ6seT11rLRlOUVUPXl/2A9Y8n1MJ0W3w/dJDBjaDdNRhzYd+fOesLy34XwLU9PebZzAlrJTXuB25Idco8n6AJGEbaXbzIYVGhY4fG/TthUH4LZiKc8uSL0o8KMuCBDCRKuBIOnx8QrhA7RpK6SYCWJhxcCixkyVrlZ+wzwffPCBrYasb4NgYDwaI2MfljtdZS5RlkMIid4eGBkPcofomPjnAlbSUR7TF4c18Y6174c/eLf7xltvKM1NGX3koC41lO0nvilvmKOadPdhK1Lr1JxiXDmsUi80C9UNzxHqQt6emNaba0egJAaeMZQBziibO1ZUmOflU6e6/+P//L/7sLLsYkDiFCvUSDx5sIjiC8p2hajeHCZ65eoVL7xlfeTnn4PD++owviWHgo/MjHQ0eOww3uNOp2NHeBEhO4PjSfPee+8ZPxwKhKEJfKCav8SiWpxDdfngVzUfmoEPEWUuWfAXrbg7HTFZ8Ms9RE886tsKgEl0FnoKbbUSsKU90hJnUn5tvBYWV0RXvnPn18aBptx+oqsWvqTd6u4xYTJPhmQw/CWDYXgQlEIDZAtI0iT/IKutBHHoYQoxNIpjW0pU3goTrCFEsyoVhjdVaVQjCA4jC2oOzIOUCmIgEFQpiBMiRgKQnt6eOGxoS958Iz9UMoiOd6RJjDCWXLpg1DAo9YDg7F8q6cI264wzD+id8xBfe+115Sk1WUyDik2ZPsDEjgc98wXBulfXUl2R8TBqo1q5QtTqjeUoIKn2q7K6cgEHkgn4PdYVTk6JQVEXOVODi+VQTJmwgxnhHq+ZBAr/qNbUGSKljuRDWYw1UbWRqjCzOyZJPhiUJU9oEHzn/cyZs6X6iknpIJnDxfWv2lTt1auCRSvFXDwPf6Gb0FJLL+1z6j5MT3gYLXlxT9rcjZj+GubbpmvhSDjJwAU0lKvodZzno55GkrDNdJgJgLVhQ2SkYkECwPIDuKRLHtwBOHFT7qiCPcQVXp4PMFox5Lg6BYMQSg8rooFgcPvC+4SFpLiMpQzuMBQSBunFO/GRbhBOTh7CrQwmgzghOggQxoZpSEM4BMl7xoaocOwqxjIqJBNSAklNPhhlDkpCvPHGa+4cmK/DSssWGYZfTO/xL+MiLQ0Zz1IgB2scDOHiWlbOCfLfbHBXBDalw29OWv2LYQoYPV4TQ8JUqSs4ZTMoYLPGQScmCzN5Uqd0TlG3w9Aw2MghQW1K3YlPGV/c0YqVfgkW+ExHCt4Ym8KArCNknp71inPC8dilEUyN7QyhldwjCauti6FCU4S1tBXpl/DQlSmnZ7z2W8LHFFVPbZ6EpOw2HmFh7jBgwghvYRvmP+ldTuib50/azJMZ9wCTeyqWTNvwITLb9JSXMsN4uRtxrnj1Vka4QxxqiUBcV1RhbNLLPCHE4DIUHzUSqUcc0kMYjE0gMIiNMIgQIoqb1RciMiQkF4ti92g6gTz5kQ8EFe+TMCKEyHdLE0mzksRltGETK05rgpjPnT0r6aDDSHC5E7+hjiENveEQUzHGLYRCjfqf6s8zbxiaYBYI13UXUSOxUxfqfVIbHiP1qTt1w6hE3WyIEezpSKg783hoAeTFNAphdE5YOUkDs1EnpLoNTsqTzoj6wuiom95NQekIo46o8sDBWJGpIvaqgRlJZ1qg6XSj1+OIyQAAIABJREFULNeVmlEn1522LWIPneQeRuI99Da8D9MkbjoD3rnavNr8humT/zC8fSdO6Ljq9OUyXOhjXlucyjTWx1OB5JcK8O4G7Imd8PaZ70HApAoFKaTJ5QrppdqtCLLHIaH+R++K9z7pkzI9P8TzovZH+VxLmGA8iARCiMTDcMH59aSFqSBkDDm8s3fLC1o5ccnrBveLqdaVx4uepmBynD1c2M+TujD+BAaIHDX0/fffFxO/JAaT36oI/KB26p6be9FLnFDP8GaBCpHo1M1VgRiRgrrXHirsvenaV/0hXLct0rJWH7Aky+MqWxsL32ynz05wjA3Z32WvpLIZQO8cJYC1l/faae6m1gGKOWUZhvHYnZx1d0xvnNDqD4w1OLbDbGgMp+VXekWODlwcwMq4GqbDaRzr64vCzy3h7ZRUVFbUoIrTGTFfyYW0RRtg9zmqHVW+ZTwjwL+6Ql+hmdBHaMn5Cub2PXFDj6aNnq4I4xq+J4+W/oiX8guazf8H54RCO9SVi7zC9MN0D8svcX0WRS4yS6bcU6l8T2WJl18q2VZqEsIII24AbssZAQDVAQP5949VJkEKkAQIjFU5SRZFBxmoXKic92SYOXP2nNVCmBBmgYmYEGetHJsBE8aWDDgfv/POOzLmfGB1kR4cj37Osrt9e0oOz+/WTm0CkHT09Le0t+lJHSKDCxxOAkhUVDq2oDisczHYIpElVEv6dqNfZcDKDLxptG4IFnPvP5p+sFToG59nkEHddavmUFj/7nMmsC72bRY8s6zpW996W3iQu5sSsZCWsx5nVV+IA1/OW+qYDorp7qqjou5sCMXcpDcS1pQHdWengQOaRqHj4c6Zky9oO8ZPPtF+rNonh5X/bL9x+PABTWF8pvL26fmI9yRlzAk+6TAOMS0hHH9y/oLy0J47WmLmavU9Kjd32Lqnyanx5rYdM1LSppPnPXQXmix6GOeRNKFLmCY0uxmWcQeQfCkn6Qhrnyk3mlfyG8afxFPks9W16VSmVKStUBAzzCCABbEpuEVUi9Qgi7DETdrE812/XiD0DYQ1DZLkf4i0Og3iuAGxK+iBtPS0n13SCUKy8jERj9qG1KKBeUa9QnWiN8dszrKnD7VnCnussB3GfZ1hQfzPtHAVtYwx1sWLnzkdEvP8+Y8Ne23apK335JXDVv2MC5knXNfK4iXtSo1kY99M6nJQq/uRkMAuZXJcN9fFLKc8IR7U6WJIMyH8BuTGB3FlNOrn24JL7haminOc/VO1uRSdkcOVJ2sar6sO7EFDHTS0FL40v6gjBygAp+9VDtLR8zVtOkWJSHukIJKRZ+p2Qnl/obEkOCUMHJXRRh5DHImtlfTeiU5MivpKerbJ//ya9lJdedVw+1KdUlczRa/R1MdxO6Y9cw9NteE8p1NPeGhrhDOQ2F/EaZ9Dg6G9fKPT4hqWlfSUCeykzy9pWzpO/GH+IyCaB88T5peK8Z0CImLbAvNMXH7tewtEENGOXdqyUsaobCoO4YEscBdC7F9rqw1WQ5dRp/KvNDAf5VyWKonhAysohIJ6yreMTTCzAy/fUBtPaOyEqR4GY44QyXn27FkTGHG5sC7yDnGlB0QK3hdhkxfS55pM/V62pDlB5r88JvIcihbXSh3Eo8UyjnqZ4cY9dnDGR9fJ8eoeHLtdTHRFSC0ekagzjCdJozg+BFQ/yoXxMKrcl5qIKsuWjqjh1Ad1EpyxfwtWXk7ixRhFm/NjuoKVHWzshCpKnue1PpA8wR04pjMDx6i+LKSORkJawulUUEdXtXMCFx1D1gyWKked/WkTDaYubf3HeKq4ppP+aumTeLxzJU7StvdNOOzbYxgWuFIOOAjNt/C08QJ70rRwJmx4H0lCIicDCqMhJmWQeAE4lQ1Qbe/Ec358D2MP047yNANCgLpGjWN+HF3erYvPplV9QbUbtWQn9UnWSvXIEB8NDQOiXiHVKN9WO8HFxXeYFILFP5PFtoTBpDHcYIjgwrATImPMxBwaacmPMVItFWJMqIXAwh1HokkYmBg1gqjqFNA1N0g9e0IK/KN6UD/9qHfaJDhrcWfAbNspQ4ENUpQtNRO4YsFF0vFtBj9WMR7Mt6ztKthQao/GkODL+5uqPnFUgNnAAYxJfPLiBwPTaYEPjtpmiRXTHp47VHpwhJ8tHkmeDpG0C6dhaqIThUdIn7pUs/cN3teZqm1Ff6EX4tCmLW6MErVvi0viE6/FN89b5T+Ga0x5iZ+82jIDT+hqWBYwPeyyst4m5p1MEtZWhm8BvO1t2koG2DBfGz+StQW6TRvGmwiwqVLIlIQpS1t1GjbvKxxG4jx5pilwuYJQMJygGgELkgyigqAiHfmWOkEsJSFrngwiIV/ikLfVJxEzTIXkoP4QKkx+ks18RaA+hllxfK6C4MiUgZKOyuGhZaQWz8FL6k+8hKUdEka4caw7R9BRV5hkn+buPvrofHfq9Gl3PixDWtMWIjAnO7ihDsJwWIDvTiP9azv8tBc44EcdqRvTFKw2ob6nlSe44xk8UEc28eVcxONSX69J/byguIwdmY4gD9q81pQypFcj4oaoejF1UYao6kxhxLTFpHpT31GdeyYDDn4tblKPfOO9xXfySTvw3l55T56Jn7IJD+0nTt43ZfQEL6NVFG1FAnQqmPcAwJ3KBUDe28pNYsAgpa1U8nXFlccmkTesBLiiEWnHnvh4GUkBEQTqEZPQHqOJ6SBK7oSznSHlwYikp8eG0XinfMZ5PhJNjUo6JADTFrZuKg7El04EwmYaACLlDjGydSIEbncs3S9q9zNW95ckrMoEx5NwEKJoqx28Bk/5FoJwPqoLUogOgWmFv/mbv/EUwify7gFuVEPiuYORmsx2kMAL0wbh1AtrMp0N4eCFepMO+FHNwSH1Ji74QdJa3Zf6v6TNjn/wox+MyqQ5sRpjDIPJPeWk0oSWMUP0lrfUrb1TbksbLb54Dq7aNIQlXr7n3uKrTduWk7xC80nT0nJoeAhzyh62kwF9jGs0JmwrkHSp8PB9q7gJTzqAAvBWArbMyzMX8ZwWqaZ3P/eF9jg385lo4FUFZoDvXl5lRHJBYBAkTIb7FReqIwSDqkXvTHqYk3uYEEmIeT4ECsyMn2BG0oaZMMZEWmCNJU82GwZeiBgw72mbQ053ShqWXBl6iEv31NeBfXh7b5+Jm/fgd/hOHOr7oZZXUR+YhDEbjMLUBXVB8iGZ2XICqY4zOy504I52gNGoF2NA8BdVlryxCvPjO3nSIcGsHI/Gxl9/89d/46kRFkbznbEkhi/aCMMV+Ve9VX+FuXXBhX5Iw9SL+xAfhLWMEJoKwSdti9MRPfV5573FZdK3d8pOnJQ5LLsk+3goMWyLYR1coUdco93WHtbAbR5GaE8YYaIWEJ5TMfJse49UKEhp8w2PFaNh8oRB+3GqCyDjsepc3vfl7QFiuDCIzOusdsY5lAFhQlCoVBANvp/Ag4QjHE8ZCBLiwvL3hcz4bE1Pr887F8RMGowSMN1rr71m5oJIyxh02VJDMtAEeF0q2ay23DiiXcdvKj9wgBEHVTANRL48D/GQMBfcxGnx3IYn3rx2UGJ/G4/j5EL21jff0s7XJRmBDecBFjRzWCorJqgHfqXf+MY3vFkUW0MiCfkh3ZkPxDoMHsAhcEYCggsMM3wD39d06M0v/MIvdNe0BT/jcPJkaZaXVykMow3TFbX2GsPMuG6bCLYPT51Cj9ypf3ATesr3xM89tDnEdfCWe3DaxuNb6Lstl2fKDV0Tr2275DHMawjbVu+erOdHpgEsBaTQfE/hbWYtAAEcqQTQAZ74iUdjJr+2HAHg3rGuEKgTlhbKN8UhXzhy1S5QOjZL2/MxGQxDIMV8Nr2IBKaJ9Q7ph1SDoYiDhORbLIgwaC3aLRWVcNIjLWFgCBHGgzh5h1i5YDouGJI5w8uaHrkHg+q04ruaM0PFzfo5R2yuEAtB7XOIIPhrcc836pkw4jC/CV5YzQ6cM+uzdrI+6jnNknpoC6RhVQfqOsYmFgmf1zkb7PhNezH2pVNCmpEv+MAyzDVW2XWmvZgU/CBVwSsbeP3Ff/iL7pw6Lb794Ac/sFGGThMHCLaOZJKJVhPkApUOttRobTBbU0zqb1uiDi0Cc2gqOOIOfC2tBq2J0+JsE431EQmbFE468gaPLY5TZvInm7QPz234EJa8P+w+YsJkFgDbjBNGnABHWHqoIGuYB+FJk29DYFIOMTFq9AlGFTPvMabgm/kUla62keAbUgbChLkhJqQBJ+lCQNmaAoZzuBiR9BAVFxLQjKt3iMoGhTWmGErtiusWeSMBIUwMPjAf+aCWMU5C7fpC28tD3PhGsjO1F/1qDg7VjO9cxmM9+H3SFVwHz8ThOUTH+6g9wI3yxn2PjoQfx7mxrw1HkgEfcVG11wQLY0KGYs5D6agXda1d7EqriITnnrEwnRr4Q6pykQbpaV9QMRKeOuAPfDEeZ3UFPqowKxZnAVE7q8uANO3zKCgfX1mYDOPKmJZauooxLCpgS4c8h+5CQ8AWmktYi8d8b3HsCvVX8ssdRhvGfRTzJa8WpraMSc+bNv9NBVrAWyDyvQU6jEjYEOggqkUY8dr3AAtxuvIgF4bTM0zJ+KF3ZRYBl4EBAiM0cNLYEBzjkNva9xNJhbSLRTTWTOCDgWBW4CYNeSDlICAkB/6cPEMAxI+qi6QgXxgaZk59uX8hb5rLOnEKxgPGa9cud5eUP4SMQQh1bFRvPYw6G4eO8ZHnPnhEZMA6lJBuF/1hiZ0X49F7o2Zf1FwgbmOMSVnxcOEC2x3WbnS1J2xt54hnEHDgM8pqCLQExs6Mealj9igFD+Axc6/gAy0BBmVLDWDgO5wFbqkzqjdO7RxFh5cSzYkkDH24J6KJ7ZxArzCeZmo7dp5pq5YJh4yyFbGHNkJrwSn39lveCZtEy0n3MD5o8+a5pfvht0nvNek2+DJiDBq66XFaBLTISsHEDcKGFU0ltsobprOU0N2/vlwaGUYkDEvgkjw0YJ70kixiBRbM8Xi6MK6DSJBw/GAoxjf00PToSAtghHC4Qxj08DALqiYqVYwPMBUX+cdaiBQgHfHIy/VSnFrOoy02xMj4ZpKGOBD0aNVAX8fgMXhr8Rd8FyrG6hhpcgWX2Xh5Vd84IhsmAi/ACPEiuUsKl8M320BSX8/dgVelgwHpxMAH9YbZMDbFqhyVnPqAdww31KkYpHxEaStwxRQGhhY6AZiUjoEOkLgQ2qx3YwefVa9JtJV6cw8tOZGu4CD3lpb4HrzkOXieRHttXjyHnrkTP7TRpp0Eb8po82hhLcgf/n859T0kTltIMh+GBdCWAYdZkiaVyLcgcQQ0BA2xoQYQ38/lcpbNn5hngtBoYPZI4cQd3kMkbKjEKbMYB7jomSEQnKxjgiccQiWPpEOVRB1lmoI01AWCQ92EuCBQ4lMWzEd61F0kJPXgnAfGPnhocVzYtLb0//ij952e8xO5Un8YgWsSThIvROGIuobE4EDzJfWHCXX2omBiFufAfhmKhDsMJWUlZW7OKcxcOFzTeX34oRyyNa7GJQ38ljahk5nEZHRI8a4BFtRR7mgN4BE8sEof+xnTMmgRIWCmJaYlAXkv1b1ANaHy648iACjC+DqJpmiDXMl7FKCHqIYtHoMn4nO1NNamTXmEDdNHYhOe55SfNtwq34Rv9b2FIc+jRb1DAANcIam+5pk7jRDgq3ct9TCVC7BtmnwLgbV5V4PIgNA3jOOOGglMGVtmEJjBUxQKZIt8YIGA8P9E6jFGofHpjWlIiAkYQ0SMXyC09OioYDDTxzJUpBFJh/QjP/LilzqDDQg+hAkDsJEuBAqDcqoR+9ogbQjD8RppHnwFD8N7izO+BU+BadIdWBblCQM8SH62tIDRUDNhpNrXVCqnGAd8AE+mTtAs2JQJSY3kjAZAPPLDiALeaiXJHacDLzhqAx8eMRyBBl64PP2jPNE+uGa1HxC7ezNF4z6g7wncdvxK9RnVM/TQ1pNkwVPLWMGPC+rj5N7iLXm28ZIfYcRt4w8lYPJs2ybPyXO7d48JU7kAHIIl87bwABSgw3zEab/xnjy4J582XuK3YWRjXvNe5v2YUAH00iZiIYz8YDjcKGvsWI0E0TC9sHdFmxxpS/yooxAkRIJEQB1N74r6CTPCaDA1qiMbKuX7q6+eE15qMyOkI0TqsaiIDzXvpow/wAKh45t57dp57zMDY7IK4/Vz50S0OlFJE9nUkb8697AXSdSzl2TBe0swIRTulBO4nFffZqTnmWPOkPZI3QWpl/FrpcOiE8F3k/WNbEmBVMeFDbxw/gaaxg2tDJnXYmgso7QAnRblMa0B7sEb0g33PFTVMCxMSYczzxaNYsjA7zGzRPIRDjg1XumEaNKqi7e1pAH78aDbV99SNxOMrjB3wof0Ax3mW9IHb+Asz8QJbG0ZoeN8CwNSdtIm34Rxb/nDgPZXW0abro0z6Xm05WFb0WQ2TEB4GDYAT2JE0gWINq8WyCA0ZUCaRaoQ1lh1TZlJm57Ld5YFqHmRaMBTB1juMzHCHPTM2c6CyeR4t+C4jYn+jqRArYSvsunB6blZnnNTrlhM3gMnfqU5L4JVGJ9r1QAMyrrDIzrbAkJEahzQ4l38MPEf/aDfl/SAmDxjoBIHMUYU7C65Z6zUtZW4LdEMCc441I8TCelUGJci1U+dPuU8wQlMgAGF/U1Z75exrJ0ShCc2PD544JDXDlb5EBl+oLXo2elk8KJ+dHRIepiQfJh/5AwKVk9wkSe4LwfvI54uYpUGsFDbsZsa9NF7XPUaAmXnR16kCa3xDJ05n+q5XN7DrpbWeG5xNywr5RmfutIOwzRtefk26Z78HgZf+81jwlSQ5/QONGBb4QDOd+LTEG1hqUDyCsKCgOQdpk0+bbjzUP6YaEAHaSFImIvxltUmwYV5G0duvq+JEYM0GhY/R466ZjwEU+EJwrTCB+9/YC8R1EQMFPTGXJ9fY2V8sf/CgjZEktSLEYY61tiTnayZhrhh4wfGIcq6rjMAr+sUXlYHQHCfaDJ8Xs9YHSHEy5c+FbySoBwrhqe160XtkAKUDlGB/2p8cJJxKjDRBvx4DkE61YgYa9zMUWNMSzDxzrf33n9fUk5HuwlPjGtnpBaiPSAZPc4VIy1KWnOyL14vR3RuPIzG2j9Pc4gJkZSsFqn6l/GLjuj99z+SaiufUeGS3dV8Zr06HbbYoGP7WEYxttf34TnSNF577ZzWLbKIS/OqaqtZHWfmLT2EP9pu1EFRsb5u1KGlI8JDi24r/dq4wUfuodXEq5zH0i00nryGDN6m41vyIx/ecw3zb9+H30aJJjzYbY0rBJ8CAyj3dvwXCdgCFgJJWBBGvpMA4zvhiefnHoYaB0oVkaRJvlTcBAmsaQDFp9E5tJP0wAjBsJKcfBkDwQg8M6bhnR8MhjoGE9T+MHUKE3NlNzXVgERJR4G6WuPK6d4I87kZhi0LUcUgbEzxtcxInYQqYcmjcBybWUTLpkiuJ3zXz3d6UW9PTOX5Mx5jp+wQRtpmHL/ay43GpXwgZOpGp4NjNHhhXhCmIxw4vWBZcKA1wGD4tTKVgArKd77Fokk+MBEwxAhDh4RmwfgXJsQdzvgVfZS0VYelZ+KBm4IXw5jG0/eZpq+mAxXe2h+U6D86M+K29W4Jv+JsLcnyfXgPvoKm9nuhrdogeB7GH6bj3e3YX+3zKPApH8yEZDjsacmPsPZHvCCL70nb3nnONQnQNmyYPozP+C9LbqpMNZKYkF/M7BA+O40xUU3D04Mj8biC2JpIr57Llk0xBtvxQTRMKKd8iBXCY7wUxqPcUrmmLQG5YHQ6A/KN8QFjBivJCSMfDkRhRQEyD2KnTm5gM6ApD24cEWFgaDu6ISO2OB0hVw8lV2urfbaXQBriy4nlkykLpH7GVTAasIM31EY26D3JUdQ9YQE7F0wHAwI3eKXsMMXYe6gsxeCA9KTlV/OfNY6mDKYq2vYmHzoM4gJXaC5lROobXw0dDZ/b75Oeh/gChuEv6VJ2m8+QRpMf9+TTPg/zBo9tHm2bTXoeraJoP7YFhDFaoNvntsAWWMLzPsy7zb9N736G/yDYnjiIO+qtUNt6hFb+koZ6AMZYMDGbQ5z06vT6NDbEBJNgObysyWwsobxjYEFt9ea4Yp6a49KZ95KA9OYYc+LYHNUQuFoCZZwEUdEJHNSYEHWVlebeEl7GCsLdSOCDP6Sg/qgoVRw2IO9hwuBvqwYl116P8cEwS7JU5qwL1EUBanUYwmefG6QWy5iQgBhyMKbQGdFBpcPiGYlHnSg/TAwO7XgAIysf+6mKsRnzgmdFrs5GEFEv2gOJHOd14HSnoY9hwGrbUrmpc67gJHQ2+kAePSPkWxu3xWVLYwkPLQ/za98f9Uxe6Tza8hLOnSv3R+XH99EhoW3l+NACHGJIxbm3gLSFJi5AJM8WkACXb9U7Mg7UBbFCmG6xGluNywzRFmxsXVYbyZaEgmhKHdVcn3w2kQioSzR4emmta7CaOyeTeYgMLxh6bSQFO61hZIAIIbb3NbZClUUi4vxNPIgLxuOq3l5ubmL8GRElaT6X0/JeWUQtPbAAwiju1TFEUC9zHizoPETPbrBRR+O4kzswf2iuMDMn3nKGPPUmjFXuHFLKfUlwrMp3dFVWY5R+YMSCCveuaAzI7m1AQvlRscEj8cAfzBdJ96GMTUh3wuig6LTuqMNC5WZre77R+bHBMB1ZjW/7jkZlFM2M62rG09g+bdwScHASOkq1W7oKDbVhbXye219oc0xThWvyJiw077ZzY335Sh5JM4zRljH8ttX7xJX1AZxE6aFawIeVDiMlPpVJRYaVyfsQ8cWAhTSV6l4Uegyii4J7E7cIl94dQsJASp7spIYquGfPQe0zo7Pke9WRw0BhHFTZVYhT40EYlAXAxIGRUKsgGhzCkZJICeD/4Q9/6NUUEB1MSDjMymWGV1omqfHUWXD5mlPU+r19++QzKYPHA50Zj5TAIIFhadS4ghcCLjwjQb6M57YNRjgYtGIYmfSc8sTu2X/+Z3/WnX75jDqD614tYTzLWWBVDIp7G3hF5QQnpOcAU1ZeRPqhclI22gGWVizKXOQDkzKmTtuxfaJVW2sRZTugw4IpM4fa9yn6zuExsjKrHcBn8nTldUEzIeDRN3/ZfAUXLU7asKSlDmGq0Bz4D+xtWaQhTsISP/chDHnP9zavYZo2363yGfmOhpECfBiJAsKI+UZmbdgQmK2QEoAmfQ8iRnlhZWyshjDhtL1jyqpJJ8pn3oB1baN2vb59+5a3BcQSSmNDXIGX3trjwV7VwjADEyHZUn+IMCcvsSwHpoThyAvCpbdPPXgmf5hzXh4zN8TInE+/vl4bKy0uFBzWontVrG0IOtsy1dd2gKl7e+d5EvEYBnohS9pKj2qN5Ri46FC4M7WwssbUAoYbpg+04kSO16RHau2Vg/XFS5ero1JaXP7AJ3N93MEP7QXjolqHubjTiWmU5zieuFccOrOrd3QgqcrFQGUXNjltu8PsrdObiJ3xsTWG8dV+HzJGSzs8AyNXwoe44z3tlXhtnvmWe7619D/MI2UkLvkmTtpqUpymipseRztwU2h+xGgHyQG+TZlChoW2lQpgbdwWaalEO0gvb4qSghAYhGoqo7EgOz2Tn+PpGTIkT8Y25LMmBsBAUd4i5VpGbx1jwKIkYSQdREo46ZFYqGmY8DNmhLhgMiQA3zFYcCENCYPouCiXd9Kt2AqpmTvRxorc11bYK1SwrjMW9FhXrnIYJWAiESp4zuX69PUjLM/D8BGOLcvqqmO2pQZj5RUjvPLyK1rp/p5gxdF6XnuTaq9QMeleqYr3tPQLfB48qv1FxWzUK+0dgxNxz5075ykIcEmc119/3UzKOx0S9efgGbaDxBHgC03Z3NX5GzOqF47b5MX4k02w4BWYPvSC65q9ZqqirsQkok54+y3PwUPegyfS0KZDGs137nznnjikCb0mXvutLTMCyJ0Q0qCBvc0jeSatI064RkuZkjhxWoADTAtcKpGwFNjGDSLaOJPib2ZMMaAaByNCyQ/9z7hBb1P0mPoGwRheYug/3kEGk+pENHFIejGmQZ1ivgpGxlqImxVMFNcsJCPpQSiEBlNCbDwzBrIBox8XIQmIx3skJ89IhRVJFzxK5gTf2pr29tQuZuzPaeMQQDLQ1T8/9qzjvkX/Ja8QKGEtAQS3CR99V16M80CVmVlawobGf1PyW72qxcWomkjEF0+8qLlTLSHSlozUD4Y9pL1Cr169YinIFhVYjqkLFmaMUeCHTsVGF13gEcaDAelw+M62hhhncFY4cqyOTJu9rYl8vWMoso+oyi8odRNumN7h4FT8TWsTYDqeYgDKoW7tlffcW7zwPGJqIYHnh9Fxm0eYJ2VNKjd58Y0fdJp0fGtha8tt82rjbapY8zIbRmkzScWINykTwnLlOfcAnHTD9G2FIgEJo8yUa5nXVxySpa+pDXPH8Lii6s2ndIYDTEVaE8cCE8E6RFO9MNY8xnUxrTNuPCpigWCRgqSh/jCsd2STKguRZsU9axJhZH4QJ/lnLAgRIikJX1o43F3TNMY9EeUdqcXzmpz2MWxsPCVJhOl+VdshcsE0qVsaC3TyvBVex7gYE2nSIktQd2EW4KNOMB6uZHgLIW1Rz5mvW1IYFM9myDisX1VH8wC8y1C1oIl4OhO0Bn7kVUu7akqDsIwXMWbRSSHlwB/j87pvWArDgHRuLGXyMWwai+pAZfv5hs6KmKsDGRFTT2/t+5DO2m8tzngODJs79WKgMa7HjDuJRieFUWYbznvbJnxL2aHjwJlyJ9UpYZ6iSAY8t8yQSrYA5HlEBD2ztIUlToBtgU68lJlvLteMFaT1BNfkb1/RXooQz31B03HCGBhSWEtnIpNhAQalzMPyY8SAAAPCVIRDWMCK6gXRIQmQosAGMxJJcqR1AAAgAElEQVTOM4wWK2rS0IGQL8z8uVQ6NnqakwpGPCQmxAccxoXgJB+ee6VaeM5Ym/pWp5aGHd6Doy/hlboLBjxmYET8RFH9GGO9eLy2qoj0Rjrhhof04ng40Eg5GGoK1trOEMYDFxhmqCtxgJ36wqTRMFCnVyXpeL8p39M4kGO4QSMgHd9IV/Cz2gKG74caNJ61g2pvR3J1Nr9vFQ4u2m/Gbf8bMmE69+TfpiWsOoRitDbPUQH9A7AlbQtn8NPCMEz7sPdNqygCbApLo7eFpyDCJl1J01ZmEsBBFGVmPDKuBAjhJz1LDzQ4VIM6Sl7FwPXMpxha8ORgTAfxYCn0mEQMAdNhFeUdlSqMBJHQo2OEgIhQPWMpJQ4X6UmDisYdouJO/ExW886mSThsM4akHkxVIHmRSqWGFpGE+Ie4noTLNiyN3zZ0niFmPGWQhrV6o8apwMimxhizwAFb1QM/x8AxL8j+L+ASqc17xa9DYJjv5KIMOrd0OrwTj04MZqfj8pYVusAZTIiKyuoN0mCwcdv1PFMEX21I221BRm3VJz6HJkMPwcWQAUN7LQ0OcZg0bXjqnsLb8kL7xKeO/Hhuy5oI9BaBX5qiSAHEz3MLQPKh0EnPiTssr60glSZepG56opjtndb5q2L+H1iKiBkvMq6g9Wh8GjG9LcRyaN8hb+lOngn/5je/6fioSvT8ISrekXKMd5CAH1+Q36OkCdIMaQBDMx8Wxjx79qyJFoKGEImbZT7nzp2TYUfziTJcoIod0rKqM2fPiEg1IW5iqx4eieXjv019VTvm+UKMwWt7D06Dw03v5uoHtnzyHRVaw0J3BtQJBtyj/WdQR2dnyoWOTgNjCurqqiyW02gAMkqxC3fKqNUXpQ3AoFFHYwHFsoymMK/6cfYFq0W4YEqv9mdVxYaMQuocqBxCD4d71PHR7nOKX0ONybTkDPsrRD58b+mKZ9o9cYPzFpf5lnTEp03bOJTR0nGL73SexCddaKyl5ZTRgP/Qx01TFEUYBUALSAAc9jJhpiGQhKdybemEt3kE8ORvpLmZQrSVmjATrP4R10xLkONVw6PewTh37l7uFrWwF6MCqiJzZahRpGN8Ri/NRU+PBKRMz+WhTmrMFA8ZwvgxXQFT2Qn8gw9GBh3yQJJ6ekN5kI6J5xckVZiiQBIgodljxf2J4LQBiY4FolRgMR5kWBP5IRoD2Fxp1HznbtybuZl/00NPx0huDsVBMi+KITY2UEGZTlhTXc47V9zVSIAzAs4Ls+q8gI264LpH/lhFyQsc8u2afE25kwZcsKGT20IVO6ZOrCU82oHObln769Bhseg4bYrBDXyYPgDbdejrozvPXKGJPLvN+6stKwyU+NGqiJq82uc2LHlPitfiPOW2sIWWw5R8G8LOewvrqAKDB9cszJCMUiHubSZ5HwKf+G2hw3QATa8RBm0Z0PkqU1eCNsiv57Se30xwxE1aiJeG9Ap7MQCMxIWEg8Ho6WvOrAw3pGcqAwYknF47aidEw1IfYKDnB056e2Cmxyc/mC5TGsDA+ImLHctCDBwMw5nxBw/pHHepZ4wVMUpgqawt/KmNa6u6jBspuAuO23vaJY1sBqQy6ni4z3rRMMeXHRNDliM7KyVw4UPqQ+jsNYO6DtxMm+RMDy83UmdB3cgXnHDxjjRF7bwu1Roco8bynXBv2aGM6aAwxDARD06ZtIcRzMBiRjQFdjmg1u47e2INzVDWkFbab3wf4iZ4CI6C+4SnjOSdeHlPnmEg3tvnpG/LJU7StypoaDHpQ58tLEm71V1pSzVKRdLAZNI+B7C2sBYZFJA4qXTeySd6s6VB36sN888YsK+tbpBW/u/vPeG6oRgLqWHZ0YxeHC6FoCAAJGDGfxAU8SG4z29c765KXWXd3+tvvuG5QYhyTcTz2uu1p2gQCcwQHYRYPXq/raIIO3UPY64rD/YUw38ThmatYpzFrYL6D4IrayKKWJiwxV3awfWmjrpavLbt5O+qc+CF4fANBWaYAgbhPMKPdZoU1tJVxi4CgjUNYmMvr1qXNZcpgw3d2SmOpuGZVRhs00FHx7aNKyucdHXO73yH7RlTpqNifAgcTHcsqCzG2iyyjmSqurPyRdZrwQzexldpB7yHdpqPIyYMHriTnvYFH9BT6IpvLQ6TD/kOcdeWlW8tzttnyuA95fLcSl3KoezwR+gj97Y+w+dN2+C3jU0hyaAFNs98GwKcby1jp3LED6Impas9ZapnV9Se8Nx1Wt3L8h90MPL0gl7i6WYEQVga/zDegmnSs6exIUimHmCmTC98qHlA1NYgkOkM4kFYxOE7ZTEOijWV+NSFJUCoq3yjPpjv2VaDY8A2WKEvzkPKMmaCVzzryUNzUc9cwXU6KN7bDi8wJrz9trLCGKwW8EKY1JklXWwAzJpAjDbuvRlL66KTwEoJAo3L/kfaGLnQBhgbA3OspOAuNAKeGC/DfPtk8CIPDFHg7ZrOZbyqH32ox++6qHnWDpIGfFZo4aSlKydoLr6F3nimrJaeAlOLwzZs0jPZD9uDfBOeMpM2OCIc3LfMZvpr2nar5821Gr95KVOAT/AwrH0fPg+RFwCIB+CRgABKDz0EeJRfS5EToM1n4odQXVYI2W35wNa5zAtCUFE5UVEZ5/AdQwyqE1eYiHh0EhAivTgESD7k4e0a+gvig8jfffddq72MN4EHovJSKnf5FRniRYoQRkeSuuZu8LfAPzm0uAyeR4D0CAHHzMPdu1eWW7SAJcEIXNSDo9vabfhJX0TUq7KqN4wDrNQh7ZO2i0pKOzI+pu50UuDGVlCd7sRpvnRIU1KLWZliy7DeYXSmbebmowX0GyajDZhoe5zkrjpRT3CSuuc9YVupgi1TtDhNumFY2xbghPfCy+YJf8JbBiRuK3V5T6fQ8kLbdsR52FUDgIfFeMS3AEm0FnE8Axz3IKgFcpitm0TEyn3Uqfihxov+0jecmdDWUiHAwVINRIisEveqeP1RNr05TMS4BHUV5ME4NsKIgGjQqKyZvIcgw3Sk4Z24PEOA5M8zjMydH2HxQx1LmRwPXd4+4/pCeAVzCCF4CQ4Jz3OLp00N2+OXejLuXFia9zwoK+QfsCkvE/N9HC9rQmvQH3WmHmy6S1qP43QP8wUm8ILmgLRLRxpGhQEx9DD+xQ0uWy9evXK1NkDGA6efQ2RcuoZ5WNcsg2O50KHKFg6qdsxwpM1bZmnhCj2RgvB2WJM0bfwWbzwHxy0Oh7TZlp30KZe8ucKobRslz+SXshJnCMvwfdtM2AKQzNNoqdSQCdPgLTBfYkJLFEYupcpZXdULA3/udWQ0C3urF6PnZb8TLwZWnKiPGFVQISEmmNLOxmIqfjBodlNDitkBWpkTF+bjxztSkjoRF6LFE4d6IyUYe5IvZRCPKYk5eczgPsY2ESG2zXhybas+/VgqDcadBg/u2gYdNjLxCGP6Bpc90vDOgaAe54rZ2A5/dXlddeGg0lrWhV8n0pHtKRalQjqNcEGH0koD6vrmm2/q2PAfe5x99uzZctETgwZO0h06fKj7SONOOjv75QoODGWMhcEN21twoY7SnvzH5sOSKTVfHw50rGIYR+vrExy0uAi+gtc+6SZmS5zkmbjJpw0vPI4lccoGx6FnGJ/fMJ8WLp4n0Xfgm3TfMSZMhdp7CMmSq79SuSEwbhzRJkRbvXY1AsGlzMB5akjmtVDxxoLRlcYntKYatHxIBgMIEPUTpLGciTggMxeSq/ZfmTHhgGx+mZqIhEBd5Tl+lEhAPHHIl/lHyom3DWHUD2l0S5PkPKOOYgzJSoFaNQHjoPZAcFsznOveEGL73Db8glZrMNcH7DZu6YqKeVCdy/27MrLIMopJBgnHlhxM6WBsQXug3mgI3GEqLvBFp4I05KJjqrrVVpK0AVsa4u52/sJ5x6VDMgEqHzqjG6og+Jvt21/BasLamxUNxm0NDnTzc38BR2gm9Qzhh8BDW+NU9dQyWL5NojnK4GrxmE6NuhAemkhZlM0z1zDPxEl44gWGh93twD0p4bAy7fuwAN5TqRRGWAs06YPAYVx/6xHiKmJ6p9ekQfWHQuc+VD0+aqfLxyKji/i8W82SNJifL0MJxMZUBKoiahQSkF8YEUbKPFhO43377be9SgDCQ7WL6kY5MB9MDawQOMucYE6IFiZ0jy8mvK/5wZs3P++uapxEeiyOpjK6kqqc7ia7Hu/VQQWnaY+0CSlzBX/ky48pD/CxvCxLqMoGFuYyZ4WDN77xpg0z9z++oPLVGWABlcGIdFiTkYRXr14ZGV0IJ33gSPuhmsNI/OiI6HQ8/lMbPZBxrKyg2sNHc7Pg3NM20JT+YHK0ixUtKOZynrQ07YiYpF0FW+FlzIWhmzBF2iwwDZkh+GlxxnPqkrK5h8ETN/fQJ3FC69yTljLbDqDNM8+TynMGj7g2nUXRxk2FE5ZKtUDzLQXnnsoEUYnfxuVbmy/P+IXSDNnoyS1jJLRjQhfopP0nv7osGFcvMByqGIwCA0IYLMgF+RASVzEHmwXvN+HBjIRl8p73xMMQwxVVhHvUWsolT94hTvLCE+W+lvN4tb3i0uFq+GU4g0Nn2F8t3ggaNnQbt01Duvhh7pFaibQlLb34fm3bSL0p33Gqi3PycT20qkQqOXghL8JT77QPeVB/xoDkGxWfuPjF3tG5H5e0XQhq+rLe45PLyU9oJsv3y60rHSZ8R3nacE13OlmmRMSISEgzZTFAi4PgZ1j30FWLvzZucN0yEnm0dMl74vEcBo2QyDfuQ5pN3CFc6URzz/eH3R/KhMNKpQLDiqUybUFBUoDJe1vptgKlklRDOD//wYL1bNcuLep9wKJe3NVEcOXmVsizE7JWj99flmeH/DVBEowIIQFDxnXkzTMX0jB14p5TnEKc3EkPzPT43Mk30o93xoWkhTDvivg4C+PAgb0u20Rt17qaQzOxWQrmV0SXRm4bv8VxnrmHaYANDGEUYYpidmHa5TkPMT3bMe6RxLpLZwAie9QCKy5s61rW1LYv9Yy0o0OiPiU171vSI9EiKcEf1lfKwCeXbUE4foD0MKIB0IXLmhmKzZypteBnnpB2tObDn1BR+HEUw9TSDGEtA1SsMd6GeGrpK/mQZphn3pN+WPakcts0k+Acfg+sj7qP9phpKzdM1BY4rMwwLu/EGSKA8OQzKY3T5QNio1pnEDUq7fgzS2LvW4pdr0NAZ7QyQslDYNwhqPYK4sOMLhsC6eNNQmbGCRAmhAbR8sydCwnMFhqAjTUSZvCSIqvPiiBCtLT3C9eYM1pYW1wTq8V3YAz8zgnTog8eK59Y0uMuxhFpuIuBVXw52RqS8sNYtXXj5jV4YTKkenp67nROaVOKRA1GchlfKoJxKN4xwMMqDlXW8TGiFfykatofJDmgxljV1GNGfRSdtHkFd22bVeab6W2Y5xDPSbNV2pQ5jJe2mATTMO5W7yNJ2BY+qcAW6LbgrTJu4wdRk/JNepqFZtjEiE3mRbv0koVcfB5JAA0iFdgNmnJgBvb8TKNAKCYIJMSm/MIMFTgJxoRF+rhXV14J552yw6AQMasYsuofycAyIwtvYO3rt7nkTWD5Jfm3ZbXPxi0RgYU/iFkBrO+jvjDRlBiATZwiicppHFW81k8CY8oi70gb6pD2pRzU0XQ4o46o3zrEzunyU/V6QnVIhks/M6kbLD8XNSqvxYVhGH8e1b1tj+bzpsc2Tp6H6SbFSSbDuMFx6p94w3fXs6eDYR7D961gb8O/xIQPS7RVRbdK8zQAbZ1XfSHPyleULemCpkPvTsNCJDAMCLIbVa8GkjKMBJHmeauy2vC2YSgn74mTBuGd8pG5gZEOYeQfKrYhnK7gUUzY5j18buFh2oY/T8brHxssmZn08y7lUv1gDndEZNR3YDwW0xUkwEWctFfKIAymjFTMd6QguEg+NfFe9WaeNDWsfEbdaqry3N5H9XMH8vArcR8e6/G+fkkdTbJJhbQE8KjsST8k2Eeledj3koCl+qB6eUBPoKgPgogKxVwYG+GWNbAIAFiiehbDPhrJk2CJukp+qR8EGinr7zBaL3UXZJygPT3m6VnvSUpu8f2lZwFIGEwN3a+rN/I4sQr0PZvxIi1rX5tinGK4Pn0PK0yZNs8dXFGXMKglrPI1U6tsb6ZlqUczjNub4UBc1JLXJHw+b2GPS99p+52q29dGEo6ZEMYqqeK1hXqDwSDAYgJRZE+IopSR1CuGHTS7svL4semsR+8TuAUibIl1SESMvdyQMjwAC5PivpBA7jTKZJG6DNMP34eMl+9pfGOCcZc6JXjJ41Ixkzed55/rj6rZq+OqU9ROwomUMsg7nUeIrP1mphNTkj55wNzrmvYoLqzyjGdw4LGqi/jaXMNO6GGA7xQDUsYTTdYPiWISIImz072Fe1tdtZBXjY+6SQOzjEcP+SEh8ZhhtzOIw87feowKCgGN1FEY0JkWrfCcd4KHV4iPstr8qOuIcFWaFw6rU1jwqvIiTlsD4XBdVZeC30TrsMfTHFKWGWaUlgyKCWH+dXnr8B03Meevb+48zBeE1XckdKR76kSMMBp5tHWlo+O9VFE6G2b96PSE3x4n1STNbgltD+eaPr8XdRu1Y//cQpvvj9tWj1vTJ2LCNtNJDMj3rcIfF6BHxQszlnWvlLwQC0iCzut8QwMTivdYzd9b5NJpEwU6hXpI278XN1Z9WuQDH+8h3tR33IDj8RK7mjk++VJGn78lY8+4fE8eQ9y14e1zWwf4CqGGSmprrBj/3oqOfJOPJs4EbC/BuYvjvGteMIYZV7q/6hjt1LkMPvlWeCeMEJDVE+wodc1BAltiVPc3zr+J+tw/DtsCgCeF7URFnogJtyKWrQDZSaBHRNw3chkewMyYoCkvjFgUz1isJzO+6dcrSQWyPrZMaNIaMOGYuYq4ho0xIroRcxdxsqUf50L4ohwBCqP0WuATM2FlBDNXRxKpTDhCESlHx0C5lMayvQfa3owwfEnNa65CwVdtU3mhJIfJ2nJIVOGUW2krjMzAdcIKrrGqi4rMHwrr1+d6EvreSdp+IiacRJBboTgMsVPAhhgqv57ZTAXVzCPiVMTRefd9ItMfTAKwPaM6n/rnu+mpeU+9JtUjjEec4KRtQKQM47NZXNYSB0cDcXgkLiUCfvLaqpyEt/AkT9c5TKW8YDjGx1U3xoJYRXtW0Pe2LdpyCxZjwJdRY9wVjAkrXE8Kq3RpA8PsX4/XPt/n/Za2bNt3EsyT2mpSvMcNeyImbAntcQpoG/1x4j9JnFHe5qwimk3l9QyYPI24/mUSXEVykyEYxm/f03Ajo4YojzCYYSytSmpEEhbINY4M7O29hXlS+JfCbCItqYeXiutqphPDeOw8ngfcnPcII73E65E5QsNYEo6CkG7DaP3H4MU4oXx+44TP/VPgH7b3JMAfJ86kdJPCNmlnkyLshj0cA0XwpeIRk7lJDBdx2SKMOGPGeHh+T/O1xpw1dcACX3qbmp+s6ZLA+DR5P3UauO/rxIFPXdHtJ9xlwm3isGVC9454j7DVu4wkI1O+GDP+kVtJke2AEd/UqKOooHAi8NT6y5LO2yljN+2zw8AuE+4gbq3cifBhPuYI8dfkqrESgqFUQw9ld+iqg2VK5KACZ0wIs/vXq8c7qT7tEOi72fQY2GXCbZJCO5hnMWv8RjmyurVgRiWFM3ZSGo5VzVJ5M3VCtSgf9XiXAbfZyM84+S4TbhPBmyxq4i6YgJX1zM/h4FxXMQjMUFs/bLPQJjl5rq0yR1HMljWB5Smz27w7h+lnl9MTWUefHRhf35wjiSxt9CumxJWOlR2lJjqOrSXUs0z8OyUNyTfSF8kX/9FIP7H/1xe5PyOQ73aV22xoiH3EiMorz+xKPVYNaywYRt0pBgT02gBLjCYG91hU85PFd9UhlJFmm5XcTf5MMbArCbeJXiSfmaGXgryiCrKsKCs34AoMJL2bZQnEbZY7Tl6SztmLCdn12zDZsbufqN+xsnYzehYY2JWE28TqSAqOmBDn6HUthmXz27EDt6WTmOOZSaZeErIJE1ye7fbTSWyzmrvJnyEGfvqYsARTP/56fMwl2eOnqJjlmTKehysh9MA7krH9PPlm2ZDHjMWNT1rMl+KP4NVDxn+WhFKD825JuJO675eg2A3YCQz81DFheY+IB2uYZCbYki+RGGARQu4j5v1xkQuNx0JaGxIrpQLZAAmmQAAWH1gU9nOF5Vbmop9i0tDlObf6Y7KeMmKYcbm9ZN5lwsdtya8u3k/dmND+iiJIMxX3Brfts4PzXXczX/P+uE0yloSVghX9uK1xChKnHRkM9vhruoKWMZ6GScxg5EtPY9irAizeZSzq9X6yzMKMPqpsql/N8biV2o33E8XAT50khPmYGRA9etlSfmD1oUxIxG0wIVsuwpCsXGAFPpKQjXntW21RyBPGkswZVjtviwmVrxc5689MqXfOJcxmTXNsQ+G1U7vX84yBnzom/MrUUXG+ZwMFAIw4miN0mEigBovuCFAno4VuSx1Vj1OqcKmjdECsJ4QZmR4JYz7PBLgL2xNub/F1QBhEPlJHBwA/TBImquN8KeLWNYfQ2dawVvObxSydZtjzhpW1Fq9mh1G+O66O9tlTxB4ZZjJG9fIqhT0No29d490vO42BnzpJuNMIelR+ZjtJP4/TkHAifA6BmWf7Qw6DKQW0GHCnNcPieXc6SFY0z9GYUNznfXD462F7VF12v381GNhlwm3iHSGHCsxlW6W4Aeabw4Eb4g8TwoA7zYR9ftZ0+x9TFCUJYcqaoohk3GZVd5M/IwzsMuE2EWsDpRgAaeNlQ/rDKjnaZqIPI5IP0/R4sP2N1UUY6YmvRhqSNkwIDFyRgk9jAHpiWHYTPBUGfuqmKJ4KC9tJhCqooReGmEhCM2Q/MCXUUwkwBDxoAw7v+flLfe8l6mOD08fnhkUYHrarnJ5tmOl3WdtlxMfG6FcScZcJt4n22FxQ/SB8s5YY0B4zYj4mJeoaS0IH9QxU48mojaR9AoD6rOFxxoOk9VImPTNNwkqOSN1dSfgEeP0JR91VR7eJcFTIbC8BY0HsuKvVYTClapoxkZPiWJ8fsVPqaM+wI74VLOzyxvwkjGjp2I8Ld5lwmw39DJPvMuE2kYsU8s7aYSzlx2ZLMANXHdpScTxm7FXVqKzWWnvx90RSkMx7ieqOALVXeVEujgK8tFKQ593r+cTALhNus10s5fwf/yB8trjgHIp584j337QUrHg7zgo9IxoAPeeotmzBmJOpdplwmw39DJPvMuE2kQuDQf2j+TgNzpBsdZJuhBWWUwtLWGXHLtt7zPwweDF69jvNCUqBa1cd3TG073hGu0y4TZSW9KtMIHR8SDkn3iohF2OykpE1JqzAptSnk40RgKPUKgfjDBKYDiBHwI0ss4jr6i8Aqp4bKJ7q0YX3eSXvMUBPleXPYqJdJtxmq8fw4fGXJww1JpRhZmFxvs8ZdVQLfSW2pm0tLbnJ/zVmq7GbyXlEwI8GCunnsp0fedU5G4wJYUR4zgflEKGPWxOaFIL4HHLNExQe8Jw3eXGj7v3P3N4XnLi79y0xsMuEW6Lm8T5YwJjmesun2Iwjs+ckDX35Y0lDT0f4uYi0jDOlvhLVY8vHvIhaufJQCbGGIgXn2QoffogOTJ4GA2ArZd15TqFPUHhgJE8ybvN2/n0Zibd7fygGdpnwoeh59EcYCYnEmYQw1+r9ZZ8dP62jybgeaKsLZFTFK8V0J5jQbMw4kELoAEY8JFjUCXA2vZdQ4cTtODyruR/Q5DAOCXoH84pQ8Z7k/01MyLSI8nT+u0z4JGjcZcInwdaEuK06akbTQkY8xnI4KavtH4gwKx5MU7IQRtiuOoqUJbfkSmPOSBzmxF4GifXn0syspYaKSXgmzD+u3PvXx7mZ8cmLW5s/efnj7vUYGNhlwsdA0sOi2OoIM1gaiSVE+EzWl2RUSoURpUgy6ig5Et5/I0JFfVhRk7/1qijsyOVj2foxodkK3vAXc0r/2+rdEZ/yavOvEp8yo5+5ZLtMuN0mt0EGlRRe1LPUP07LzaJaCxjRZOLsqIQwdxfzxymA8jDMcFn69j6tu2yx3YZ+dul3mXC7uLUUrHEhRI8PKcYRn+9O3jAgzOl4Zo3tljhO7zGY8tXdk/L6sq5OgLJzhDirKZCSu0y4c2jf6Zy+tkwo2ivp02MEIv9KLlRKM5n4DS4TEyxoTd+8jkbjsgJqRuE7ITsIJ5mGAXUne1b1U34xX0orBv1K8LNb6CMx8LVlQmti/PoqmgG+iguectm9WtivJWRh72aeexbwgYCSc7az6JplVb/U4dFYlQ4AEL8K3OyW+VgY+Noy4fMjCUsipxNAHfUyJk0TFH+WAQZmKWG9k+zgElRO/dHiSN09S3t8j0pa0xGPRQ+7kb4CDOwy4XaRLp6CubzHp1TRDe35ubTI7tu1tpCx2rRURKTlzjMhXNdXoOdtXvdonnJd85Oj7S0iJrdb1930zwQDX1smfJ7UUWApw0tJPTMgTKcmgzc8XtW/0pjDNTvRnr06yniwL89ba8gwA+N7mkThjFl3r+cXA19bJnxuUGoug8GKEbgvLNbCWjNhH95P5xGys6DD2f5XzIbr2h6pw37vGXOXBXcW5Tud2y4TbhejvbizsOM/ET7Hk43UUcL1t8Os10NN5mV9pSPYMMN33ZJOhILpzYSCifvu9fxiYJcJt9s2LRPCbCJ4bzExXYYZsyCMsN1yJqaH6St/zxPipibuW1zQyUyKP2LCsRiemMtu4FeLgV0mfAr8W+Lp4s5fWVyYCywVkMNgpmfEBr0Uilr4FEU9IgnjzpJ+rdTDOms1GCdWLhh005816NGPKFWjRxS3+/mZYOBru9taqX9jnIQxngmWBplGvcvd+8ZAyD1zzkkKxoE7qxjwW8FayRUXM7TE7aiLMCBsVju2mdf8n/c85b5p5EAAACAASURBVBuGmY2eUSk4EnFKKyusrxocX89GUo/z333aGgNfWyYcDnN+kuOeMI4lYaSi3cVmtf39nCbMZ7Td4QNNE2jqAmYwsDBFT+490/ptWJGt2+pLX8zM5NWrpN52X4y4KMNQJGMSIQk3ptkWPzCU9AMkdyD9/UuF7AY8cwx8bdVRaNe/HkXbIeYnxfImdVRU7ykA/7SUiKkBMSGMFxlUsJWq6mczTpW6Hbi9aJeLLIHDmU65EygVtJe0CrU6CrNaNRVkikrqPofRvTLc/f8niYGvrSQM3YcLv3J1FAYQRbNqgU13ucyGllK8jaUmrJKx3LbUUY9B68wJF2jJWKvrXWa/oJdHYPGYlXgwb6+O+t3fd6+vCgO7knAHMB9G4lRcxmH4blrKwJSWekwV7LwkTEdUDuQlCYGlFvXW9IRhSx15KC7c5bodaPedyuJry4Q7hYCdyCcqJW5r01IFYQLTuyVOSUALSkvEnb16AVzGnr6A0cp6YNjZ4nZzewYY2GXCnUAq0kbcABPiKjZaVIsK2quhYcKdVJuT53icCRyarMeBvHGd24kq7ubx7DCwy4RPgduhYWY0rkP9VH74bnJZHeXP6mgVtB1DzBDUlgmL2UvtrS0Pe/V3mGj3/bnDwC4TPkWThJEy3ismK7WTJUxIQ642HIYpptk5ndRMbjV3PB6kTKSgt9cYhT9FJXeT/MQwsMuET4HqIRN6GZOMMqijqIKcRVFMKAbpLZRPUcwjk4wZuybmBYE2MawtDxfkulZb4bOSQlntHO8/Eq7dCE+GgV0mfDJ8OXarjsYyWWsG63DO2X5rC1REXMfCtCW5ds5UQn6VZ0lhYMAWamcBVva77N4gtHPFPgXGdpM8DAO7TPgw7GzxrZWE3kVNv6ie3gG73+3M50DwvR8QRnXcItsnDh5JQsrP+FO5FAwLVa7F4O71PGNglwm32TohcRgNdbRlQvOex21jRmift1n02NijgmpLRWRvMeGCnMhRhWtcWHBst7zd9M8GA18/jxmobFLn3hN8fytsWVd7COLiQdJHIe0o/qak/jK4kHJF9PEeW19bt/9oDgjFYZtergRh8tiqAsP8H/WOCgqDlypKbEtj/eHAPa+5SrbCn5nlOJq+MsNqqAqGra9APSNVA2MLazF6Vun3Djc11iRa8h7cyaoNAsJhSNW0LetRdf/p+v5cMmEaze3VE0r4CTcw+MqNG2LRPX6R03qmoU1XLDPPNcyUT+RN3D5OE7v/xgQDBaFybuJPIHC474ap5glxWVuQxwwX6/u62X6qQFGRlLh0J/4IpAIl1e2hedQNgGCvUmaMCzPhlLdbrKPZ+hKQxEhFRy2YgRckWqUFdiDzp+RT4cEQceIwnlyMAjmFj66+UwKntAdpvTM57UPJaa9xgv6Jrz+7StlzyYTQAm1o2tF9xEumO/4rwnYLQku8I9XMLMUw9aFvfKI5nh56xjGtOXn1zTwXOYUpTaZOaAaEkPpE/mLqhQopAyOI3nUOBVKIbQe53GHIWOKyTfDAbXLkq8tur81vmz5NeKn0hp58nWMxJWsZObKb/aX8TWV71T04KnaATYwr4xdYDGPFN3M6P65K42fnwUPh1WgAOfrVMq3UqMrCVc/ncAQ+33um7fOpgp2Ry/pZvJ4/JlRbmE96KghxVOPTVhBP32ZFNQ4rJpnu1qZmRXAQFqchQTeMi/TbWO3WRADTD7TCASZhzR+iQScVTW1g2NclwqVnZ6eyaUmOKaXjp8Qm3oW5+W5lfbUkmsphbRKlrK+udVPzen6w3M3qbNBYR5mpYDXFhvKDcL0hL/nBtFgyQ4gQOrSsd+6Pd8EosI/yVrkw4Eanuuu3ojrP713slh+sqUpaZb+qrfGnVG8mMFTIuspZoxz3FevC51oVLnxM6WferY8FkHDBn/Zv0xfOPCwf2el1xVqd8TFwD8CFMl4D166f1jROyYf2gXYDV6WoKukeTK3w1PMb2/WHScn7sSsP4D811/PHhBAjzaT/IAYJF/fWabfqg/W/F6vWNd0zC8y5YcYgjRhD4bMPxFAzIlhWN9Az96keKNzr/ZQPGhUMsqztCr1NIOWKcGbERTP6BvkC0PqKmEwEt6Hwdb2vol7qfUEEP6+Iq2v3u1kx48x85gmLwDCQKPvqDFyxXtKoZyl51v+vgh+XDKvuPQa8SBdGQmoLvimNTfdoTEhnAuwgUJWFAR8ID1OCX2zSraq+UzPVQSC12QyArLh818+Sy2lgLKWn/nQ9ws+cGHt+Q6q38lnTD5zNKh5toIzdwSGO++azsKOTmVJ3SF4bYlDq63y5V9E/c/8/f0yYhvJdjcO9/nMrRaGBiKpVaTMaW0wjppteX9a7iIxWpcsn/aoYTWM1JOGKx0Y0uggfijAGkCbKZV3EwalKSEnEmAhoBUISHcKcD6a1bYXSIAQ3lJv6fUm5tW51Renm2FdGZ1BMy29TESje6pjL4V3SVPUxoZEXz5Y8qXBV53EpsRQ/5Ya617G7Wp1HCNMtqo77Hsx3C+uSUvqti6M2xGFIs7WZ1W59WpJT9wfUfUUSa01ePpxVqDhoCUA9Dceo6qtIeasmdCwqS6jaUJlrelhW3bsHq93cor4qL+rYrRWzTzvzNbWD8lJHR56k6zYkmYXH0l7AceGJpvhZvZ4bJoRoaQfuXDRaMZyIq2cymM5ETTwazy2odlUL+jhqXlZXREAz6pFFXPp1q2IVNsIV8czq4M55qZwrG8sKXhajiUiUZlY9/YwYc0GqEkTzQOk3REQP9IN5UfGACEg2eqkjOaqwVTGkzp5Qz095D0Twi3N7pJ6JyFwJGI0nasJmwKhqpdqasx0ntS62qsBH/2/sqLpINnGYYHW35I5lQeGHmK9cUyxJwFVZbWUu7dZV9zXBvzZ1X0nuSqrr8JrZ/d3MOhtDERemQkoVjFNSEZYWUNX1VeEw0bpw4T1NO3VqKmh5Zrm7/0B4U+c3LcYEl3OotFPzwilMCI77tqWtgNNqQbG18UQ9qI9ffvau54YJIQITa6SFWqQsodwhWLeUpYslGD8kFO0Jc+q3quf1xWmpWatSI6WS0b/PifzVE8+LAVFPURnnRVzqvCUBRHRrK2IejfPW74v+biofMRYWjV6lsnrr94Vu7/7D3ZqYel1q1NyMlivN7FHhYtgVASYpOC1mWBATzs4wFlL+KnfDVqW+IzGptxcVUt4m+mDg8YiwJCz4oBMqlmYVI9J5qrurvU/FeFN3VP6Sep+F7p4YcmNdRqO5vd2SYJxav9et3b7RLcysdUtiyAeq/zrj5tU7wt89IXK5mFEFAH0n6TUzvSiJp1OIVXc6JiT/tPJelXTrJHlnhIsZDTbnFH0OLaK7KVjuKR/hlhqKKV1PNzWwKiKPYMjt/rPJhc8JE6YBdEdy0Bbu5vu7Hhh+wRd8hBFhQqRSTVLzLH5ShDWpkStq5Vl9d88q9WhDkm9axDUrAp0Rgc2IwObVe+8TtRzbv9AdP7S/O7jvULd37ymN6cSYELPGVcti0Dury91dqZv3lh90Fy593N0QE95Zllo6d1hq2AlJhsXuzl2lmRdJqdxFectwZjydgqUz9XCFuFc9CYLobBgqinSUUVSq+YjLOVJHtjlUNutCwCynBGM+mV7v5pdm1Cmti1GEONY4ioGm1hVxVR3UvTsay93v9koSbty7qDi3u6MHFrvDx/d3+/Yt6bdfW/lj5SWp8lndUP3Xu7uq5+1ba90XN651X9y8r7tYfmpPt2/pWLc4e0iVkuFKdpcNqagP1PlNYdyallVoWozYiRGFU9cTo02votJIbs60+yPq/dP4+TlhQhhLBEqDQKy2INIyUBrEy2t9s3GhJ9h4icBsPM+KyGbuLkitlKFkVuv6IMiNm/rdUW9/v9szd687tLjSnT0+373+4p7u7MH57sTSendw5pashzfVq+/XOGlRxCzhIYbGyLEsFfOeeOyexk231w511+8t/uf2zvw3ruu644ezD4eLRGqXbNm1ZdmxHTuuUQNunQBBkRZFUfSHFgX6Q/+xAv2p/aFNWwRxkcaJ43jf0jSOFS/xosXaLFHiIpKzvhn2+zn33dFoTMokNbSH9Txp+Na599xzz37OfWOnP2/ZqdNLdvriOV0bFwEfsoyIdl7aRO9YkomHr4eLxVgweEXsjEVbJgU+EF3QBph/3fGGx277N+BADO5aisHjb8pA9vOctbITtlY5oP20tLOipM26TUpZlcUQmWTOCo05OzRpdnxv3h66a9yO75uyiph2YqIkc5roLoEkAi2CT22T9G9jinak9RpFq9b0qSc2Vxuz312u2ZlLn9tlCaiWTdv0+EFr5cq2mkiTysLwOeUjVDB2BA+ouEXg6CSgINBBHLx/N6WL2yJkl98cEiaEAcEke5guJUo8NudF58bwEWPwbJf4YBZNFASZ0wTncfpleuWk7bKdZWnCOZsu1ezo/qw9fP9+O3l8ymbHG3ZgvGVTYs5CY8kKzaqHHRKZS22TiSmzDB9HOlWEqBA+EUH5VA3drU5m7OSBGXvqweN29lrbTn18xd79/Se23CpZuSANmyOCKuKTCCAi61FA2NDNTgYTGQ7mCUGQIG02T0lujtOm44aVE9I8Ypo1mYRr0jIt3e/kpzWeshWVt6xIG2YaV2Qqztvh8Zo9en/Zvv0He+zEgYodLDStopHl5duarUilNjV8qTP5dyzJImpMlLWFf4n5yTtVx+UnC/ZVK9oj9+6x66tZ+/TCsr37ybx9fPETq9cKNjG5X0LAozgSBKQreAOcZk0mqwdlmGXByb5XC4ax3cRF//nmsbR7nhwaJoy+EZKXSfGckjNjMNnQSpBcAsNxDSkNCUpKe4WKCCWRvzcmIilkRESrl63UvmaP3zNhf/LYcTtxqGRTpbp8IPk/MpdEd8qjTcljmVGQQuwmepG3qMihNEHSslynKUMzsZKYsCRKyRE1VZ9T6irfmVfA4oYdu2/CHjmasSfvK9mrHzfs3GvXbVIu2BhmngI/HUVnCQ5l5SMSyIkaDLUQAzZBlzG2zW9BO9CHiJgUDLnNRlP+b8HqpCOEq1JlwgNPJY230L6uzwX71rGSff+Je+xbR8s2lVuxibGqBFZRJvde92dZjuWpDLXhyXc+2sCzz4vwkFE1Tk4mP35vLp/Y7FpNPmbbDs5W7OFvz9rvL96wN06dl6XwkbVlNeTdN6eETnOl5mknpyoi5z4XTuHQewrdOZ5gvpEm3DxNDOBJzYjPBpONKSeC5R+0CVH5f/3B58OnoSpFEUwkakHaZmV1Vb6Y4nUF5a9EcElr2e49UrLvPfq0/eHd0ny5ZSsnC4pT1Gy5WrUbjZYtVk3aqyBzsmTVFoGLjNXHFiWdm9KiivIJhqKiiuPsxUBFMePURF4/O6bAQ1nBHkUGx6fLVpko2OMPzdi+E8dtceyM7Z1QNLE170GQbGHCCXe1KnOX985QJCCYIeqb5ijaAOpzqtzUBpHyuBco0Jqou6TAUyLmA2VZdbqnUlSUUgJnecWmCsv2zFMn7ZlHj9k9M4KrsaCgTMeu1xs2r/1CTQEr+br1WkNxKgkzFKEYJmjwAB+maUZ1qBn5elTj5PKKBGdrEmxN239Y/iCRLpm7D56YtX1HD9vJC1X72YsfyfeUZl0lEk2bmlsxYEdCEoFZkKZGu/p4GIfg/yaYn/2TPCSaEIoKWi+Yo/CjDEQnNky2IDkhjKK/TlAaUSYTlmuGZUPKV7nnVVu0ifHEHnrgiD3+4P12bKpiny8s2Ol5BWWk/NptSf3qmhhOwRTlDptrYi8FLNbGyh4BzeelSUVIDfXjOTxpB0xc2IOCgMyCGlmoiaG0WqKoSN9nMuNKq1aZNps6WrA/euIxO7inImJT0j4vv0xmLVxRkaPYcQILZjSsEs3szbPezalzLQHZOlrUFqaiNBMphrLSIyRP9mSk9atX7a794/b9J5+QDzxpmXrb3vnVRbuxiJ+cVeBJ+JCQa0hjJtJUawqsrOm6pxcUASUokxDYkiAao6pGWm2sxbG0oooTsGDL2bKNLwq3RGIlqCZmOjY5c8juPnDMfvBdBa4608KRnleAq1GX5JPvmRMuEpmqymDK7A+5wjC6oAF7GXFkjvaz7I6dR00QJKJTV1czYJqiIQPVYZX6G63lW6yJKKh8yeu8VatJ8rfs2MyEHZ5WMGJp0U6dPS/GTMS4itrVVV4moisU95Dds7YimGMi2Az5PTE8iX7ygkZAgVIrHXfkXzU8Zyiil8YtyeytVZdMUQkrifCtU7X24qrl5xXAOfOB8tAVu3x+zubnluwv/ubvbXL2iOCSFijo+wrWuFmnD6aeS79bONDZqv/ibTAenidSnJEfjAnp1T+oQmn6CWmdSTHUffsPk6mwj949q0goqQgxQWGv4JmWEMpZTZHL5phgVD5QtXdi6ZAXTYRflyAOKFKJaiIwR76Q0j2Z7CpLW1ZKIpmrekCqVByzq2dWLfn4rNI5C7IYZvX9MfvwrZdt5k//3CozM3InVB+AQEP4CcZQxhcQ8U1guPUmdHg0YfT/oExoUXsYLphFnOmibvFLuOhMSsowbZJGTUym8imZesePHLXjhyesuVy164vzVlJur5Cb4OmQ35IpRUCHZD5vyvZuZHKisTryAwvCBvWOTnm6T11oi7C/P6hwvPKKWREqIXZyYoXsjAduOuTUZGIRwFi+tmiv/uJlO3bkhD39g7+0XHlStaXALv1HXZjaIT2BZ+vCJpqnfkt/Aj3S4ZdsDlTYJEwwIz2iK1MyKyFyaPKo3bX3fttXudtqK9JA0nQK/CoAU1DEV0EVPZeQJpAPDSgIGmBquzDSTT1PtBWeRghmKLXzFAgwIsAUDlI/a6pNLZYP6HmlbmSdZBGKsiaqSmU05heVqlixZ//9X92X/95f/61wKj9R1UUdwcAMUJjUq/lYadLrC34TzNPhYMKU6ZwrIAYIEW2XEgDHmJ5MCKsUmnVFLRX8IKTJeaK81/RkxToHDim0IjNJWo4X8DLNPJsoz1coY3bK75OWwNKFHcmjwxc5/Smq9qopf5NAjxOBCK4tE8zL1fS9UFOqmGeRWkm1o3KupvJn4UexlbyXIMiKeCf1bpeWpPyPf/QT2zurIMjTfxyGEpmMocF/ELiu4Xd5Pt+JGwSEcfvY9UwkSM7ZorbQLT0QGKSlk458NAEpYSLTnKimmOHoscNiOAkPMWixOK5YlMxO2dp43Pm8/FldSxRYSRKCVTSIxnPXW9o7K8tRQk7mKNdxD8ADIHpuEob1OzIqxcwNpSwoWhgXHovFilIhNSuNV2y5KTUsXD774/8Uk67Zn/3V36lvzRJjc+nGuMO4wlKvMO4wWP+rzSMC68gnR+q6d9Iv7ordcDAhM+suYUA2ZhWn+DtOl05tYaLc7JLWSxQ9UJzACeLtN9+yelVmocyyZlUMmqkowa4aST0DM+aViK7LzCQNn52UmUlztKt+shCuzKJERJagWb0j/Sc4hO/jvqq+GdShTDf5oiJ4t1zlL2JekpxPFJ3M1ynqlq+jEP71a0t26rfv24lHn7T8tASEd6gtZUAPqqQpDNqgrK2fCSPD9ZtpzsBoPf1DszfQVGqaGtFsUYJkZcXeevcFy082VVK2ipVpdfl9HuEU3HmNN6PobSJTOStrIZeZFHzEb3lGFUSEMWW0+6oTJIb6YCVIiJriK9M3q1FYpSGTXNZJRZUzRQWqWNhcr6/qvtpDoMm8yMtvr1Zr9ov/ftYePPmAPfDo48KhhKLw10EbI+Qcz3Tls+5jc883lUld+ZSi0a9znArr8OXd+RcMf/2bm2FwBhoPzZMSP2kKTDd9SHbzWEICWBNMdA5T5sLpj+25//qR3ZhT5YcICVPT0wKa5HyRgItqNWRqul+pkTakKRIFclzyq0HMMIitoaBGIqZYEyNCAG31iaTn2Ofa/1ESpyJwaUzUV5asvmBqKLfGEp68TLuJSaU95J9OVcbtjddftg9O/SYdD1QjQkMDRC0PUwCGq346S/fhLNVO3BcM6YdbXe1IWzCkjwVzWWakNPLVKxfs12+/LgJX4EgWA6VsJOybFKhLgJGGaQpmgmEtXcM6oNYdyyEr05Ya2yw+sxexBybJ6NwXLMuULJbK+uUnFUQod8qvUFEYgY9Yq6+ovTq+gooX5CRKUGB61uVDqzUJvMT++Z/+0T577x11TT5SeSL120bgCf5gdaTjBe/dMQcaYIxBFYfxpshLsbV7d8OhCVMyZ0acVEWZmGjQJPKRPaSEfszJr2sptD4mxspIy/3Hv/2LXTr3qRLyIh4cfqnHMKkiHrSXE1dYR5fXMRE97US4wewNDEF/Oscf0n1gcNPL5zXIKc9d6p8XA3DZzTTpA6KnEKqihTURFoUComNpOa2uEJyn3nnLTn7nYStOTQdt4iad28P6XmRw7yh0nB6y6zVH47H3pY+bboIJTY1FgKAiMb8mAfH6Cy8pINWSualAi0xxN5mVLPfeZEJ7zlX5vhZrK52J5ddSlABiQIALAwRM8Jv9eirE0JhuGdCnX+cWZTYR8PAdN1kVsU3UHwXt4B0xtjJ3zX7ywx/aPxy/1wqlPdLc8i1ZIiaNmUggsJrDUyP65yV/+p/uAMHPw0XBRw7LNWiYqQjBbtsPhyZ0LDObQeK5NgwUoespsTk7UkIlx19+WaGYszef/5mdO/2pcnMVXz1BpQuTz3OSza4lfHp8IlNdpn3WiRdGDJrEJxfty/fQThBAOvn+PWBL26AUk3n3FIa+5iQHIct/IliBls1KghDIaCuKePnyBVudv65HCO0HQRI5nSH60AE5hTM98l2vORqZzx8DbpgRUoU50MJcl5ZvVVfs048+tnFpq6YCMr4ukvycnsH0Bmrw4sSscflyXSwOSF+D86H6PNBu+vHj9Lo/o/sgyJHE9Z5n9aC/YMqnU9elYvnQQEd+9JoYbmFuzv7np8+J8RSJ1bOedtJ9XtUYLKF07DTP5PhYwxw4YgKQHIRjv7h7t+FgwjBjjtCQxBZCofAwx068gXhEUEQNxIjVG8v28+d+qlpGVf+LAUtUcvAdGZFhNTx7SW2IH3PH175hrsLMLHbF30k/KdN2z+P1L9vHNhAU7luyF7E7MYWAz8ULF+3K51ecuBw8CBOidw0qFoYxnRMZc7rnudtskTn9u3yPMSJ01O/l8+ft7Lkz0G2IOjmd0jf9OgTaJCQEh3u04FZaEP3jQqj304sfjvvvr/esfwe4wj7inGJw+mP6Fuav2Ysv/1LMeEW38bcFo8bgi6aYM8oGYeb0A4MyBmc+3/gCzKnD7rX01i7cDQcTQhyIWieSIFWdRCAUXYNgmAMimR05/mijN155xa5dvepBEQi/owhgQURIO0FuhrZcgnav0E/K6EzeAD5xRYcTDOQhP4pjTKuyIqU1BYwWF+YlBCCuQDcOH3BCVxGeSFDsN7uleKOMrInfKw382dlzbvaSTinKb6OToM2dW0O/DinaPuI2xdEA8OH4BefpPKAVETb46mwlaWjO565ctbfeeDOsdkGISbCGnKGEmfxuaMHfzxPnD5B9vMwxxyBP5+x3+TYcTAhWnQjZI52dRHQpSLyu2cjEirhbqrx47aWX5J9JdmvtjMIIzoiE028SeEpwTuxMWDyni8AAzN+dfBxs0QtWWcxvkTLxVQeU10kowBDz169JuEOMKXFCN+o4DDcIGycsJ97NU1Qwk9Eu8pMbFBkktrS04CkafzW/tDOWoPcFUacM0mW+cOuOcLAx/lJBw4yAH5hM84N/SjCHPO8br71iyzeWhEO0rB6CGbXH2gliAWsBRsOcDkEib8zxlDIg+12+DQkTBpSLNRzBQfpBOzAL14Jp4+kJ5Zg+OPU7W1pYsobC3mVFQBNpgUmtgUt4FYMmzb/ik3fz429D83uaxHQffJ9g6mzn2AmCtErapofadQkmZBzAy60Flc4Bo8MF57HjH+PjOSdAvpLu/YmNt+AvQ4eMhXb0YietpMfnqioyCw74ncSmtKFbykR9vXNesxFwHIzD9Pu0sQMf8AwsRD0pZPDXa4gZOeYlyZcuXLIP33vP8cSLooLmk9bEZvUt4AicBXMU/DCPwM1tjjfG0265MyRMCG0yYWFP1MsZkUl0sglE5Hkn1TS++srL1lClDJE0Jg5JSdog/Ey1niWHhr/FPv2Qz/Bj2or7tHW/to1P14uCqdUm68abblYp+V8oo5wdtqqKxlmh4MEUPoEPUzpLCWodouoyG0SYfviSC5rIwM5H8pVTUxyGHxOB8xKnnMxhlmGtSYt0lLbx14C490epXrAygNXfhkbOk/028LDhdyL+1S54yPqrQpSzlPVCrjevOfnV22/7eNwcVd/sw3yHeQ8xAq7onuepHAGB+fx4t7DaxnAOSYoCvEJoECl6AYmn/2gSwd6WFgHxlJpVF+fswoUL/nKloibRk+DyN1ZVGUM1S0KARO30Sxd/jMb8T89+Y9x86Z0IJ0IDoQxFYP6RY+uwBlEXvarE1ZEOdM/hlfYkbQIowSdMuwLooET9ghNnuo/HnDsDpvc8tYJN7Nd5iwBRTlabCJey4Hi9TPihGCgWCOnU/woGQi2hPS4Q8R0UUYMbhM0awi9lmqgV14Qfr/IRvJ+dO2dL8/Mq+p7x6K4GoTGo6oefHAdk4HLIw7Hvw1DCjfSZ9IlduRsaJgzsBn6RxoEAMV9gJ19RwUzIjPn0g9/b6oqS0DJLW6qCUVaeVLTC3VoRoclOlDSjjUCWOz8noTc0iXSMiF8c6ITXdGZCqGT0c2kq4/LEJ/DwLNfjGGGSlMz6CKqXCXtHAhOGd5gGrDlf06+WT5UnptwXJNFO4iERJ2QJG7vJpz6pUNHz0d8mPdHGqXWsdcl9xxCHsKJYnIwgAgrz+cP337envvtMYDoXn0CCcAnT3gUmMl94JAisfmm7Y5DvXMPDw4QQkoiBMiYn7dSF2AAACLJJREFUMqcH/oi4SUJLwq/cWLAXfvminTn/mdaxUQSc2KrWCK7JTKWIm6qVUN6988QUp4SenIShbAJFCj6geTBFWfja0NIff99YagI7Y6G9GB3c45QGV2gP4/YQVdR40Sx1jDhjBxw5DOqrjeaQ5kVYseL9+qJWyCvUT1E7+T8adqIOvXp3/poJrAYWBKtrnoyC0NvdoS3iC4jaKv6eX7lkP3/+eXvokYdtYu9et3pyiuqybpRfPHYcgKYw1ICvXhXpN3YI2K+o2aFhwqAMIEhGHggV4mESSNB3VK62rMW7v37ntzYvv6etChSImNInGDSvMrYEyoeWU5r+KnAYaYA+nYEEAmZzm0igfCB8s6AUo/kpotJ9tCGMG4gyaKf0pEtUG2lCx1DKiN6/KlZgsTHeGyoz7rpyqJyruMirj5z5QLDbzBB1Wumjc+6HF2aJLb6geu4Eg6Gv/hYcXv1xE1WvAVlWCuft3/yvL7ae3LNHMkVIBFyXwqmwQvB0BZRu4huyeVhax+lpf1+75XxomBBERsnvoXU5V/zQpSsLnHWZW3kCDZqkQnnc97xqgdwYTOp7EsVoHKRn4OodnQcIKpXR7utBDzmvJ4UwXBV6iqIyLeJCqsM46TjJecKIXTqCkJxCtwiy+mXMfA3CHddb49C8ZV754dQeVk04TDzjEkFsSd8UYutCfGsdj2+5/w3AjU1FYRHnw7vnO3ogwysyCiXBH+aW4BmmOfNJjasXnPNgFFjY06kg8UZcaAwQ6A3GstOXh4cJwTUEBdq1h/mcCaXdCDZQLJ2VtsvJDE00UTVNlP8GAj6hT4w2TaJPOtL+K2LCINUDPbjOIeoIDP62MkVt5fiwjIpFvbFAGTKEdPxtZjru0tF26El9sVAWpqKGNKeUTVPRmIJMOlIBLDNyP5Ue9ayDxyH9Yz4Diy9TSpkjReWdEl4UhOvOhw9eHzFZhrWg4+NuLZBSyeq8rtI2CsQDdgKwDp+bOKlK5MJIE97pNPV9X5QRzCEYiHuBGdswof4RTbyhWkjmoSlTr8zv7+mZ4FvIHNN3YFyf20DaAwbwi81BS8Dsqz5cA0vr6NwDLTrnxcH8bkVpfEImavihGh+AiB9YA/f1tLsNBnCN5v0hwMwmtYrD0xDiNt48Do54SW/QdixhEn5Fx06/KBYde4pCF4KW/OI4N7xyG3g9sq1xBtNb+IH72dQvfiqR2TVWcgg/iYQGC4gx38FbXiv0Ce0GUcVxFFQgjU1A014Xh7cBJP3GMO+GSBMyYaGmEsIKrKSJ0hHmlr+EVmsEG/rUVC86ObVHy5Ja/rZt/7ES8mRuloa6zeAq+Cx5W7fumZL+a1s/D1qMGGTgJ9G8mCvkCQmMZPX+Tc/XyRR1zawHXcDAgZw6AzlJOZThDwe337rmdtoOjM/3/XX+ImRypo5DGN9/GAeyx7pQTwDrwktMSyUdDIgo4x0zUa1vFjdBkqi9W3HnYDEuirddDLARC003XUBAYMkglBaWlvw3LzDXKbfLKxDn6EoFFvB7DzQUke2wota72LvZ/i47GiImFKLRENJ8kAWmKFUmXmWvRaGrvFFNZt3RI3pvi5K94/ILSe92tR6mHVpJcwPrwiD9xMElyDWQzE3CcWbiO1xK7663d6nuLd/aNl/zGlcJgBblajoul4sqIbth99x7t83OzqptNDx+GABKaGjXzY3SbW+TX0JEXVOb9vQsr7+HQinbm5ndY49/5zFb1ivuWcuHycnKji4Fg6N0vK4NGbmAcTdgvbFrzOHOTcyBG28D66WL7ZsDiPgFnzf983A14pUW0MoNldsdOXpUNbb6bQzX3npFBmtC/PFQbwpuaL0LXveYDuLNL0HaEN+WkAmk93XDCLOFekckGzQTpGLUgoAJIzbFgO5npET9dcMd4QB+6kZhQgirUtErdbXnc/DgQf8J7S6qBb8TlbZImtsZBz4mzI/2iPijnUuXLtnU1JTjk/6Ba1jwFccJPJSuAXe9Xrd9+/b5vDK/4Mo1YkxR6Pot8oFGtiC0toPbr/I7Q8OEkUAjgzE5bKEI+iZjDhMDAl8kbo/ooZlE+P0b93qvR012q27o/9bG57HPLlP3wBG/FfHEKv9xBT6GiQkjLDBcQVYODMc1FyTShvzIai+8vTx4K1b+f3Di0DEhSGYC+HjoXTMAEfOBISMxDwtRRTggIGCNDOZpE40BLRTHBOxc00N+7U5JKPaNJgE3URND2BGeW4l2OM/655JzGJNx9N8bzhHcGVRDxYRRevciPh733hu2iXHG0haZLDIi1zjGJMS0imNYT1tuZxpjv7E/GA/NVy7r3TqpZuYZGHQYcQYeooBFgET8DZug3c7cbOU7Q8OEAB0JJe6jmeIr1UXM/QzZS+xbGfQgn40wwQC9ZifnUXPjJ0JkvWMYBAxuvomQ2QNHJOpIxP3CYBB9DrKNCD9tgrvoB/YKq2ETHoMcf2xraKKjvQzIMVucjHge99zrPd4JxGy2zV44ehktMiXtxADDoAkq4gcCZuPclzRpi4wftcuw4AvYIh564QbOKGyjKT1MMDtSd2gbGk0YJ4YJiFokSvI4Gb1M2Svleyc2PtN/f7v4i3Cxvx0T9d+j/8iIvcwJHIOCrXfcvfD14qAfrs3iYbPj3mx7/c/F9qP10GuCci8Kj0Hiqh+GYTkfGiZcDyFMBluciO0S1Hpt7/S1flj7zwfRfy+j9OMptj9ooTQIuGMbvTjZaK53Am+DHMMg2hoaJuwnqPWIKhLU7QY+aKJbD67b9d9P/P3ng5bs68E3CBys1+5mxr3dZ3oFbZz7bwID+lg10KButou90fdGGBhh4I4w8MXM8h01N/ryCAMjDGwVAyMm3CrGRs+PMDBgDIyYcMAIHTU3wsBWMTBiwq1ibPT8CAMDxsCICQeM0FFzIwxsFQMjJtwqxkbPjzAwYAyMmHDACB01N8LAVjEwYsKtYmz0/AgDA8bA/wFODK3OoaU7tQAAAABJRU5ErkJggg==;" parent="1" vertex="1">
          <mxGeometry x="20" y="230" width="48.28" height="100" as="geometry" />
        </mxCell>
        <mxCell id="YRq7Emb6F6VTycI_Y0Oi-3" value="&lt;b&gt;Speech data&lt;/b&gt;" style="rounded=1;whiteSpace=wrap;html=1;" parent="1" vertex="1">
          <mxGeometry x="160" y="65" width="240" height="40" as="geometry" />
        </mxCell>
        <mxCell id="YRq7Emb6F6VTycI_Y0Oi-4" value="&lt;div&gt;&lt;b&gt;physiological data&lt;/b&gt;&lt;/div&gt;&lt;div&gt;Heart rate&lt;/div&gt;&lt;div&gt;Sleep patterns&lt;/div&gt;&lt;div&gt;Stress level&lt;b&gt;&lt;br&gt;&lt;/b&gt;&lt;/div&gt;" style="rounded=1;whiteSpace=wrap;html=1;" parent="1" vertex="1">
          <mxGeometry x="160" y="145" width="240" height="70" as="geometry" />
        </mxCell>
        <mxCell id="YRq7Emb6F6VTycI_Y0Oi-6" value="&lt;div&gt;&lt;b&gt;EHR records&lt;/b&gt;&lt;/div&gt;&lt;div&gt;Patients history&lt;/div&gt;&lt;div&gt;MRI data&lt;b&gt;&lt;br&gt;&lt;/b&gt;&lt;/div&gt;" style="rounded=1;whiteSpace=wrap;html=1;" parent="1" vertex="1">
          <mxGeometry x="160" y="245" width="240" height="50" as="geometry" />
        </mxCell>
        <mxCell id="YRq7Emb6F6VTycI_Y0Oi-7" value="&lt;div&gt;&lt;b&gt;Cognitive task activities tracking&lt;/b&gt;&lt;/div&gt;&lt;div&gt;Gaze tracking&lt;/div&gt;&lt;div&gt;Gesture estimation&lt;/div&gt;&lt;div&gt;Facial expression&lt;/div&gt;&lt;div&gt;Emotion analysis&lt;br&gt;&lt;/div&gt;" style="rounded=1;whiteSpace=wrap;html=1;" parent="1" vertex="1">
          <mxGeometry x="160" y="325" width="240" height="90" as="geometry" />
        </mxCell>
        <mxCell id="YRq7Emb6F6VTycI_Y0Oi-8" value="&lt;div&gt;&lt;b&gt;Behavioral records&lt;/b&gt;&lt;/div&gt;&lt;div&gt;Screen time&lt;/div&gt;&lt;div&gt;daily routines&lt;br&gt;&lt;/div&gt;" style="rounded=1;whiteSpace=wrap;html=1;" parent="1" vertex="1">
          <mxGeometry x="160" y="445" width="240" height="50" as="geometry" />
        </mxCell>
      </root>
    </mxGraphModel>
  </diagram>
</mxfile>
